<svg xmlns="http://www.w3.org/2000/svg" xmlns:xlink="http://www.w3.org/1999/xlink" width="600" height="400" viewBox="0 0 2400 1600">
<defs>
  <clipPath id="clip670">
    <rect x="0" y="0" width="2400" height="1600"></rect>
  </clipPath>
</defs>
<path clip-path="url(#clip670)" d="M0 1600 L2400 1600 L2400 0 L0 0  Z" fill="#ffffff" fill-rule="evenodd" fill-opacity="1"></path>
<defs>
  <clipPath id="clip671">
    <rect x="480" y="0" width="1681" height="1600"></rect>
  </clipPath>
</defs>
<path clip-path="url(#clip670)" d="M286.268 1423.18 L2352.76 1423.18 L2352.76 47.2441 L286.268 47.2441  Z" fill="#ffffff" fill-rule="evenodd" fill-opacity="1"></path>
<defs>
  <clipPath id="clip672">
    <rect x="286" y="47" width="2067" height="1377"></rect>
  </clipPath>
</defs>
<polyline clip-path="url(#clip672)" style="stroke:#000000; stroke-linecap:round; stroke-linejoin:round; stroke-width:2; stroke-opacity:0.1; fill:none" points="344.754,1423.18 344.754,47.2441 "></polyline>
<polyline clip-path="url(#clip672)" style="stroke:#000000; stroke-linecap:round; stroke-linejoin:round; stroke-width:2; stroke-opacity:0.1; fill:none" points="994.592,1423.18 994.592,47.2441 "></polyline>
<polyline clip-path="url(#clip672)" style="stroke:#000000; stroke-linecap:round; stroke-linejoin:round; stroke-width:2; stroke-opacity:0.1; fill:none" points="1644.43,1423.18 1644.43,47.2441 "></polyline>
<polyline clip-path="url(#clip672)" style="stroke:#000000; stroke-linecap:round; stroke-linejoin:round; stroke-width:2; stroke-opacity:0.1; fill:none" points="2294.27,1423.18 2294.27,47.2441 "></polyline>
<polyline clip-path="url(#clip672)" style="stroke:#000000; stroke-linecap:round; stroke-linejoin:round; stroke-width:2; stroke-opacity:0.1; fill:none" points="286.268,1304.06 2352.76,1304.06 "></polyline>
<polyline clip-path="url(#clip672)" style="stroke:#000000; stroke-linecap:round; stroke-linejoin:round; stroke-width:2; stroke-opacity:0.1; fill:none" points="286.268,1025.89 2352.76,1025.89 "></polyline>
<polyline clip-path="url(#clip672)" style="stroke:#000000; stroke-linecap:round; stroke-linejoin:round; stroke-width:2; stroke-opacity:0.1; fill:none" points="286.268,747.716 2352.76,747.716 "></polyline>
<polyline clip-path="url(#clip672)" style="stroke:#000000; stroke-linecap:round; stroke-linejoin:round; stroke-width:2; stroke-opacity:0.1; fill:none" points="286.268,469.545 2352.76,469.545 "></polyline>
<polyline clip-path="url(#clip672)" style="stroke:#000000; stroke-linecap:round; stroke-linejoin:round; stroke-width:2; stroke-opacity:0.1; fill:none" points="286.268,191.374 2352.76,191.374 "></polyline>
<polyline clip-path="url(#clip670)" style="stroke:#000000; stroke-linecap:round; stroke-linejoin:round; stroke-width:4; stroke-opacity:1; fill:none" points="286.268,1423.18 2352.76,1423.18 "></polyline>
<polyline clip-path="url(#clip670)" style="stroke:#000000; stroke-linecap:round; stroke-linejoin:round; stroke-width:4; stroke-opacity:1; fill:none" points="344.754,1423.18 344.754,1404.28 "></polyline>
<polyline clip-path="url(#clip670)" style="stroke:#000000; stroke-linecap:round; stroke-linejoin:round; stroke-width:4; stroke-opacity:1; fill:none" points="994.592,1423.18 994.592,1404.28 "></polyline>
<polyline clip-path="url(#clip670)" style="stroke:#000000; stroke-linecap:round; stroke-linejoin:round; stroke-width:4; stroke-opacity:1; fill:none" points="1644.43,1423.18 1644.43,1404.28 "></polyline>
<polyline clip-path="url(#clip670)" style="stroke:#000000; stroke-linecap:round; stroke-linejoin:round; stroke-width:4; stroke-opacity:1; fill:none" points="2294.27,1423.18 2294.27,1404.28 "></polyline>
<path clip-path="url(#clip670)" d="M307.057 1454.1 Q303.446 1454.1 301.617 1457.66 Q299.812 1461.2 299.812 1468.33 Q299.812 1475.44 301.617 1479.01 Q303.446 1482.55 307.057 1482.55 Q310.691 1482.55 312.497 1479.01 Q314.325 1475.44 314.325 1468.33 Q314.325 1461.2 312.497 1457.66 Q310.691 1454.1 307.057 1454.1 M307.057 1450.39 Q312.867 1450.39 315.923 1455 Q319.001 1459.58 319.001 1468.33 Q319.001 1477.06 315.923 1481.67 Q312.867 1486.25 307.057 1486.25 Q301.247 1486.25 298.168 1481.67 Q295.113 1477.06 295.113 1468.33 Q295.113 1459.58 298.168 1455 Q301.247 1450.39 307.057 1450.39 Z" fill="#000000" fill-rule="nonzero" fill-opacity="1"></path><path clip-path="url(#clip670)" d="M327.219 1479.7 L332.103 1479.7 L332.103 1485.58 L327.219 1485.58 L327.219 1479.7 Z" fill="#000000" fill-rule="nonzero" fill-opacity="1"></path><path clip-path="url(#clip670)" d="M352.288 1454.1 Q348.677 1454.1 346.848 1457.66 Q345.043 1461.2 345.043 1468.33 Q345.043 1475.44 346.848 1479.01 Q348.677 1482.55 352.288 1482.55 Q355.922 1482.55 357.728 1479.01 Q359.557 1475.44 359.557 1468.33 Q359.557 1461.2 357.728 1457.66 Q355.922 1454.1 352.288 1454.1 M352.288 1450.39 Q358.098 1450.39 361.154 1455 Q364.233 1459.58 364.233 1468.33 Q364.233 1477.06 361.154 1481.67 Q358.098 1486.25 352.288 1486.25 Q346.478 1486.25 343.399 1481.67 Q340.344 1477.06 340.344 1468.33 Q340.344 1459.58 343.399 1455 Q346.478 1450.39 352.288 1450.39 Z" fill="#000000" fill-rule="nonzero" fill-opacity="1"></path><path clip-path="url(#clip670)" d="M382.45 1454.1 Q378.839 1454.1 377.01 1457.66 Q375.205 1461.2 375.205 1468.33 Q375.205 1475.44 377.01 1479.01 Q378.839 1482.55 382.45 1482.55 Q386.084 1482.55 387.89 1479.01 Q389.719 1475.44 389.719 1468.33 Q389.719 1461.2 387.89 1457.66 Q386.084 1454.1 382.45 1454.1 M382.45 1450.39 Q388.26 1450.39 391.316 1455 Q394.394 1459.58 394.394 1468.33 Q394.394 1477.06 391.316 1481.67 Q388.26 1486.25 382.45 1486.25 Q376.64 1486.25 373.561 1481.67 Q370.506 1477.06 370.506 1468.33 Q370.506 1459.58 373.561 1455 Q376.64 1450.39 382.45 1450.39 Z" fill="#000000" fill-rule="nonzero" fill-opacity="1"></path><path clip-path="url(#clip670)" d="M957.509 1454.1 Q953.898 1454.1 952.07 1457.66 Q950.264 1461.2 950.264 1468.33 Q950.264 1475.44 952.07 1479.01 Q953.898 1482.55 957.509 1482.55 Q961.144 1482.55 962.949 1479.01 Q964.778 1475.44 964.778 1468.33 Q964.778 1461.2 962.949 1457.66 Q961.144 1454.1 957.509 1454.1 M957.509 1450.39 Q963.319 1450.39 966.375 1455 Q969.454 1459.58 969.454 1468.33 Q969.454 1477.06 966.375 1481.67 Q963.319 1486.25 957.509 1486.25 Q951.699 1486.25 948.621 1481.67 Q945.565 1477.06 945.565 1468.33 Q945.565 1459.58 948.621 1455 Q951.699 1450.39 957.509 1450.39 Z" fill="#000000" fill-rule="nonzero" fill-opacity="1"></path><path clip-path="url(#clip670)" d="M977.671 1479.7 L982.556 1479.7 L982.556 1485.58 L977.671 1485.58 L977.671 1479.7 Z" fill="#000000" fill-rule="nonzero" fill-opacity="1"></path><path clip-path="url(#clip670)" d="M1002.74 1454.1 Q999.129 1454.1 997.301 1457.66 Q995.495 1461.2 995.495 1468.33 Q995.495 1475.44 997.301 1479.01 Q999.129 1482.55 1002.74 1482.55 Q1006.37 1482.55 1008.18 1479.01 Q1010.01 1475.44 1010.01 1468.33 Q1010.01 1461.2 1008.18 1457.66 Q1006.37 1454.1 1002.74 1454.1 M1002.74 1450.39 Q1008.55 1450.39 1011.61 1455 Q1014.68 1459.58 1014.68 1468.33 Q1014.68 1477.06 1011.61 1481.67 Q1008.55 1486.25 1002.74 1486.25 Q996.93 1486.25 993.852 1481.67 Q990.796 1477.06 990.796 1468.33 Q990.796 1459.58 993.852 1455 Q996.93 1450.39 1002.74 1450.39 Z" fill="#000000" fill-rule="nonzero" fill-opacity="1"></path><path clip-path="url(#clip670)" d="M1023.71 1481.64 L1031.35 1481.64 L1031.35 1455.28 L1023.04 1456.95 L1023.04 1452.69 L1031.31 1451.02 L1035.98 1451.02 L1035.98 1481.64 L1043.62 1481.64 L1043.62 1485.58 L1023.71 1485.58 L1023.71 1481.64 Z" fill="#000000" fill-rule="nonzero" fill-opacity="1"></path><path clip-path="url(#clip670)" d="M1607.53 1454.1 Q1603.92 1454.1 1602.09 1457.66 Q1600.29 1461.2 1600.29 1468.33 Q1600.29 1475.44 1602.09 1479.01 Q1603.92 1482.55 1607.53 1482.55 Q1611.17 1482.55 1612.97 1479.01 Q1614.8 1475.44 1614.8 1468.33 Q1614.8 1461.2 1612.97 1457.66 Q1611.17 1454.1 1607.53 1454.1 M1607.53 1450.39 Q1613.34 1450.39 1616.4 1455 Q1619.48 1459.58 1619.48 1468.33 Q1619.48 1477.06 1616.4 1481.67 Q1613.34 1486.25 1607.53 1486.25 Q1601.72 1486.25 1598.64 1481.67 Q1595.59 1477.06 1595.59 1468.33 Q1595.59 1459.58 1598.64 1455 Q1601.72 1450.39 1607.53 1450.39 Z" fill="#000000" fill-rule="nonzero" fill-opacity="1"></path><path clip-path="url(#clip670)" d="M1627.7 1479.7 L1632.58 1479.7 L1632.58 1485.58 L1627.7 1485.58 L1627.7 1479.7 Z" fill="#000000" fill-rule="nonzero" fill-opacity="1"></path><path clip-path="url(#clip670)" d="M1652.76 1454.1 Q1649.15 1454.1 1647.32 1457.66 Q1645.52 1461.2 1645.52 1468.33 Q1645.52 1475.44 1647.32 1479.01 Q1649.15 1482.55 1652.76 1482.55 Q1656.4 1482.55 1658.2 1479.01 Q1660.03 1475.44 1660.03 1468.33 Q1660.03 1461.2 1658.2 1457.66 Q1656.4 1454.1 1652.76 1454.1 M1652.76 1450.39 Q1658.57 1450.39 1661.63 1455 Q1664.71 1459.58 1664.71 1468.33 Q1664.71 1477.06 1661.63 1481.67 Q1658.57 1486.25 1652.76 1486.25 Q1646.95 1486.25 1643.88 1481.67 Q1640.82 1477.06 1640.82 1468.33 Q1640.82 1459.58 1643.88 1455 Q1646.95 1450.39 1652.76 1450.39 Z" fill="#000000" fill-rule="nonzero" fill-opacity="1"></path><path clip-path="url(#clip670)" d="M1676.95 1481.64 L1693.27 1481.64 L1693.27 1485.58 L1671.33 1485.58 L1671.33 1481.64 Q1673.99 1478.89 1678.57 1474.26 Q1683.18 1469.61 1684.36 1468.27 Q1686.61 1465.74 1687.49 1464.01 Q1688.39 1462.25 1688.39 1460.56 Q1688.39 1457.8 1686.45 1456.07 Q1684.52 1454.33 1681.42 1454.33 Q1679.22 1454.33 1676.77 1455.09 Q1674.34 1455.86 1671.56 1457.41 L1671.56 1452.69 Q1674.38 1451.55 1676.84 1450.97 Q1679.29 1450.39 1681.33 1450.39 Q1686.7 1450.39 1689.89 1453.08 Q1693.09 1455.77 1693.09 1460.26 Q1693.09 1462.39 1692.28 1464.31 Q1691.49 1466.2 1689.38 1468.8 Q1688.81 1469.47 1685.7 1472.69 Q1682.6 1475.88 1676.95 1481.64 Z" fill="#000000" fill-rule="nonzero" fill-opacity="1"></path><path clip-path="url(#clip670)" d="M2256.9 1454.1 Q2253.29 1454.1 2251.46 1457.66 Q2249.65 1461.2 2249.65 1468.33 Q2249.65 1475.44 2251.46 1479.01 Q2253.29 1482.55 2256.9 1482.55 Q2260.53 1482.55 2262.34 1479.01 Q2264.17 1475.44 2264.17 1468.33 Q2264.17 1461.2 2262.34 1457.66 Q2260.53 1454.1 2256.9 1454.1 M2256.9 1450.39 Q2262.71 1450.39 2265.76 1455 Q2268.84 1459.58 2268.84 1468.33 Q2268.84 1477.06 2265.76 1481.67 Q2262.71 1486.25 2256.9 1486.25 Q2251.09 1486.25 2248.01 1481.67 Q2244.95 1477.06 2244.95 1468.33 Q2244.95 1459.58 2248.01 1455 Q2251.09 1450.39 2256.9 1450.39 Z" fill="#000000" fill-rule="nonzero" fill-opacity="1"></path><path clip-path="url(#clip670)" d="M2277.06 1479.7 L2281.94 1479.7 L2281.94 1485.58 L2277.06 1485.58 L2277.06 1479.7 Z" fill="#000000" fill-rule="nonzero" fill-opacity="1"></path><path clip-path="url(#clip670)" d="M2302.13 1454.1 Q2298.52 1454.1 2296.69 1457.66 Q2294.88 1461.2 2294.88 1468.33 Q2294.88 1475.44 2296.69 1479.01 Q2298.52 1482.55 2302.13 1482.55 Q2305.76 1482.55 2307.57 1479.01 Q2309.4 1475.44 2309.4 1468.33 Q2309.4 1461.2 2307.57 1457.66 Q2305.76 1454.1 2302.13 1454.1 M2302.13 1450.39 Q2307.94 1450.39 2310.99 1455 Q2314.07 1459.58 2314.07 1468.33 Q2314.07 1477.06 2310.99 1481.67 Q2307.94 1486.25 2302.13 1486.25 Q2296.32 1486.25 2293.24 1481.67 Q2290.18 1477.06 2290.18 1468.33 Q2290.18 1459.58 2293.24 1455 Q2296.32 1450.39 2302.13 1450.39 Z" fill="#000000" fill-rule="nonzero" fill-opacity="1"></path><path clip-path="url(#clip670)" d="M2336.46 1466.95 Q2339.81 1467.66 2341.69 1469.93 Q2343.59 1472.2 2343.59 1475.53 Q2343.59 1480.65 2340.07 1483.45 Q2336.55 1486.25 2330.07 1486.25 Q2327.89 1486.25 2325.58 1485.81 Q2323.29 1485.39 2320.83 1484.54 L2320.83 1480.02 Q2322.78 1481.16 2325.09 1481.74 Q2327.41 1482.32 2329.93 1482.32 Q2334.33 1482.32 2336.62 1480.58 Q2338.93 1478.84 2338.93 1475.53 Q2338.93 1472.48 2336.78 1470.77 Q2334.65 1469.03 2330.83 1469.03 L2326.8 1469.03 L2326.8 1465.19 L2331.02 1465.19 Q2334.47 1465.19 2336.3 1463.82 Q2338.12 1462.43 2338.12 1459.84 Q2338.12 1457.18 2336.23 1455.77 Q2334.35 1454.33 2330.83 1454.33 Q2328.91 1454.33 2326.71 1454.75 Q2324.51 1455.16 2321.87 1456.04 L2321.87 1451.88 Q2324.54 1451.14 2326.85 1450.77 Q2329.19 1450.39 2331.25 1450.39 Q2336.57 1450.39 2339.68 1452.83 Q2342.78 1455.23 2342.78 1459.35 Q2342.78 1462.22 2341.13 1464.21 Q2339.49 1466.18 2336.46 1466.95 Z" fill="#000000" fill-rule="nonzero" fill-opacity="1"></path><path clip-path="url(#clip670)" d="M1318.57 1522.27 L1318.57 1532.4 L1330.64 1532.4 L1330.64 1536.95 L1318.57 1536.95 L1318.57 1556.3 Q1318.57 1560.66 1319.75 1561.9 Q1320.96 1563.14 1324.62 1563.14 L1330.64 1563.14 L1330.64 1568.04 L1324.62 1568.04 Q1317.84 1568.04 1315.26 1565.53 Q1312.68 1562.98 1312.68 1556.3 L1312.68 1536.95 L1308.39 1536.95 L1308.39 1532.4 L1312.68 1532.4 L1312.68 1522.27 L1318.57 1522.27 Z" fill="#000000" fill-rule="nonzero" fill-opacity="1"></path><polyline clip-path="url(#clip670)" style="stroke:#000000; stroke-linecap:round; stroke-linejoin:round; stroke-width:4; stroke-opacity:1; fill:none" points="286.268,1423.18 286.268,47.2441 "></polyline>
<polyline clip-path="url(#clip670)" style="stroke:#000000; stroke-linecap:round; stroke-linejoin:round; stroke-width:4; stroke-opacity:1; fill:none" points="286.268,1304.06 305.166,1304.06 "></polyline>
<polyline clip-path="url(#clip670)" style="stroke:#000000; stroke-linecap:round; stroke-linejoin:round; stroke-width:4; stroke-opacity:1; fill:none" points="286.268,1025.89 305.166,1025.89 "></polyline>
<polyline clip-path="url(#clip670)" style="stroke:#000000; stroke-linecap:round; stroke-linejoin:round; stroke-width:4; stroke-opacity:1; fill:none" points="286.268,747.716 305.166,747.716 "></polyline>
<polyline clip-path="url(#clip670)" style="stroke:#000000; stroke-linecap:round; stroke-linejoin:round; stroke-width:4; stroke-opacity:1; fill:none" points="286.268,469.545 305.166,469.545 "></polyline>
<polyline clip-path="url(#clip670)" style="stroke:#000000; stroke-linecap:round; stroke-linejoin:round; stroke-width:4; stroke-opacity:1; fill:none" points="286.268,191.374 305.166,191.374 "></polyline>
<path clip-path="url(#clip670)" d="M112.676 1304.51 L142.352 1304.51 L142.352 1308.45 L112.676 1308.45 L112.676 1304.51 Z" fill="#000000" fill-rule="nonzero" fill-opacity="1"></path><path clip-path="url(#clip670)" d="M162.444 1289.86 Q158.833 1289.86 157.005 1293.42 Q155.199 1296.96 155.199 1304.09 Q155.199 1311.2 157.005 1314.76 Q158.833 1318.31 162.444 1318.31 Q166.079 1318.31 167.884 1314.76 Q169.713 1311.2 169.713 1304.09 Q169.713 1296.96 167.884 1293.42 Q166.079 1289.86 162.444 1289.86 M162.444 1286.15 Q168.255 1286.15 171.31 1290.76 Q174.389 1295.34 174.389 1304.09 Q174.389 1312.82 171.31 1317.43 Q168.255 1322.01 162.444 1322.01 Q156.634 1322.01 153.556 1317.43 Q150.5 1312.82 150.5 1304.09 Q150.5 1295.34 153.556 1290.76 Q156.634 1286.15 162.444 1286.15 Z" fill="#000000" fill-rule="nonzero" fill-opacity="1"></path><path clip-path="url(#clip670)" d="M182.606 1315.46 L187.491 1315.46 L187.491 1321.34 L182.606 1321.34 L182.606 1315.46 Z" fill="#000000" fill-rule="nonzero" fill-opacity="1"></path><path clip-path="url(#clip670)" d="M207.676 1289.86 Q204.065 1289.86 202.236 1293.42 Q200.43 1296.96 200.43 1304.09 Q200.43 1311.2 202.236 1314.76 Q204.065 1318.31 207.676 1318.31 Q211.31 1318.31 213.115 1314.76 Q214.944 1311.2 214.944 1304.09 Q214.944 1296.96 213.115 1293.42 Q211.31 1289.86 207.676 1289.86 M207.676 1286.15 Q213.486 1286.15 216.541 1290.76 Q219.62 1295.34 219.62 1304.09 Q219.62 1312.82 216.541 1317.43 Q213.486 1322.01 207.676 1322.01 Q201.865 1322.01 198.787 1317.43 Q195.731 1312.82 195.731 1304.09 Q195.731 1295.34 198.787 1290.76 Q201.865 1286.15 207.676 1286.15 Z" fill="#000000" fill-rule="nonzero" fill-opacity="1"></path><path clip-path="url(#clip670)" d="M240.685 1290.85 L228.879 1309.3 L240.685 1309.3 L240.685 1290.85 M239.458 1286.78 L245.337 1286.78 L245.337 1309.3 L250.268 1309.3 L250.268 1313.19 L245.337 1313.19 L245.337 1321.34 L240.685 1321.34 L240.685 1313.19 L225.083 1313.19 L225.083 1308.68 L239.458 1286.78 Z" fill="#000000" fill-rule="nonzero" fill-opacity="1"></path><path clip-path="url(#clip670)" d="M114.759 1026.34 L144.435 1026.34 L144.435 1030.27 L114.759 1030.27 L114.759 1026.34 Z" fill="#000000" fill-rule="nonzero" fill-opacity="1"></path><path clip-path="url(#clip670)" d="M164.528 1011.69 Q160.917 1011.69 159.088 1015.25 Q157.282 1018.79 157.282 1025.92 Q157.282 1033.03 159.088 1036.59 Q160.917 1040.13 164.528 1040.13 Q168.162 1040.13 169.968 1036.59 Q171.796 1033.03 171.796 1025.92 Q171.796 1018.79 169.968 1015.25 Q168.162 1011.69 164.528 1011.69 M164.528 1007.98 Q170.338 1007.98 173.393 1012.59 Q176.472 1017.17 176.472 1025.92 Q176.472 1034.65 173.393 1039.26 Q170.338 1043.84 164.528 1043.84 Q158.718 1043.84 155.639 1039.26 Q152.583 1034.65 152.583 1025.92 Q152.583 1017.17 155.639 1012.59 Q158.718 1007.98 164.528 1007.98 Z" fill="#000000" fill-rule="nonzero" fill-opacity="1"></path><path clip-path="url(#clip670)" d="M184.69 1037.29 L189.574 1037.29 L189.574 1043.17 L184.69 1043.17 L184.69 1037.29 Z" fill="#000000" fill-rule="nonzero" fill-opacity="1"></path><path clip-path="url(#clip670)" d="M209.759 1011.69 Q206.148 1011.69 204.319 1015.25 Q202.514 1018.79 202.514 1025.92 Q202.514 1033.03 204.319 1036.59 Q206.148 1040.13 209.759 1040.13 Q213.393 1040.13 215.199 1036.59 Q217.027 1033.03 217.027 1025.92 Q217.027 1018.79 215.199 1015.25 Q213.393 1011.69 209.759 1011.69 M209.759 1007.98 Q215.569 1007.98 218.625 1012.59 Q221.703 1017.17 221.703 1025.92 Q221.703 1034.65 218.625 1039.26 Q215.569 1043.84 209.759 1043.84 Q203.949 1043.84 200.87 1039.26 Q197.815 1034.65 197.815 1025.92 Q197.815 1017.17 200.87 1012.59 Q203.949 1007.98 209.759 1007.98 Z" fill="#000000" fill-rule="nonzero" fill-opacity="1"></path><path clip-path="url(#clip670)" d="M233.949 1039.23 L250.268 1039.23 L250.268 1043.17 L228.324 1043.17 L228.324 1039.23 Q230.986 1036.48 235.569 1031.85 Q240.175 1027.2 241.356 1025.85 Q243.601 1023.33 244.481 1021.59 Q245.384 1019.83 245.384 1018.14 Q245.384 1015.39 243.439 1013.65 Q241.518 1011.92 238.416 1011.92 Q236.217 1011.92 233.763 1012.68 Q231.333 1013.45 228.555 1015 L228.555 1010.27 Q231.379 1009.14 233.833 1008.56 Q236.287 1007.98 238.324 1007.98 Q243.694 1007.98 246.888 1010.67 Q250.083 1013.35 250.083 1017.84 Q250.083 1019.97 249.273 1021.89 Q248.486 1023.79 246.379 1026.38 Q245.8 1027.06 242.699 1030.27 Q239.597 1033.47 233.949 1039.23 Z" fill="#000000" fill-rule="nonzero" fill-opacity="1"></path><path clip-path="url(#clip670)" d="M162.931 733.515 Q159.319 733.515 157.491 737.08 Q155.685 740.621 155.685 747.751 Q155.685 754.857 157.491 758.422 Q159.319 761.964 162.931 761.964 Q166.565 761.964 168.37 758.422 Q170.199 754.857 170.199 747.751 Q170.199 740.621 168.37 737.08 Q166.565 733.515 162.931 733.515 M162.931 729.811 Q168.741 729.811 171.796 734.418 Q174.875 739.001 174.875 747.751 Q174.875 756.478 171.796 761.084 Q168.741 765.667 162.931 765.667 Q157.12 765.667 154.042 761.084 Q150.986 756.478 150.986 747.751 Q150.986 739.001 154.042 734.418 Q157.12 729.811 162.931 729.811 Z" fill="#000000" fill-rule="nonzero" fill-opacity="1"></path><path clip-path="url(#clip670)" d="M183.092 759.117 L187.977 759.117 L187.977 764.996 L183.092 764.996 L183.092 759.117 Z" fill="#000000" fill-rule="nonzero" fill-opacity="1"></path><path clip-path="url(#clip670)" d="M208.162 733.515 Q204.551 733.515 202.722 737.08 Q200.916 740.621 200.916 747.751 Q200.916 754.857 202.722 758.422 Q204.551 761.964 208.162 761.964 Q211.796 761.964 213.602 758.422 Q215.43 754.857 215.43 747.751 Q215.43 740.621 213.602 737.08 Q211.796 733.515 208.162 733.515 M208.162 729.811 Q213.972 729.811 217.027 734.418 Q220.106 739.001 220.106 747.751 Q220.106 756.478 217.027 761.084 Q213.972 765.667 208.162 765.667 Q202.352 765.667 199.273 761.084 Q196.217 756.478 196.217 747.751 Q196.217 739.001 199.273 734.418 Q202.352 729.811 208.162 729.811 Z" fill="#000000" fill-rule="nonzero" fill-opacity="1"></path><path clip-path="url(#clip670)" d="M238.324 733.515 Q234.713 733.515 232.884 737.08 Q231.078 740.621 231.078 747.751 Q231.078 754.857 232.884 758.422 Q234.713 761.964 238.324 761.964 Q241.958 761.964 243.763 758.422 Q245.592 754.857 245.592 747.751 Q245.592 740.621 243.763 737.08 Q241.958 733.515 238.324 733.515 M238.324 729.811 Q244.134 729.811 247.189 734.418 Q250.268 739.001 250.268 747.751 Q250.268 756.478 247.189 761.084 Q244.134 765.667 238.324 765.667 Q232.513 765.667 229.435 761.084 Q226.379 756.478 226.379 747.751 Q226.379 739.001 229.435 734.418 Q232.513 729.811 238.324 729.811 Z" fill="#000000" fill-rule="nonzero" fill-opacity="1"></path><path clip-path="url(#clip670)" d="M164.528 455.344 Q160.917 455.344 159.088 458.908 Q157.282 462.45 157.282 469.58 Q157.282 476.686 159.088 480.251 Q160.917 483.793 164.528 483.793 Q168.162 483.793 169.968 480.251 Q171.796 476.686 171.796 469.58 Q171.796 462.45 169.968 458.908 Q168.162 455.344 164.528 455.344 M164.528 451.64 Q170.338 451.64 173.393 456.246 Q176.472 460.83 176.472 469.58 Q176.472 478.307 173.393 482.913 Q170.338 487.496 164.528 487.496 Q158.718 487.496 155.639 482.913 Q152.583 478.307 152.583 469.58 Q152.583 460.83 155.639 456.246 Q158.718 451.64 164.528 451.64 Z" fill="#000000" fill-rule="nonzero" fill-opacity="1"></path><path clip-path="url(#clip670)" d="M184.69 480.945 L189.574 480.945 L189.574 486.825 L184.69 486.825 L184.69 480.945 Z" fill="#000000" fill-rule="nonzero" fill-opacity="1"></path><path clip-path="url(#clip670)" d="M209.759 455.344 Q206.148 455.344 204.319 458.908 Q202.514 462.45 202.514 469.58 Q202.514 476.686 204.319 480.251 Q206.148 483.793 209.759 483.793 Q213.393 483.793 215.199 480.251 Q217.027 476.686 217.027 469.58 Q217.027 462.45 215.199 458.908 Q213.393 455.344 209.759 455.344 M209.759 451.64 Q215.569 451.64 218.625 456.246 Q221.703 460.83 221.703 469.58 Q221.703 478.307 218.625 482.913 Q215.569 487.496 209.759 487.496 Q203.949 487.496 200.87 482.913 Q197.815 478.307 197.815 469.58 Q197.815 460.83 200.87 456.246 Q203.949 451.64 209.759 451.64 Z" fill="#000000" fill-rule="nonzero" fill-opacity="1"></path><path clip-path="url(#clip670)" d="M233.949 482.89 L250.268 482.89 L250.268 486.825 L228.324 486.825 L228.324 482.89 Q230.986 480.135 235.569 475.506 Q240.175 470.853 241.356 469.51 Q243.601 466.987 244.481 465.251 Q245.384 463.492 245.384 461.802 Q245.384 459.047 243.439 457.311 Q241.518 455.575 238.416 455.575 Q236.217 455.575 233.763 456.339 Q231.333 457.103 228.555 458.654 L228.555 453.932 Q231.379 452.797 233.833 452.219 Q236.287 451.64 238.324 451.64 Q243.694 451.64 246.888 454.325 Q250.083 457.01 250.083 461.501 Q250.083 463.631 249.273 465.552 Q248.486 467.45 246.379 470.043 Q245.8 470.714 242.699 473.932 Q239.597 477.126 233.949 482.89 Z" fill="#000000" fill-rule="nonzero" fill-opacity="1"></path><path clip-path="url(#clip670)" d="M162.444 177.173 Q158.833 177.173 157.005 180.737 Q155.199 184.279 155.199 191.409 Q155.199 198.515 157.005 202.08 Q158.833 205.621 162.444 205.621 Q166.079 205.621 167.884 202.08 Q169.713 198.515 169.713 191.409 Q169.713 184.279 167.884 180.737 Q166.079 177.173 162.444 177.173 M162.444 173.469 Q168.255 173.469 171.31 178.075 Q174.389 182.659 174.389 191.409 Q174.389 200.135 171.31 204.742 Q168.255 209.325 162.444 209.325 Q156.634 209.325 153.556 204.742 Q150.5 200.135 150.5 191.409 Q150.5 182.659 153.556 178.075 Q156.634 173.469 162.444 173.469 Z" fill="#000000" fill-rule="nonzero" fill-opacity="1"></path><path clip-path="url(#clip670)" d="M182.606 202.774 L187.491 202.774 L187.491 208.654 L182.606 208.654 L182.606 202.774 Z" fill="#000000" fill-rule="nonzero" fill-opacity="1"></path><path clip-path="url(#clip670)" d="M207.676 177.173 Q204.065 177.173 202.236 180.737 Q200.43 184.279 200.43 191.409 Q200.43 198.515 202.236 202.08 Q204.065 205.621 207.676 205.621 Q211.31 205.621 213.115 202.08 Q214.944 198.515 214.944 191.409 Q214.944 184.279 213.115 180.737 Q211.31 177.173 207.676 177.173 M207.676 173.469 Q213.486 173.469 216.541 178.075 Q219.62 182.659 219.62 191.409 Q219.62 200.135 216.541 204.742 Q213.486 209.325 207.676 209.325 Q201.865 209.325 198.787 204.742 Q195.731 200.135 195.731 191.409 Q195.731 182.659 198.787 178.075 Q201.865 173.469 207.676 173.469 Z" fill="#000000" fill-rule="nonzero" fill-opacity="1"></path><path clip-path="url(#clip670)" d="M240.685 178.168 L228.879 196.617 L240.685 196.617 L240.685 178.168 M239.458 174.094 L245.337 174.094 L245.337 196.617 L250.268 196.617 L250.268 200.506 L245.337 200.506 L245.337 208.654 L240.685 208.654 L240.685 200.506 L225.083 200.506 L225.083 195.992 L239.458 174.094 Z" fill="#000000" fill-rule="nonzero" fill-opacity="1"></path><path clip-path="url(#clip670)" d="M31.049 958.171 L31.049 930.353 L36.3962 930.353 L62.0182 952.378 L62.0182 930.353 L66.697 930.353 L66.697 958.967 L61.3498 958.967 L35.7278 936.941 L35.7278 958.171 L31.049 958.171 Z" fill="#000000" fill-rule="nonzero" fill-opacity="1"></path><path clip-path="url(#clip670)" d="M17.2354 886.62 Q24.556 890.885 31.7174 892.954 Q38.8788 895.023 46.2312 895.023 Q53.5836 895.023 60.8087 892.954 Q68.0019 890.853 75.2907 886.62 L75.2907 891.713 Q67.811 896.487 60.5859 898.874 Q53.3608 901.23 46.2312 901.23 Q39.1334 901.23 31.9402 898.874 Q24.747 896.519 17.2354 891.713 L17.2354 886.62 Z" fill="#000000" fill-rule="nonzero" fill-opacity="1"></path><path clip-path="url(#clip670)" d="M17.2354 840.469 Q24.556 844.734 31.7174 846.803 Q38.8788 848.872 46.2312 848.872 Q53.5836 848.872 60.8087 846.803 Q68.0019 844.702 75.2907 840.469 L75.2907 845.561 Q67.811 850.336 60.5859 852.723 Q53.3608 855.078 46.2312 855.078 Q39.1334 855.078 31.9402 852.723 Q24.747 850.368 17.2354 845.561 L17.2354 840.469 Z" fill="#000000" fill-rule="nonzero" fill-opacity="1"></path><path clip-path="url(#clip670)" d="M31.049 799.474 L48.3956 812.364 L66.697 798.805 L66.697 805.712 L52.6924 816.088 L66.697 826.464 L66.697 833.371 L48.0454 819.526 L31.049 832.194 L31.049 825.287 L43.7486 815.834 L31.049 806.381 L31.049 799.474 Z" fill="#000000" fill-rule="nonzero" fill-opacity="1"></path><path clip-path="url(#clip670)" d="M46.2312 772.77 L46.2312 755.614 L51.4511 755.614 L51.4511 772.77 L46.2312 772.77 Z" fill="#000000" fill-rule="nonzero" fill-opacity="1"></path><path clip-path="url(#clip670)" d="M80.2559 731.711 L31.049 731.711 L31.049 725.854 L53.2017 725.854 Q57.8168 725.854 60.1721 723.658 Q62.5274 721.462 62.5274 717.165 Q62.5274 712.455 59.8538 710.099 Q57.1802 707.712 51.833 707.712 L31.049 707.712 L31.049 701.856 L58.4852 701.856 Q60.3949 701.856 61.3179 701.315 Q62.2091 700.742 62.2091 699.564 Q62.2091 699.278 62.05 698.768 Q61.859 698.259 61.4771 697.368 L66.1877 697.368 Q66.9198 698.673 67.2699 699.85 Q67.62 700.996 67.62 702.11 Q67.62 704.306 66.3787 705.611 Q65.1374 706.916 62.5911 707.394 Q65.1055 708.985 66.3787 711.309 Q67.62 713.6 67.62 716.72 Q67.62 719.966 66.3787 722.258 Q65.1374 724.518 62.6547 725.854 L80.2559 725.854 L80.2559 731.711 Z" fill="#000000" fill-rule="nonzero" fill-opacity="1"></path><path clip-path="url(#clip670)" d="M17.2354 671.428 L17.2354 666.335 Q24.747 661.561 31.9402 659.205 Q39.1334 656.818 46.2312 656.818 Q53.3608 656.818 60.5859 659.205 Q67.811 661.561 75.2907 666.335 L75.2907 671.428 Q68.0019 667.194 60.8087 665.126 Q53.5836 663.025 46.2312 663.025 Q38.8788 663.025 31.7174 665.126 Q24.556 667.194 17.2354 671.428 Z" fill="#000000" fill-rule="nonzero" fill-opacity="1"></path><path clip-path="url(#clip670)" d="M19.177 613.945 L19.177 608.534 L72.7444 625.085 L72.7444 630.496 L19.177 613.945 Z" fill="#000000" fill-rule="nonzero" fill-opacity="1"></path><path clip-path="url(#clip670)" d="M35.696 571.454 Q35.696 576.292 39.1971 578.902 Q42.8574 581.639 48.9048 581.639 Q55.3023 581.639 58.9945 578.934 Q62.6547 576.197 62.6547 571.454 Q62.6547 566.775 58.9626 564.038 Q55.2705 561.301 48.9048 561.301 Q43.0802 561.301 39.1971 564.038 Q35.696 566.553 35.696 571.454 M31.049 571.454 L31.049 552.007 L36.9055 552.007 L36.9055 558.564 Q41.8707 555.094 48.9048 555.094 Q57.6577 555.094 62.6229 559.455 Q67.62 563.815 67.62 571.454 Q67.62 579.125 62.6229 583.454 Q57.6577 587.814 48.9048 587.814 Q40.0883 587.814 35.1549 583.454 Q31.049 579.857 31.049 571.454 Z" fill="#000000" fill-rule="nonzero" fill-opacity="1"></path><path clip-path="url(#clip670)" d="M17.2354 526.067 L17.2354 520.974 Q24.747 516.2 31.9402 513.845 Q39.1334 511.457 46.2312 511.457 Q53.3608 511.457 60.5859 513.845 Q67.811 516.2 75.2907 520.974 L75.2907 526.067 Q68.0019 521.833 60.8087 519.765 Q53.5836 517.664 46.2312 517.664 Q38.8788 517.664 31.7174 519.765 Q24.556 521.833 17.2354 526.067 Z" fill="#000000" fill-rule="nonzero" fill-opacity="1"></path><circle clip-path="url(#clip672)" cx="344.754" cy="86.1857" r="14.4" fill="#009af9" fill-rule="evenodd" fill-opacity="1" stroke="#000000" stroke-opacity="1" stroke-width="3.2"></circle>
<circle clip-path="url(#clip672)" cx="409.737" cy="89.9623" r="14.4" fill="#009af9" fill-rule="evenodd" fill-opacity="1" stroke="#000000" stroke-opacity="1" stroke-width="3.2"></circle>
<circle clip-path="url(#clip672)" cx="474.721" cy="110.964" r="14.4" fill="#009af9" fill-rule="evenodd" fill-opacity="1" stroke="#000000" stroke-opacity="1" stroke-width="3.2"></circle>
<circle clip-path="url(#clip672)" cx="539.705" cy="143.077" r="14.4" fill="#009af9" fill-rule="evenodd" fill-opacity="1" stroke="#000000" stroke-opacity="1" stroke-width="3.2"></circle>
<circle clip-path="url(#clip672)" cx="604.689" cy="181.26" r="14.4" fill="#009af9" fill-rule="evenodd" fill-opacity="1" stroke="#000000" stroke-opacity="1" stroke-width="3.2"></circle>
<circle clip-path="url(#clip672)" cx="669.673" cy="228.25" r="14.4" fill="#009af9" fill-rule="evenodd" fill-opacity="1" stroke="#000000" stroke-opacity="1" stroke-width="3.2"></circle>
<circle clip-path="url(#clip672)" cx="734.657" cy="279.851" r="14.4" fill="#009af9" fill-rule="evenodd" fill-opacity="1" stroke="#000000" stroke-opacity="1" stroke-width="3.2"></circle>
<circle clip-path="url(#clip672)" cx="799.641" cy="338.913" r="14.4" fill="#009af9" fill-rule="evenodd" fill-opacity="1" stroke="#000000" stroke-opacity="1" stroke-width="3.2"></circle>
<circle clip-path="url(#clip672)" cx="864.625" cy="402.341" r="14.4" fill="#009af9" fill-rule="evenodd" fill-opacity="1" stroke="#000000" stroke-opacity="1" stroke-width="3.2"></circle>
<circle clip-path="url(#clip672)" cx="929.609" cy="460.017" r="14.4" fill="#009af9" fill-rule="evenodd" fill-opacity="1" stroke="#000000" stroke-opacity="1" stroke-width="3.2"></circle>
<circle clip-path="url(#clip672)" cx="994.592" cy="517.995" r="14.4" fill="#009af9" fill-rule="evenodd" fill-opacity="1" stroke="#000000" stroke-opacity="1" stroke-width="3.2"></circle>
<circle clip-path="url(#clip672)" cx="1059.58" cy="574.003" r="14.4" fill="#009af9" fill-rule="evenodd" fill-opacity="1" stroke="#000000" stroke-opacity="1" stroke-width="3.2"></circle>
<circle clip-path="url(#clip672)" cx="1124.56" cy="632.074" r="14.4" fill="#009af9" fill-rule="evenodd" fill-opacity="1" stroke="#000000" stroke-opacity="1" stroke-width="3.2"></circle>
<circle clip-path="url(#clip672)" cx="1189.54" cy="691.456" r="14.4" fill="#009af9" fill-rule="evenodd" fill-opacity="1" stroke="#000000" stroke-opacity="1" stroke-width="3.2"></circle>
<circle clip-path="url(#clip672)" cx="1254.53" cy="745.869" r="14.4" fill="#009af9" fill-rule="evenodd" fill-opacity="1" stroke="#000000" stroke-opacity="1" stroke-width="3.2"></circle>
<circle clip-path="url(#clip672)" cx="1319.51" cy="804.792" r="14.4" fill="#009af9" fill-rule="evenodd" fill-opacity="1" stroke="#000000" stroke-opacity="1" stroke-width="3.2"></circle>
<circle clip-path="url(#clip672)" cx="1384.5" cy="875.263" r="14.4" fill="#009af9" fill-rule="evenodd" fill-opacity="1" stroke="#000000" stroke-opacity="1" stroke-width="3.2"></circle>
<circle clip-path="url(#clip672)" cx="1449.48" cy="946.422" r="14.4" fill="#009af9" fill-rule="evenodd" fill-opacity="1" stroke="#000000" stroke-opacity="1" stroke-width="3.2"></circle>
<circle clip-path="url(#clip672)" cx="1514.46" cy="1007.22" r="14.4" fill="#009af9" fill-rule="evenodd" fill-opacity="1" stroke="#000000" stroke-opacity="1" stroke-width="3.2"></circle>
<circle clip-path="url(#clip672)" cx="1579.45" cy="1058.7" r="14.4" fill="#009af9" fill-rule="evenodd" fill-opacity="1" stroke="#000000" stroke-opacity="1" stroke-width="3.2"></circle>
<circle clip-path="url(#clip672)" cx="1644.43" cy="1102.92" r="14.4" fill="#009af9" fill-rule="evenodd" fill-opacity="1" stroke="#000000" stroke-opacity="1" stroke-width="3.2"></circle>
<circle clip-path="url(#clip672)" cx="1709.42" cy="1132.33" r="14.4" fill="#009af9" fill-rule="evenodd" fill-opacity="1" stroke="#000000" stroke-opacity="1" stroke-width="3.2"></circle>
<circle clip-path="url(#clip672)" cx="1774.4" cy="1136.21" r="14.4" fill="#009af9" fill-rule="evenodd" fill-opacity="1" stroke="#000000" stroke-opacity="1" stroke-width="3.2"></circle>
<circle clip-path="url(#clip672)" cx="1839.38" cy="1119.84" r="14.4" fill="#009af9" fill-rule="evenodd" fill-opacity="1" stroke="#000000" stroke-opacity="1" stroke-width="3.2"></circle>
<circle clip-path="url(#clip672)" cx="1904.37" cy="1094.15" r="14.4" fill="#009af9" fill-rule="evenodd" fill-opacity="1" stroke="#000000" stroke-opacity="1" stroke-width="3.2"></circle>
<circle clip-path="url(#clip672)" cx="1969.35" cy="1071.8" r="14.4" fill="#009af9" fill-rule="evenodd" fill-opacity="1" stroke="#000000" stroke-opacity="1" stroke-width="3.2"></circle>
<circle clip-path="url(#clip672)" cx="2034.33" cy="1069.12" r="14.4" fill="#009af9" fill-rule="evenodd" fill-opacity="1" stroke="#000000" stroke-opacity="1" stroke-width="3.2"></circle>
<circle clip-path="url(#clip672)" cx="2099.32" cy="1103.24" r="14.4" fill="#009af9" fill-rule="evenodd" fill-opacity="1" stroke="#000000" stroke-opacity="1" stroke-width="3.2"></circle>
<circle clip-path="url(#clip672)" cx="2164.3" cy="1177.28" r="14.4" fill="#009af9" fill-rule="evenodd" fill-opacity="1" stroke="#000000" stroke-opacity="1" stroke-width="3.2"></circle>
<circle clip-path="url(#clip672)" cx="2229.29" cy="1273.37" r="14.4" fill="#009af9" fill-rule="evenodd" fill-opacity="1" stroke="#000000" stroke-opacity="1" stroke-width="3.2"></circle>
<circle clip-path="url(#clip672)" cx="2294.27" cy="1384.24" r="14.4" fill="#009af9" fill-rule="evenodd" fill-opacity="1" stroke="#000000" stroke-opacity="1" stroke-width="3.2"></circle>
<polyline clip-path="url(#clip672)" style="stroke:#e26f46; stroke-linecap:round; stroke-linejoin:round; stroke-width:4; stroke-opacity:1; fill:none" points="344.754,86.1857 409.737,90.4627 "></polyline>
<circle clip-path="url(#clip672)" cx="344.754" cy="86.1857" r="14.4" fill="#e26f46" fill-rule="evenodd" fill-opacity="1" stroke="#000000" stroke-opacity="1" stroke-width="3.2"></circle>
<circle clip-path="url(#clip672)" cx="409.737" cy="90.4627" r="14.4" fill="#e26f46" fill-rule="evenodd" fill-opacity="1" stroke="#000000" stroke-opacity="1" stroke-width="3.2"></circle>
<polyline clip-path="url(#clip672)" style="stroke:#3da44d; stroke-linecap:round; stroke-linejoin:round; stroke-width:4; stroke-opacity:1; fill:none" points="409.737,89.9623 474.721,105.97 "></polyline>
<circle clip-path="url(#clip672)" cx="409.737" cy="89.9623" r="14.4" fill="#3da44d" fill-rule="evenodd" fill-opacity="1" stroke="#000000" stroke-opacity="1" stroke-width="3.2"></circle>
<circle clip-path="url(#clip672)" cx="474.721" cy="105.97" r="14.4" fill="#3da44d" fill-rule="evenodd" fill-opacity="1" stroke="#000000" stroke-opacity="1" stroke-width="3.2"></circle>
<polyline clip-path="url(#clip672)" style="stroke:#c271d2; stroke-linecap:round; stroke-linejoin:round; stroke-width:4; stroke-opacity:1; fill:none" points="474.721,110.964 539.705,142.882 "></polyline>
<circle clip-path="url(#clip672)" cx="474.721" cy="110.964" r="14.4" fill="#c271d2" fill-rule="evenodd" fill-opacity="1" stroke="#000000" stroke-opacity="1" stroke-width="3.2"></circle>
<circle clip-path="url(#clip672)" cx="539.705" cy="142.882" r="14.4" fill="#c271d2" fill-rule="evenodd" fill-opacity="1" stroke="#000000" stroke-opacity="1" stroke-width="3.2"></circle>
<polyline clip-path="url(#clip672)" style="stroke:#ac8d18; stroke-linecap:round; stroke-linejoin:round; stroke-width:4; stroke-opacity:1; fill:none" points="539.705,143.077 604.689,181.26 "></polyline>
<circle clip-path="url(#clip672)" cx="539.705" cy="143.077" r="14.4" fill="#ac8d18" fill-rule="evenodd" fill-opacity="1" stroke="#000000" stroke-opacity="1" stroke-width="3.2"></circle>
<circle clip-path="url(#clip672)" cx="604.689" cy="181.26" r="14.4" fill="#ac8d18" fill-rule="evenodd" fill-opacity="1" stroke="#000000" stroke-opacity="1" stroke-width="3.2"></circle>
<polyline clip-path="url(#clip672)" style="stroke:#00a9ad; stroke-linecap:round; stroke-linejoin:round; stroke-width:4; stroke-opacity:1; fill:none" points="604.689,181.26 669.673,226.967 "></polyline>
<circle clip-path="url(#clip672)" cx="604.689" cy="181.26" r="14.4" fill="#00a9ad" fill-rule="evenodd" fill-opacity="1" stroke="#000000" stroke-opacity="1" stroke-width="3.2"></circle>
<circle clip-path="url(#clip672)" cx="669.673" cy="226.967" r="14.4" fill="#00a9ad" fill-rule="evenodd" fill-opacity="1" stroke="#000000" stroke-opacity="1" stroke-width="3.2"></circle>
<polyline clip-path="url(#clip672)" style="stroke:#ed5d92; stroke-linecap:round; stroke-linejoin:round; stroke-width:4; stroke-opacity:1; fill:none" points="669.673,228.25 734.657,280.173 "></polyline>
<circle clip-path="url(#clip672)" cx="669.673" cy="228.25" r="14.4" fill="#ed5d92" fill-rule="evenodd" fill-opacity="1" stroke="#000000" stroke-opacity="1" stroke-width="3.2"></circle>
<circle clip-path="url(#clip672)" cx="734.657" cy="280.173" r="14.4" fill="#ed5d92" fill-rule="evenodd" fill-opacity="1" stroke="#000000" stroke-opacity="1" stroke-width="3.2"></circle>
<polyline clip-path="url(#clip672)" style="stroke:#c68125; stroke-linecap:round; stroke-linejoin:round; stroke-width:4; stroke-opacity:1; fill:none" points="734.657,279.851 799.641,336.948 "></polyline>
<circle clip-path="url(#clip672)" cx="734.657" cy="279.851" r="14.4" fill="#c68125" fill-rule="evenodd" fill-opacity="1" stroke="#000000" stroke-opacity="1" stroke-width="3.2"></circle>
<circle clip-path="url(#clip672)" cx="799.641" cy="336.948" r="14.4" fill="#c68125" fill-rule="evenodd" fill-opacity="1" stroke="#000000" stroke-opacity="1" stroke-width="3.2"></circle>
<polyline clip-path="url(#clip672)" style="stroke:#00a98d; stroke-linecap:round; stroke-linejoin:round; stroke-width:4; stroke-opacity:1; fill:none" points="799.641,338.913 864.625,403.412 "></polyline>
<circle clip-path="url(#clip672)" cx="799.641" cy="338.913" r="14.4" fill="#00a98d" fill-rule="evenodd" fill-opacity="1" stroke="#000000" stroke-opacity="1" stroke-width="3.2"></circle>
<circle clip-path="url(#clip672)" cx="864.625" cy="403.412" r="14.4" fill="#00a98d" fill-rule="evenodd" fill-opacity="1" stroke="#000000" stroke-opacity="1" stroke-width="3.2"></circle>
<polyline clip-path="url(#clip672)" style="stroke:#8e971d; stroke-linecap:round; stroke-linejoin:round; stroke-width:4; stroke-opacity:1; fill:none" points="864.625,402.341 929.609,464.352 "></polyline>
<circle clip-path="url(#clip672)" cx="864.625" cy="402.341" r="14.4" fill="#8e971d" fill-rule="evenodd" fill-opacity="1" stroke="#000000" stroke-opacity="1" stroke-width="3.2"></circle>
<circle clip-path="url(#clip672)" cx="929.609" cy="464.352" r="14.4" fill="#8e971d" fill-rule="evenodd" fill-opacity="1" stroke="#000000" stroke-opacity="1" stroke-width="3.2"></circle>
<polyline clip-path="url(#clip672)" style="stroke:#00a8cb; stroke-linecap:round; stroke-linejoin:round; stroke-width:4; stroke-opacity:1; fill:none" points="929.609,460.017 994.592,518.081 "></polyline>
<circle clip-path="url(#clip672)" cx="929.609" cy="460.017" r="14.4" fill="#00a8cb" fill-rule="evenodd" fill-opacity="1" stroke="#000000" stroke-opacity="1" stroke-width="3.2"></circle>
<circle clip-path="url(#clip672)" cx="994.592" cy="518.081" r="14.4" fill="#00a8cb" fill-rule="evenodd" fill-opacity="1" stroke="#000000" stroke-opacity="1" stroke-width="3.2"></circle>
<polyline clip-path="url(#clip672)" style="stroke:#9b7fe8; stroke-linecap:round; stroke-linejoin:round; stroke-width:4; stroke-opacity:1; fill:none" points="994.592,517.995 1059.58,575.353 "></polyline>
<circle clip-path="url(#clip672)" cx="994.592" cy="517.995" r="14.4" fill="#9b7fe8" fill-rule="evenodd" fill-opacity="1" stroke="#000000" stroke-opacity="1" stroke-width="3.2"></circle>
<circle clip-path="url(#clip672)" cx="1059.58" cy="575.353" r="14.4" fill="#9b7fe8" fill-rule="evenodd" fill-opacity="1" stroke="#000000" stroke-opacity="1" stroke-width="3.2"></circle>
<polyline clip-path="url(#clip672)" style="stroke:#608cf6; stroke-linecap:round; stroke-linejoin:round; stroke-width:4; stroke-opacity:1; fill:none" points="1059.58,574.003 1124.56,630.358 "></polyline>
<circle clip-path="url(#clip672)" cx="1059.58" cy="574.003" r="14.4" fill="#608cf6" fill-rule="evenodd" fill-opacity="1" stroke="#000000" stroke-opacity="1" stroke-width="3.2"></circle>
<circle clip-path="url(#clip672)" cx="1124.56" cy="630.358" r="14.4" fill="#608cf6" fill-rule="evenodd" fill-opacity="1" stroke="#000000" stroke-opacity="1" stroke-width="3.2"></circle>
<polyline clip-path="url(#clip672)" style="stroke:#f05f73; stroke-linecap:round; stroke-linejoin:round; stroke-width:4; stroke-opacity:1; fill:none" points="1124.56,632.074 1189.54,691.398 "></polyline>
<circle clip-path="url(#clip672)" cx="1124.56" cy="632.074" r="14.4" fill="#f05f73" fill-rule="evenodd" fill-opacity="1" stroke="#000000" stroke-opacity="1" stroke-width="3.2"></circle>
<circle clip-path="url(#clip672)" cx="1189.54" cy="691.398" r="14.4" fill="#f05f73" fill-rule="evenodd" fill-opacity="1" stroke="#000000" stroke-opacity="1" stroke-width="3.2"></circle>
<polyline clip-path="url(#clip672)" style="stroke:#dd64b5; stroke-linecap:round; stroke-linejoin:round; stroke-width:4; stroke-opacity:1; fill:none" points="1189.54,691.456 1254.53,747.473 "></polyline>
<circle clip-path="url(#clip672)" cx="1189.54" cy="691.456" r="14.4" fill="#dd64b5" fill-rule="evenodd" fill-opacity="1" stroke="#000000" stroke-opacity="1" stroke-width="3.2"></circle>
<circle clip-path="url(#clip672)" cx="1254.53" cy="747.473" r="14.4" fill="#dd64b5" fill-rule="evenodd" fill-opacity="1" stroke="#000000" stroke-opacity="1" stroke-width="3.2"></circle>
<polyline clip-path="url(#clip672)" style="stroke:#6b9e32; stroke-linecap:round; stroke-linejoin:round; stroke-width:4; stroke-opacity:1; fill:none" points="1254.53,745.869 1319.51,799.024 "></polyline>
<circle clip-path="url(#clip672)" cx="1254.53" cy="745.869" r="14.4" fill="#6b9e32" fill-rule="evenodd" fill-opacity="1" stroke="#000000" stroke-opacity="1" stroke-width="3.2"></circle>
<circle clip-path="url(#clip672)" cx="1319.51" cy="799.024" r="14.4" fill="#6b9e32" fill-rule="evenodd" fill-opacity="1" stroke="#000000" stroke-opacity="1" stroke-width="3.2"></circle>
<polyline clip-path="url(#clip672)" style="stroke:#009af9; stroke-linecap:round; stroke-linejoin:round; stroke-width:4; stroke-opacity:1; fill:none" points="1319.51,804.792 1384.5,868.027 "></polyline>
<circle clip-path="url(#clip672)" cx="1319.51" cy="804.792" r="14.4" fill="#009af9" fill-rule="evenodd" fill-opacity="1" stroke="#000000" stroke-opacity="1" stroke-width="3.2"></circle>
<circle clip-path="url(#clip672)" cx="1384.5" cy="868.027" r="14.4" fill="#009af9" fill-rule="evenodd" fill-opacity="1" stroke="#000000" stroke-opacity="1" stroke-width="3.2"></circle>
<polyline clip-path="url(#clip672)" style="stroke:#e26f46; stroke-linecap:round; stroke-linejoin:round; stroke-width:4; stroke-opacity:1; fill:none" points="1384.5,875.263 1449.48,946.409 "></polyline>
<circle clip-path="url(#clip672)" cx="1384.5" cy="875.263" r="14.4" fill="#e26f46" fill-rule="evenodd" fill-opacity="1" stroke="#000000" stroke-opacity="1" stroke-width="3.2"></circle>
<circle clip-path="url(#clip672)" cx="1449.48" cy="946.409" r="14.4" fill="#e26f46" fill-rule="evenodd" fill-opacity="1" stroke="#000000" stroke-opacity="1" stroke-width="3.2"></circle>
<polyline clip-path="url(#clip672)" style="stroke:#3da44d; stroke-linecap:round; stroke-linejoin:round; stroke-width:4; stroke-opacity:1; fill:none" points="1449.48,946.422 1514.46,1010.4 "></polyline>
<circle clip-path="url(#clip672)" cx="1449.48" cy="946.422" r="14.4" fill="#3da44d" fill-rule="evenodd" fill-opacity="1" stroke="#000000" stroke-opacity="1" stroke-width="3.2"></circle>
<circle clip-path="url(#clip672)" cx="1514.46" cy="1010.4" r="14.4" fill="#3da44d" fill-rule="evenodd" fill-opacity="1" stroke="#000000" stroke-opacity="1" stroke-width="3.2"></circle>
<polyline clip-path="url(#clip672)" style="stroke:#c271d2; stroke-linecap:round; stroke-linejoin:round; stroke-width:4; stroke-opacity:1; fill:none" points="1514.46,1007.22 1579.45,1059.3 "></polyline>
<circle clip-path="url(#clip672)" cx="1514.46" cy="1007.22" r="14.4" fill="#c271d2" fill-rule="evenodd" fill-opacity="1" stroke="#000000" stroke-opacity="1" stroke-width="3.2"></circle>
<circle clip-path="url(#clip672)" cx="1579.45" cy="1059.3" r="14.4" fill="#c271d2" fill-rule="evenodd" fill-opacity="1" stroke="#000000" stroke-opacity="1" stroke-width="3.2"></circle>
<polyline clip-path="url(#clip672)" style="stroke:#ac8d18; stroke-linecap:round; stroke-linejoin:round; stroke-width:4; stroke-opacity:1; fill:none" points="1579.45,1058.7 1644.43,1103.47 "></polyline>
<circle clip-path="url(#clip672)" cx="1579.45" cy="1058.7" r="14.4" fill="#ac8d18" fill-rule="evenodd" fill-opacity="1" stroke="#000000" stroke-opacity="1" stroke-width="3.2"></circle>
<circle clip-path="url(#clip672)" cx="1644.43" cy="1103.47" r="14.4" fill="#ac8d18" fill-rule="evenodd" fill-opacity="1" stroke="#000000" stroke-opacity="1" stroke-width="3.2"></circle>
<polyline clip-path="url(#clip672)" style="stroke:#00a9ad; stroke-linecap:round; stroke-linejoin:round; stroke-width:4; stroke-opacity:1; fill:none" points="1644.43,1102.92 1709.42,1138.35 "></polyline>
<circle clip-path="url(#clip672)" cx="1644.43" cy="1102.92" r="14.4" fill="#00a9ad" fill-rule="evenodd" fill-opacity="1" stroke="#000000" stroke-opacity="1" stroke-width="3.2"></circle>
<circle clip-path="url(#clip672)" cx="1709.42" cy="1138.35" r="14.4" fill="#00a9ad" fill-rule="evenodd" fill-opacity="1" stroke="#000000" stroke-opacity="1" stroke-width="3.2"></circle>
<polyline clip-path="url(#clip672)" style="stroke:#ed5d92; stroke-linecap:round; stroke-linejoin:round; stroke-width:4; stroke-opacity:1; fill:none" points="1709.42,1132.33 1774.4,1146.03 "></polyline>
<circle clip-path="url(#clip672)" cx="1709.42" cy="1132.33" r="14.4" fill="#ed5d92" fill-rule="evenodd" fill-opacity="1" stroke="#000000" stroke-opacity="1" stroke-width="3.2"></circle>
<circle clip-path="url(#clip672)" cx="1774.4" cy="1146.03" r="14.4" fill="#ed5d92" fill-rule="evenodd" fill-opacity="1" stroke="#000000" stroke-opacity="1" stroke-width="3.2"></circle>
<polyline clip-path="url(#clip672)" style="stroke:#c68125; stroke-linecap:round; stroke-linejoin:round; stroke-width:4; stroke-opacity:1; fill:none" points="1774.4,1136.21 1839.38,1125.06 "></polyline>
<circle clip-path="url(#clip672)" cx="1774.4" cy="1136.21" r="14.4" fill="#c68125" fill-rule="evenodd" fill-opacity="1" stroke="#000000" stroke-opacity="1" stroke-width="3.2"></circle>
<circle clip-path="url(#clip672)" cx="1839.38" cy="1125.06" r="14.4" fill="#c68125" fill-rule="evenodd" fill-opacity="1" stroke="#000000" stroke-opacity="1" stroke-width="3.2"></circle>
<polyline clip-path="url(#clip672)" style="stroke:#00a98d; stroke-linecap:round; stroke-linejoin:round; stroke-width:4; stroke-opacity:1; fill:none" points="1839.38,1119.84 1904.37,1094.15 "></polyline>
<circle clip-path="url(#clip672)" cx="1839.38" cy="1119.84" r="14.4" fill="#00a98d" fill-rule="evenodd" fill-opacity="1" stroke="#000000" stroke-opacity="1" stroke-width="3.2"></circle>
<circle clip-path="url(#clip672)" cx="1904.37" cy="1094.15" r="14.4" fill="#00a98d" fill-rule="evenodd" fill-opacity="1" stroke="#000000" stroke-opacity="1" stroke-width="3.2"></circle>
<polyline clip-path="url(#clip672)" style="stroke:#8e971d; stroke-linecap:round; stroke-linejoin:round; stroke-width:4; stroke-opacity:1; fill:none" points="1904.37,1094.15 1969.35,1065.19 "></polyline>
<circle clip-path="url(#clip672)" cx="1904.37" cy="1094.15" r="14.4" fill="#8e971d" fill-rule="evenodd" fill-opacity="1" stroke="#000000" stroke-opacity="1" stroke-width="3.2"></circle>
<circle clip-path="url(#clip672)" cx="1969.35" cy="1065.19" r="14.4" fill="#8e971d" fill-rule="evenodd" fill-opacity="1" stroke="#000000" stroke-opacity="1" stroke-width="3.2"></circle>
<polyline clip-path="url(#clip672)" style="stroke:#00a8cb; stroke-linecap:round; stroke-linejoin:round; stroke-width:4; stroke-opacity:1; fill:none" points="1969.35,1071.8 2034.33,1053.62 "></polyline>
<circle clip-path="url(#clip672)" cx="1969.35" cy="1071.8" r="14.4" fill="#00a8cb" fill-rule="evenodd" fill-opacity="1" stroke="#000000" stroke-opacity="1" stroke-width="3.2"></circle>
<circle clip-path="url(#clip672)" cx="2034.33" cy="1053.62" r="14.4" fill="#00a8cb" fill-rule="evenodd" fill-opacity="1" stroke="#000000" stroke-opacity="1" stroke-width="3.2"></circle>
<polyline clip-path="url(#clip672)" style="stroke:#9b7fe8; stroke-linecap:round; stroke-linejoin:round; stroke-width:4; stroke-opacity:1; fill:none" points="2034.33,1069.12 2099.32,1079.75 "></polyline>
<circle clip-path="url(#clip672)" cx="2034.33" cy="1069.12" r="14.4" fill="#9b7fe8" fill-rule="evenodd" fill-opacity="1" stroke="#000000" stroke-opacity="1" stroke-width="3.2"></circle>
<circle clip-path="url(#clip672)" cx="2099.32" cy="1079.75" r="14.4" fill="#9b7fe8" fill-rule="evenodd" fill-opacity="1" stroke="#000000" stroke-opacity="1" stroke-width="3.2"></circle>
<polyline clip-path="url(#clip672)" style="stroke:#608cf6; stroke-linecap:round; stroke-linejoin:round; stroke-width:4; stroke-opacity:1; fill:none" points="2099.32,1103.24 2164.3,1155.45 "></polyline>
<circle clip-path="url(#clip672)" cx="2099.32" cy="1103.24" r="14.4" fill="#608cf6" fill-rule="evenodd" fill-opacity="1" stroke="#000000" stroke-opacity="1" stroke-width="3.2"></circle>
<circle clip-path="url(#clip672)" cx="2164.3" cy="1155.45" r="14.4" fill="#608cf6" fill-rule="evenodd" fill-opacity="1" stroke="#000000" stroke-opacity="1" stroke-width="3.2"></circle>
<polyline clip-path="url(#clip672)" style="stroke:#f05f73; stroke-linecap:round; stroke-linejoin:round; stroke-width:4; stroke-opacity:1; fill:none" points="2164.3,1177.28 2229.29,1260.33 "></polyline>
<circle clip-path="url(#clip672)" cx="2164.3" cy="1177.28" r="14.4" fill="#f05f73" fill-rule="evenodd" fill-opacity="1" stroke="#000000" stroke-opacity="1" stroke-width="3.2"></circle>
<circle clip-path="url(#clip672)" cx="2229.29" cy="1260.33" r="14.4" fill="#f05f73" fill-rule="evenodd" fill-opacity="1" stroke="#000000" stroke-opacity="1" stroke-width="3.2"></circle>
<polyline clip-path="url(#clip672)" style="stroke:#dd64b5; stroke-linecap:round; stroke-linejoin:round; stroke-width:4; stroke-opacity:1; fill:none" points="2229.29,1273.37 2294.27,1371.07 "></polyline>
<circle clip-path="url(#clip672)" cx="2229.29" cy="1273.37" r="14.4" fill="#dd64b5" fill-rule="evenodd" fill-opacity="1" stroke="#000000" stroke-opacity="1" stroke-width="3.2"></circle>
<circle clip-path="url(#clip672)" cx="2294.27" cy="1371.07" r="14.4" fill="#dd64b5" fill-rule="evenodd" fill-opacity="1" stroke="#000000" stroke-opacity="1" stroke-width="3.2"></circle>
</svg>