<svg xmlns="http://www.w3.org/2000/svg" xmlns:xlink="http://www.w3.org/1999/xlink" width="600" height="400" viewBox="0 0 2400 1600">
<defs>
  <clipPath id="clip450">
    <rect x="0" y="0" width="2400" height="1600"></rect>
  </clipPath>
</defs>
<path clip-path="url(#clip450)" d="M0 1600 L2400 1600 L2400 0 L0 0  Z" fill="#ffffff" fill-rule="evenodd" fill-opacity="1"></path>
<defs>
  <clipPath id="clip451">
    <rect x="480" y="0" width="1681" height="1600"></rect>
  </clipPath>
</defs>
<path clip-path="url(#clip450)" d="M147.478 1423.18 L2352.76 1423.18 L2352.76 47.2441 L147.478 47.2441  Z" fill="#ffffff" fill-rule="evenodd" fill-opacity="1"></path>
<defs>
  <clipPath id="clip452">
    <rect x="147" y="47" width="2206" height="1377"></rect>
  </clipPath>
</defs>
<polyline clip-path="url(#clip452)" style="stroke:#000000; stroke-linecap:round; stroke-linejoin:round; stroke-width:2; stroke-opacity:0.1; fill:none" points="209.891,1423.18 209.891,47.2441 "></polyline>
<polyline clip-path="url(#clip452)" style="stroke:#000000; stroke-linecap:round; stroke-linejoin:round; stroke-width:2; stroke-opacity:0.1; fill:none" points="730.004,1423.18 730.004,47.2441 "></polyline>
<polyline clip-path="url(#clip452)" style="stroke:#000000; stroke-linecap:round; stroke-linejoin:round; stroke-width:2; stroke-opacity:0.1; fill:none" points="1250.12,1423.18 1250.12,47.2441 "></polyline>
<polyline clip-path="url(#clip452)" style="stroke:#000000; stroke-linecap:round; stroke-linejoin:round; stroke-width:2; stroke-opacity:0.1; fill:none" points="1770.23,1423.18 1770.23,47.2441 "></polyline>
<polyline clip-path="url(#clip452)" style="stroke:#000000; stroke-linecap:round; stroke-linejoin:round; stroke-width:2; stroke-opacity:0.1; fill:none" points="2290.34,1423.18 2290.34,47.2441 "></polyline>
<polyline clip-path="url(#clip452)" style="stroke:#000000; stroke-linecap:round; stroke-linejoin:round; stroke-width:2; stroke-opacity:0.1; fill:none" points="147.478,1295.15 2352.76,1295.15 "></polyline>
<polyline clip-path="url(#clip452)" style="stroke:#000000; stroke-linecap:round; stroke-linejoin:round; stroke-width:2; stroke-opacity:0.1; fill:none" points="147.478,1055.95 2352.76,1055.95 "></polyline>
<polyline clip-path="url(#clip452)" style="stroke:#000000; stroke-linecap:round; stroke-linejoin:round; stroke-width:2; stroke-opacity:0.1; fill:none" points="147.478,816.754 2352.76,816.754 "></polyline>
<polyline clip-path="url(#clip452)" style="stroke:#000000; stroke-linecap:round; stroke-linejoin:round; stroke-width:2; stroke-opacity:0.1; fill:none" points="147.478,577.558 2352.76,577.558 "></polyline>
<polyline clip-path="url(#clip452)" style="stroke:#000000; stroke-linecap:round; stroke-linejoin:round; stroke-width:2; stroke-opacity:0.1; fill:none" points="147.478,338.361 2352.76,338.361 "></polyline>
<polyline clip-path="url(#clip452)" style="stroke:#000000; stroke-linecap:round; stroke-linejoin:round; stroke-width:2; stroke-opacity:0.1; fill:none" points="147.478,99.1652 2352.76,99.1652 "></polyline>
<polyline clip-path="url(#clip450)" style="stroke:#000000; stroke-linecap:round; stroke-linejoin:round; stroke-width:4; stroke-opacity:1; fill:none" points="147.478,1423.18 2352.76,1423.18 "></polyline>
<polyline clip-path="url(#clip450)" style="stroke:#000000; stroke-linecap:round; stroke-linejoin:round; stroke-width:4; stroke-opacity:1; fill:none" points="209.891,1423.18 209.891,1404.28 "></polyline>
<polyline clip-path="url(#clip450)" style="stroke:#000000; stroke-linecap:round; stroke-linejoin:round; stroke-width:4; stroke-opacity:1; fill:none" points="730.004,1423.18 730.004,1404.28 "></polyline>
<polyline clip-path="url(#clip450)" style="stroke:#000000; stroke-linecap:round; stroke-linejoin:round; stroke-width:4; stroke-opacity:1; fill:none" points="1250.12,1423.18 1250.12,1404.28 "></polyline>
<polyline clip-path="url(#clip450)" style="stroke:#000000; stroke-linecap:round; stroke-linejoin:round; stroke-width:4; stroke-opacity:1; fill:none" points="1770.23,1423.18 1770.23,1404.28 "></polyline>
<polyline clip-path="url(#clip450)" style="stroke:#000000; stroke-linecap:round; stroke-linejoin:round; stroke-width:4; stroke-opacity:1; fill:none" points="2290.34,1423.18 2290.34,1404.28 "></polyline>
<path clip-path="url(#clip450)" d="M209.891 1454.1 Q206.28 1454.1 204.452 1457.66 Q202.646 1461.2 202.646 1468.33 Q202.646 1475.44 204.452 1479.01 Q206.28 1482.55 209.891 1482.55 Q213.526 1482.55 215.331 1479.01 Q217.16 1475.44 217.16 1468.33 Q217.16 1461.2 215.331 1457.66 Q213.526 1454.1 209.891 1454.1 M209.891 1450.39 Q215.702 1450.39 218.757 1455 Q221.836 1459.58 221.836 1468.33 Q221.836 1477.06 218.757 1481.67 Q215.702 1486.25 209.891 1486.25 Q204.081 1486.25 201.003 1481.67 Q197.947 1477.06 197.947 1468.33 Q197.947 1459.58 201.003 1455 Q204.081 1450.39 209.891 1450.39 Z" fill="#000000" fill-rule="nonzero" fill-opacity="1"></path><path clip-path="url(#clip450)" d="M693.696 1481.64 L710.016 1481.64 L710.016 1485.58 L688.072 1485.58 L688.072 1481.64 Q690.734 1478.89 695.317 1474.26 Q699.923 1469.61 701.104 1468.27 Q703.349 1465.74 704.229 1464.01 Q705.132 1462.25 705.132 1460.56 Q705.132 1457.8 703.187 1456.07 Q701.266 1454.33 698.164 1454.33 Q695.965 1454.33 693.511 1455.09 Q691.081 1455.86 688.303 1457.41 L688.303 1452.69 Q691.127 1451.55 693.581 1450.97 Q696.034 1450.39 698.071 1450.39 Q703.442 1450.39 706.636 1453.08 Q709.831 1455.77 709.831 1460.26 Q709.831 1462.39 709.02 1464.31 Q708.233 1466.2 706.127 1468.8 Q705.548 1469.47 702.446 1472.69 Q699.345 1475.88 693.696 1481.64 Z" fill="#000000" fill-rule="nonzero" fill-opacity="1"></path><path clip-path="url(#clip450)" d="M719.877 1451.02 L738.233 1451.02 L738.233 1454.96 L724.159 1454.96 L724.159 1463.43 Q725.178 1463.08 726.196 1462.92 Q727.215 1462.73 728.233 1462.73 Q734.02 1462.73 737.4 1465.9 Q740.78 1469.08 740.78 1474.49 Q740.78 1480.07 737.307 1483.17 Q733.835 1486.25 727.516 1486.25 Q725.34 1486.25 723.071 1485.88 Q720.826 1485.51 718.419 1484.77 L718.419 1480.07 Q720.502 1481.2 722.724 1481.76 Q724.946 1482.32 727.423 1482.32 Q731.428 1482.32 733.766 1480.21 Q736.104 1478.1 736.104 1474.49 Q736.104 1470.88 733.766 1468.77 Q731.428 1466.67 727.423 1466.67 Q725.548 1466.67 723.673 1467.08 Q721.821 1467.5 719.877 1468.38 L719.877 1451.02 Z" fill="#000000" fill-rule="nonzero" fill-opacity="1"></path><path clip-path="url(#clip450)" d="M759.992 1454.1 Q756.381 1454.1 754.553 1457.66 Q752.747 1461.2 752.747 1468.33 Q752.747 1475.44 754.553 1479.01 Q756.381 1482.55 759.992 1482.55 Q763.627 1482.55 765.432 1479.01 Q767.261 1475.44 767.261 1468.33 Q767.261 1461.2 765.432 1457.66 Q763.627 1454.1 759.992 1454.1 M759.992 1450.39 Q765.803 1450.39 768.858 1455 Q771.937 1459.58 771.937 1468.33 Q771.937 1477.06 768.858 1481.67 Q765.803 1486.25 759.992 1486.25 Q754.182 1486.25 751.104 1481.67 Q748.048 1477.06 748.048 1468.33 Q748.048 1459.58 751.104 1455 Q754.182 1450.39 759.992 1450.39 Z" fill="#000000" fill-rule="nonzero" fill-opacity="1"></path><path clip-path="url(#clip450)" d="M1209.74 1451.02 L1228.09 1451.02 L1228.09 1454.96 L1214.02 1454.96 L1214.02 1463.43 Q1215.04 1463.08 1216.05 1462.92 Q1217.07 1462.73 1218.09 1462.73 Q1223.88 1462.73 1227.26 1465.9 Q1230.64 1469.08 1230.64 1474.49 Q1230.64 1480.07 1227.17 1483.17 Q1223.69 1486.25 1217.37 1486.25 Q1215.2 1486.25 1212.93 1485.88 Q1210.68 1485.51 1208.28 1484.77 L1208.28 1480.07 Q1210.36 1481.2 1212.58 1481.76 Q1214.8 1482.32 1217.28 1482.32 Q1221.29 1482.32 1223.62 1480.21 Q1225.96 1478.1 1225.96 1474.49 Q1225.96 1470.88 1223.62 1468.77 Q1221.29 1466.67 1217.28 1466.67 Q1215.41 1466.67 1213.53 1467.08 Q1211.68 1467.5 1209.74 1468.38 L1209.74 1451.02 Z" fill="#000000" fill-rule="nonzero" fill-opacity="1"></path><path clip-path="url(#clip450)" d="M1249.85 1454.1 Q1246.24 1454.1 1244.41 1457.66 Q1242.61 1461.2 1242.61 1468.33 Q1242.61 1475.44 1244.41 1479.01 Q1246.24 1482.55 1249.85 1482.55 Q1253.48 1482.55 1255.29 1479.01 Q1257.12 1475.44 1257.12 1468.33 Q1257.12 1461.2 1255.29 1457.66 Q1253.48 1454.1 1249.85 1454.1 M1249.85 1450.39 Q1255.66 1450.39 1258.72 1455 Q1261.8 1459.58 1261.8 1468.33 Q1261.8 1477.06 1258.72 1481.67 Q1255.66 1486.25 1249.85 1486.25 Q1244.04 1486.25 1240.96 1481.67 Q1237.91 1477.06 1237.91 1468.33 Q1237.91 1459.58 1240.96 1455 Q1244.04 1450.39 1249.85 1450.39 Z" fill="#000000" fill-rule="nonzero" fill-opacity="1"></path><path clip-path="url(#clip450)" d="M1280.01 1454.1 Q1276.4 1454.1 1274.57 1457.66 Q1272.77 1461.2 1272.77 1468.33 Q1272.77 1475.44 1274.57 1479.01 Q1276.4 1482.55 1280.01 1482.55 Q1283.65 1482.55 1285.45 1479.01 Q1287.28 1475.44 1287.28 1468.33 Q1287.28 1461.2 1285.45 1457.66 Q1283.65 1454.1 1280.01 1454.1 M1280.01 1450.39 Q1285.82 1450.39 1288.88 1455 Q1291.96 1459.58 1291.96 1468.33 Q1291.96 1477.06 1288.88 1481.67 Q1285.82 1486.25 1280.01 1486.25 Q1274.2 1486.25 1271.12 1481.67 Q1268.07 1477.06 1268.07 1468.33 Q1268.07 1459.58 1271.12 1455 Q1274.2 1450.39 1280.01 1450.39 Z" fill="#000000" fill-rule="nonzero" fill-opacity="1"></path><path clip-path="url(#clip450)" d="M1728.51 1451.02 L1750.73 1451.02 L1750.73 1453.01 L1738.18 1485.58 L1733.3 1485.58 L1745.1 1454.96 L1728.51 1454.96 L1728.51 1451.02 Z" fill="#000000" fill-rule="nonzero" fill-opacity="1"></path><path clip-path="url(#clip450)" d="M1759.89 1451.02 L1778.25 1451.02 L1778.25 1454.96 L1764.18 1454.96 L1764.18 1463.43 Q1765.19 1463.08 1766.21 1462.92 Q1767.23 1462.73 1768.25 1462.73 Q1774.04 1462.73 1777.42 1465.9 Q1780.8 1469.08 1780.8 1474.49 Q1780.8 1480.07 1777.32 1483.17 Q1773.85 1486.25 1767.53 1486.25 Q1765.36 1486.25 1763.09 1485.88 Q1760.84 1485.51 1758.44 1484.77 L1758.44 1480.07 Q1760.52 1481.2 1762.74 1481.76 Q1764.96 1482.32 1767.44 1482.32 Q1771.44 1482.32 1773.78 1480.21 Q1776.12 1478.1 1776.12 1474.49 Q1776.12 1470.88 1773.78 1468.77 Q1771.44 1466.67 1767.44 1466.67 Q1765.57 1466.67 1763.69 1467.08 Q1761.84 1467.5 1759.89 1468.38 L1759.89 1451.02 Z" fill="#000000" fill-rule="nonzero" fill-opacity="1"></path><path clip-path="url(#clip450)" d="M1800.01 1454.1 Q1796.4 1454.1 1794.57 1457.66 Q1792.76 1461.2 1792.76 1468.33 Q1792.76 1475.44 1794.57 1479.01 Q1796.4 1482.55 1800.01 1482.55 Q1803.64 1482.55 1805.45 1479.01 Q1807.28 1475.44 1807.28 1468.33 Q1807.28 1461.2 1805.45 1457.66 Q1803.64 1454.1 1800.01 1454.1 M1800.01 1450.39 Q1805.82 1450.39 1808.88 1455 Q1811.95 1459.58 1811.95 1468.33 Q1811.95 1477.06 1808.88 1481.67 Q1805.82 1486.25 1800.01 1486.25 Q1794.2 1486.25 1791.12 1481.67 Q1788.07 1477.06 1788.07 1468.33 Q1788.07 1459.58 1791.12 1455 Q1794.2 1450.39 1800.01 1450.39 Z" fill="#000000" fill-rule="nonzero" fill-opacity="1"></path><path clip-path="url(#clip450)" d="M2234.87 1481.64 L2242.51 1481.64 L2242.51 1455.28 L2234.2 1456.95 L2234.2 1452.69 L2242.46 1451.02 L2247.14 1451.02 L2247.14 1481.64 L2254.78 1481.64 L2254.78 1485.58 L2234.87 1485.58 L2234.87 1481.64 Z" fill="#000000" fill-rule="nonzero" fill-opacity="1"></path><path clip-path="url(#clip450)" d="M2274.22 1454.1 Q2270.61 1454.1 2268.78 1457.66 Q2266.97 1461.2 2266.97 1468.33 Q2266.97 1475.44 2268.78 1479.01 Q2270.61 1482.55 2274.22 1482.55 Q2277.85 1482.55 2279.66 1479.01 Q2281.49 1475.44 2281.49 1468.33 Q2281.49 1461.2 2279.66 1457.66 Q2277.85 1454.1 2274.22 1454.1 M2274.22 1450.39 Q2280.03 1450.39 2283.09 1455 Q2286.16 1459.58 2286.16 1468.33 Q2286.16 1477.06 2283.09 1481.67 Q2280.03 1486.25 2274.22 1486.25 Q2268.41 1486.25 2265.33 1481.67 Q2262.28 1477.06 2262.28 1468.33 Q2262.28 1459.58 2265.33 1455 Q2268.41 1450.39 2274.22 1450.39 Z" fill="#000000" fill-rule="nonzero" fill-opacity="1"></path><path clip-path="url(#clip450)" d="M2304.38 1454.1 Q2300.77 1454.1 2298.94 1457.66 Q2297.14 1461.2 2297.14 1468.33 Q2297.14 1475.44 2298.94 1479.01 Q2300.77 1482.55 2304.38 1482.55 Q2308.02 1482.55 2309.82 1479.01 Q2311.65 1475.44 2311.65 1468.33 Q2311.65 1461.2 2309.82 1457.66 Q2308.02 1454.1 2304.38 1454.1 M2304.38 1450.39 Q2310.19 1450.39 2313.25 1455 Q2316.33 1459.58 2316.33 1468.33 Q2316.33 1477.06 2313.25 1481.67 Q2310.19 1486.25 2304.38 1486.25 Q2298.57 1486.25 2295.49 1481.67 Q2292.44 1477.06 2292.44 1468.33 Q2292.44 1459.58 2295.49 1455 Q2298.57 1450.39 2304.38 1450.39 Z" fill="#000000" fill-rule="nonzero" fill-opacity="1"></path><path clip-path="url(#clip450)" d="M2334.54 1454.1 Q2330.93 1454.1 2329.1 1457.66 Q2327.3 1461.2 2327.3 1468.33 Q2327.3 1475.44 2329.1 1479.01 Q2330.93 1482.55 2334.54 1482.55 Q2338.18 1482.55 2339.98 1479.01 Q2341.81 1475.44 2341.81 1468.33 Q2341.81 1461.2 2339.98 1457.66 Q2338.18 1454.1 2334.54 1454.1 M2334.54 1450.39 Q2340.35 1450.39 2343.41 1455 Q2346.49 1459.58 2346.49 1468.33 Q2346.49 1477.06 2343.41 1481.67 Q2340.35 1486.25 2334.54 1486.25 Q2328.73 1486.25 2325.65 1481.67 Q2322.6 1477.06 2322.6 1468.33 Q2322.6 1459.58 2325.65 1455 Q2328.73 1450.39 2334.54 1450.39 Z" fill="#000000" fill-rule="nonzero" fill-opacity="1"></path><path clip-path="url(#clip450)" d="M1088.54 1520.52 L1128.74 1520.52 L1128.74 1525.93 L1111.87 1525.93 L1111.87 1568.04 L1105.41 1568.04 L1105.41 1525.93 L1088.54 1525.93 L1088.54 1520.52 Z" fill="#000000" fill-rule="nonzero" fill-opacity="1"></path><path clip-path="url(#clip450)" d="M1132.69 1532.4 L1138.54 1532.4 L1138.54 1568.04 L1132.69 1568.04 L1132.69 1532.4 M1132.69 1518.52 L1138.54 1518.52 L1138.54 1525.93 L1132.69 1525.93 L1132.69 1518.52 Z" fill="#000000" fill-rule="nonzero" fill-opacity="1"></path><path clip-path="url(#clip450)" d="M1178.55 1539.24 Q1180.75 1535.29 1183.8 1533.41 Q1186.86 1531.54 1191 1531.54 Q1196.57 1531.54 1199.59 1535.45 Q1202.61 1539.33 1202.61 1546.53 L1202.61 1568.04 L1196.72 1568.04 L1196.72 1546.72 Q1196.72 1541.59 1194.91 1539.11 Q1193.1 1536.63 1189.37 1536.63 Q1184.82 1536.63 1182.18 1539.65 Q1179.54 1542.68 1179.54 1547.9 L1179.54 1568.04 L1173.65 1568.04 L1173.65 1546.72 Q1173.65 1541.56 1171.83 1539.11 Q1170.02 1536.63 1166.23 1536.63 Q1161.74 1536.63 1159.1 1539.68 Q1156.46 1542.71 1156.46 1547.9 L1156.46 1568.04 L1150.57 1568.04 L1150.57 1532.4 L1156.46 1532.4 L1156.46 1537.93 Q1158.47 1534.66 1161.27 1533.1 Q1164.07 1531.54 1167.92 1531.54 Q1171.8 1531.54 1174.51 1533.51 Q1177.25 1535.48 1178.55 1539.24 Z" fill="#000000" fill-rule="nonzero" fill-opacity="1"></path><path clip-path="url(#clip450)" d="M1244.79 1548.76 L1244.79 1551.62 L1217.86 1551.62 Q1218.24 1557.67 1221.49 1560.85 Q1224.77 1564 1230.59 1564 Q1233.96 1564 1237.11 1563.17 Q1240.3 1562.35 1243.42 1560.69 L1243.42 1566.23 Q1240.27 1567.57 1236.96 1568.27 Q1233.65 1568.97 1230.24 1568.97 Q1221.71 1568.97 1216.71 1564 Q1211.75 1559.04 1211.75 1550.57 Q1211.75 1541.82 1216.46 1536.69 Q1221.2 1531.54 1229.22 1531.54 Q1236.41 1531.54 1240.58 1536.18 Q1244.79 1540.8 1244.79 1548.76 M1238.93 1547.04 Q1238.87 1542.23 1236.22 1539.37 Q1233.61 1536.5 1229.29 1536.5 Q1224.38 1536.5 1221.42 1539.27 Q1218.5 1542.04 1218.05 1547.07 L1238.93 1547.04 Z" fill="#000000" fill-rule="nonzero" fill-opacity="1"></path><path clip-path="url(#clip450)" d="M1289.19 1518.58 Q1284.92 1525.9 1282.85 1533.06 Q1280.78 1540.23 1280.78 1547.58 Q1280.78 1554.93 1282.85 1562.16 Q1284.95 1569.35 1289.19 1576.64 L1284.09 1576.64 Q1279.32 1569.16 1276.93 1561.93 Q1274.58 1554.71 1274.58 1547.58 Q1274.58 1540.48 1276.93 1533.29 Q1279.29 1526.09 1284.09 1518.58 L1289.19 1518.58 Z" fill="#000000" fill-rule="nonzero" fill-opacity="1"></path><path clip-path="url(#clip450)" d="M1328.3 1539.24 Q1330.5 1535.29 1333.56 1533.41 Q1336.61 1531.54 1340.75 1531.54 Q1346.32 1531.54 1349.34 1535.45 Q1352.37 1539.33 1352.37 1546.53 L1352.37 1568.04 L1346.48 1568.04 L1346.48 1546.72 Q1346.48 1541.59 1344.66 1539.11 Q1342.85 1536.63 1339.13 1536.63 Q1334.57 1536.63 1331.93 1539.65 Q1329.29 1542.68 1329.29 1547.9 L1329.29 1568.04 L1323.4 1568.04 L1323.4 1546.72 Q1323.4 1541.56 1321.59 1539.11 Q1319.77 1536.63 1315.99 1536.63 Q1311.5 1536.63 1308.86 1539.68 Q1306.21 1542.71 1306.21 1547.9 L1306.21 1568.04 L1300.33 1568.04 L1300.33 1532.4 L1306.21 1532.4 L1306.21 1537.93 Q1308.22 1534.66 1311.02 1533.1 Q1313.82 1531.54 1317.67 1531.54 Q1321.56 1531.54 1324.26 1533.51 Q1327 1535.48 1328.3 1539.24 Z" fill="#000000" fill-rule="nonzero" fill-opacity="1"></path><path clip-path="url(#clip450)" d="M1386.77 1533.45 L1386.77 1538.98 Q1384.29 1537.71 1381.62 1537.07 Q1378.94 1536.44 1376.08 1536.44 Q1371.72 1536.44 1369.52 1537.77 Q1367.36 1539.11 1367.36 1541.79 Q1367.36 1543.82 1368.92 1545 Q1370.48 1546.15 1375.19 1547.2 L1377.19 1547.64 Q1383.43 1548.98 1386.04 1551.43 Q1388.68 1553.85 1388.68 1558.21 Q1388.68 1563.17 1384.74 1566.07 Q1380.82 1568.97 1373.95 1568.97 Q1371.08 1568.97 1367.96 1568.39 Q1364.87 1567.85 1361.44 1566.74 L1361.44 1560.69 Q1364.68 1562.38 1367.83 1563.24 Q1370.99 1564.07 1374.07 1564.07 Q1378.21 1564.07 1380.44 1562.66 Q1382.67 1561.23 1382.67 1558.65 Q1382.67 1556.27 1381.04 1554.99 Q1379.45 1553.72 1374.01 1552.54 L1371.97 1552.07 Q1366.53 1550.92 1364.11 1548.56 Q1361.69 1546.18 1361.69 1542.04 Q1361.69 1537.01 1365.26 1534.27 Q1368.82 1531.54 1375.38 1531.54 Q1378.62 1531.54 1381.49 1532.01 Q1384.35 1532.49 1386.77 1533.45 Z" fill="#000000" fill-rule="nonzero" fill-opacity="1"></path><path clip-path="url(#clip450)" d="M1397.09 1518.58 L1402.18 1518.58 Q1406.95 1526.09 1409.31 1533.29 Q1411.69 1540.48 1411.69 1547.58 Q1411.69 1554.71 1409.31 1561.93 Q1406.95 1569.16 1402.18 1576.64 L1397.09 1576.64 Q1401.32 1569.35 1403.39 1562.16 Q1405.49 1554.93 1405.49 1547.58 Q1405.49 1540.23 1403.39 1533.06 Q1401.32 1525.9 1397.09 1518.58 Z" fill="#000000" fill-rule="nonzero" fill-opacity="1"></path><polyline clip-path="url(#clip450)" style="stroke:#000000; stroke-linecap:round; stroke-linejoin:round; stroke-width:4; stroke-opacity:1; fill:none" points="147.478,1423.18 147.478,47.2441 "></polyline>
<polyline clip-path="url(#clip450)" style="stroke:#000000; stroke-linecap:round; stroke-linejoin:round; stroke-width:4; stroke-opacity:1; fill:none" points="147.478,1295.15 166.376,1295.15 "></polyline>
<polyline clip-path="url(#clip450)" style="stroke:#000000; stroke-linecap:round; stroke-linejoin:round; stroke-width:4; stroke-opacity:1; fill:none" points="147.478,1055.95 166.376,1055.95 "></polyline>
<polyline clip-path="url(#clip450)" style="stroke:#000000; stroke-linecap:round; stroke-linejoin:round; stroke-width:4; stroke-opacity:1; fill:none" points="147.478,816.754 166.376,816.754 "></polyline>
<polyline clip-path="url(#clip450)" style="stroke:#000000; stroke-linecap:round; stroke-linejoin:round; stroke-width:4; stroke-opacity:1; fill:none" points="147.478,577.558 166.376,577.558 "></polyline>
<polyline clip-path="url(#clip450)" style="stroke:#000000; stroke-linecap:round; stroke-linejoin:round; stroke-width:4; stroke-opacity:1; fill:none" points="147.478,338.361 166.376,338.361 "></polyline>
<polyline clip-path="url(#clip450)" style="stroke:#000000; stroke-linecap:round; stroke-linejoin:round; stroke-width:4; stroke-opacity:1; fill:none" points="147.478,99.1652 166.376,99.1652 "></polyline>
<path clip-path="url(#clip450)" d="M51.3625 1295.6 L81.0383 1295.6 L81.0383 1299.53 L51.3625 1299.53 L51.3625 1295.6 Z" fill="#000000" fill-rule="nonzero" fill-opacity="1"></path><path clip-path="url(#clip450)" d="M95.1586 1308.49 L111.478 1308.49 L111.478 1312.43 L89.5336 1312.43 L89.5336 1308.49 Q92.1956 1305.74 96.7789 1301.11 Q101.385 1296.45 102.566 1295.11 Q104.811 1292.59 105.691 1290.85 Q106.594 1289.09 106.594 1287.4 Q106.594 1284.65 104.649 1282.91 Q102.728 1281.18 99.6261 1281.18 Q97.4271 1281.18 94.9734 1281.94 Q92.5428 1282.7 89.7651 1284.26 L89.7651 1279.53 Q92.5891 1278.4 95.0428 1277.82 Q97.4965 1277.24 99.5335 1277.24 Q104.904 1277.24 108.098 1279.93 Q111.293 1282.61 111.293 1287.1 Q111.293 1289.23 110.483 1291.15 Q109.696 1293.05 107.589 1295.64 Q107.01 1296.32 103.909 1299.53 Q100.807 1302.73 95.1586 1308.49 Z" fill="#000000" fill-rule="nonzero" fill-opacity="1"></path><path clip-path="url(#clip450)" d="M50.9921 1056.4 L80.6679 1056.4 L80.6679 1060.34 L50.9921 1060.34 L50.9921 1056.4 Z" fill="#000000" fill-rule="nonzero" fill-opacity="1"></path><path clip-path="url(#clip450)" d="M91.5706 1069.29 L99.2095 1069.29 L99.2095 1042.93 L90.8993 1044.6 L90.8993 1040.34 L99.1632 1038.67 L103.839 1038.67 L103.839 1069.29 L111.478 1069.29 L111.478 1073.23 L91.5706 1073.23 L91.5706 1069.29 Z" fill="#000000" fill-rule="nonzero" fill-opacity="1"></path><path clip-path="url(#clip450)" d="M99.5335 802.553 Q95.9224 802.553 94.0937 806.117 Q92.2882 809.659 92.2882 816.789 Q92.2882 823.895 94.0937 827.46 Q95.9224 831.001 99.5335 831.001 Q103.168 831.001 104.973 827.46 Q106.802 823.895 106.802 816.789 Q106.802 809.659 104.973 806.117 Q103.168 802.553 99.5335 802.553 M99.5335 798.849 Q105.344 798.849 108.399 803.455 Q111.478 808.039 111.478 816.789 Q111.478 825.515 108.399 830.122 Q105.344 834.705 99.5335 834.705 Q93.7234 834.705 90.6447 830.122 Q87.5892 825.515 87.5892 816.789 Q87.5892 808.039 90.6447 803.455 Q93.7234 798.849 99.5335 798.849 Z" fill="#000000" fill-rule="nonzero" fill-opacity="1"></path><path clip-path="url(#clip450)" d="M91.5706 590.902 L99.2095 590.902 L99.2095 564.537 L90.8993 566.204 L90.8993 561.944 L99.1632 560.278 L103.839 560.278 L103.839 590.902 L111.478 590.902 L111.478 594.838 L91.5706 594.838 L91.5706 590.902 Z" fill="#000000" fill-rule="nonzero" fill-opacity="1"></path><path clip-path="url(#clip450)" d="M95.1586 351.706 L111.478 351.706 L111.478 355.641 L89.5336 355.641 L89.5336 351.706 Q92.1956 348.952 96.7789 344.322 Q101.385 339.669 102.566 338.327 Q104.811 335.804 105.691 334.067 Q106.594 332.308 106.594 330.618 Q106.594 327.864 104.649 326.128 Q102.728 324.392 99.6261 324.392 Q97.4271 324.392 94.9734 325.155 Q92.5428 325.919 89.7651 327.47 L89.7651 322.748 Q92.5891 321.614 95.0428 321.035 Q97.4965 320.456 99.5335 320.456 Q104.904 320.456 108.098 323.142 Q111.293 325.827 111.293 330.317 Q111.293 332.447 110.483 334.368 Q109.696 336.267 107.589 338.859 Q107.01 339.53 103.909 342.748 Q100.807 345.942 95.1586 351.706 Z" fill="#000000" fill-rule="nonzero" fill-opacity="1"></path><path clip-path="url(#clip450)" d="M104.348 97.811 Q107.705 98.5286 109.58 100.797 Q111.478 103.066 111.478 106.399 Q111.478 111.515 107.959 114.316 Q104.441 117.116 97.9595 117.116 Q95.7836 117.116 93.4688 116.677 Q91.1771 116.26 88.7234 115.404 L88.7234 110.89 Q90.6678 112.024 92.9826 112.603 Q95.2974 113.181 97.8206 113.181 Q102.219 113.181 104.51 111.445 Q106.825 109.709 106.825 106.399 Q106.825 103.343 104.672 101.63 Q102.543 99.8944 98.7234 99.8944 L94.6956 99.8944 L94.6956 96.0518 L98.9085 96.0518 Q102.358 96.0518 104.186 94.6861 Q106.015 93.2972 106.015 90.7046 Q106.015 88.0426 104.117 86.6305 Q102.242 85.1954 98.7234 85.1954 Q96.8021 85.1954 94.603 85.612 Q92.4039 86.0287 89.7651 86.9083 L89.7651 82.7417 Q92.4271 82.0009 94.7419 81.6306 Q97.0798 81.2602 99.14 81.2602 Q104.464 81.2602 107.566 83.6907 Q110.668 86.0981 110.668 90.2185 Q110.668 93.0888 109.024 95.0796 Q107.381 97.0472 104.348 97.811 Z" fill="#000000" fill-rule="nonzero" fill-opacity="1"></path><polyline clip-path="url(#clip452)" style="stroke:#009af9; stroke-linecap:round; stroke-linejoin:round; stroke-width:4; stroke-opacity:1; fill:none" points="209.891,816.754 211.972,813.8 214.052,810.856 216.133,807.92 218.213,804.993 220.294,802.075 222.374,799.166 224.455,796.266 226.535,793.376 228.615,790.495 230.696,787.624 232.776,784.762 234.857,781.91 236.937,779.067 239.018,776.234 241.098,773.411 243.179,770.598 245.259,767.795 247.34,765.002 249.42,762.219 251.5,759.447 253.581,756.684 255.661,753.933 257.742,751.191 259.822,748.46 261.903,745.74 263.983,743.03 266.064,740.331 268.144,737.643 270.225,734.966 272.305,732.299 274.385,729.644 276.466,727 278.546,724.367 280.627,721.745 282.707,719.135 284.788,716.536 286.868,713.948 288.949,711.372 291.029,708.807 293.109,706.254 295.19,703.713 297.27,701.183 299.351,698.665 301.431,696.16 303.512,693.666 305.592,691.184 307.673,688.714 309.753,686.256 311.834,683.81 313.914,681.377 315.994,678.956 318.075,676.547 320.155,674.151 322.236,671.767 324.316,669.396 326.397,667.037 328.477,664.691 330.558,662.358 332.638,660.037 334.718,657.729 336.799,655.434 338.879,653.152 340.96,650.883 343.04,648.627 345.121,646.384 347.201,644.154 349.282,641.937 351.362,639.734 353.443,637.544 355.523,635.367 357.603,633.203 359.684,631.053 361.764,628.916 363.845,626.793 365.925,624.683 368.006,622.587 370.086,620.504 372.167,618.435 374.247,616.38 376.328,614.338 378.408,612.311 380.488,610.297 382.569,608.297 384.649,606.311 386.73,604.339 388.81,602.38 390.891,600.436 392.971,598.506 395.052,596.59 397.132,594.689 399.212,592.801 401.293,590.928 403.373,589.068 405.454,587.224 407.534,585.393 409.615,583.577 411.695,581.775 413.776,579.988 415.856,578.215 417.937,576.456 420.017,574.712 422.097,572.982 424.178,571.268 426.258,569.567 428.339,567.881 430.419,566.21 432.5,564.554 434.58,562.912 436.661,561.285 438.741,559.673 440.821,558.075 442.902,556.493 444.982,554.925 447.063,553.372 449.143,551.834 451.224,550.31 453.304,548.802 455.385,547.308 457.465,545.83 459.546,544.366 461.626,542.917 463.706,541.484 465.787,540.065 467.867,538.662 469.948,537.273 472.028,535.9 474.109,534.541 476.189,533.198 478.27,531.87 480.35,530.557 482.431,529.259 484.511,527.976 486.591,526.708 488.672,525.456 490.752,524.218 492.833,522.996 494.913,521.789 496.994,520.598 499.074,519.421 501.155,518.26 503.235,517.114 505.315,515.983 507.396,514.868 509.476,513.767 511.557,512.682 513.637,511.613 515.718,510.558 517.798,509.519 519.879,508.495 521.959,507.486 524.04,506.493 526.12,505.515 528.2,504.552 530.281,503.605 532.361,502.672 534.442,501.755 536.522,500.854 538.603,499.967 540.683,499.096 542.764,498.24 544.844,497.399 546.924,496.574 549.005,495.764 551.085,494.969 553.166,494.19 555.246,493.425 557.327,492.676 559.407,491.942 561.488,491.223 563.568,490.52 565.649,489.832 567.729,489.159 569.809,488.501 571.89,487.858 573.97,487.23 576.051,486.618 578.131,486.021 580.212,485.439 582.292,484.871 584.373,484.32 586.453,483.783 588.534,483.261 590.614,482.754 592.694,482.262 594.775,481.786 596.855,481.324 598.936,480.878 601.016,480.446 603.097,480.029 605.177,479.627 607.258,479.241 609.338,478.869 611.418,478.512 613.499,478.169 615.579,477.842 617.66,477.529 619.74,477.232 621.821,476.949 623.901,476.68 625.982,476.427 628.062,476.188 630.143,475.964 632.223,475.755 634.303,475.56 636.384,475.38 638.464,475.214 640.545,475.063 642.625,474.927 644.706,474.805 646.786,474.697 648.867,474.604 650.947,474.526 653.027,474.462 655.108,474.412 657.188,474.376 659.269,474.355 661.349,474.348 663.43,474.356 665.51,474.377 667.591,474.413 669.671,474.463 671.752,474.527 673.832,474.605 675.912,474.697 677.993,474.803 680.073,474.923 682.154,475.058 684.234,475.206 686.315,475.367 688.395,475.543 690.476,475.733 692.556,475.936 694.637,476.153 696.717,476.384 698.797,476.628 700.878,476.886 702.958,477.158 705.039,477.443 707.119,477.742 709.2,478.054 711.28,478.379 713.361,478.718 715.441,479.07 717.521,479.436 719.602,479.814 721.682,480.206 723.763,480.611 725.843,481.029 727.924,481.461 730.004,481.905 732.085,482.362 734.165,482.833 736.246,483.316 738.326,483.812 740.406,484.321 742.487,484.842 744.567,485.377 746.648,485.924 748.728,486.483 750.809,487.055 752.889,487.64 754.97,488.237 757.05,488.847 759.13,489.469 761.211,490.103 763.291,490.75 765.372,491.409 767.452,492.08 769.533,492.763 771.613,493.458 773.694,494.165 775.774,494.885 777.855,495.616 779.935,496.359 782.015,497.114 784.096,497.88 786.176,498.659 788.257,499.449 790.337,500.25 792.418,501.064 794.498,501.888 796.579,502.725 798.659,503.572 800.74,504.431 802.82,505.301 804.9,506.183 806.981,507.075 809.061,507.979 811.142,508.894 813.222,509.82 815.303,510.757 817.383,511.704 819.464,512.663 821.544,513.632 823.624,514.613 825.705,515.603 827.785,516.605 829.866,517.617 831.946,518.639 834.027,519.672 836.107,520.715 838.188,521.769 840.268,522.833 842.349,523.907 844.429,524.991 846.509,526.085 848.59,527.19 850.67,528.304 852.751,529.428 854.831,530.562 856.912,531.706 858.992,532.859 861.073,534.023 863.153,535.195 865.233,536.378 867.314,537.569 869.394,538.771 871.475,539.981 873.555,541.201 875.636,542.43 877.716,543.668 879.797,544.915 881.877,546.172 883.958,547.437 886.038,548.711 888.118,549.994 890.199,551.286 892.279,552.586 894.36,553.895 896.44,555.213 898.521,556.539 900.601,557.873 902.682,559.216 904.762,560.567 906.843,561.927 908.923,563.295 911.003,564.67 913.084,566.054 915.164,567.446 917.245,568.846 919.325,570.253 921.406,571.669 923.486,573.092 925.567,574.523 927.647,575.961 929.727,577.407 931.808,578.86 933.888,580.321 935.969,581.789 938.049,583.264 940.13,584.747 942.21,586.236 944.291,587.733 946.371,589.237 948.452,590.747 950.532,592.264 952.612,593.788 954.693,595.319 956.773,596.856 958.854,598.4 960.934,599.951 963.015,601.508 965.095,603.071 967.176,604.64 969.256,606.216 971.336,607.798 973.417,609.386 975.497,610.98 977.578,612.579 979.658,614.185 981.739,615.797 983.819,617.414 985.9,619.037 987.98,620.665 990.061,622.299 992.141,623.939 994.221,625.584 996.302,627.234 998.382,628.889 1000.46,630.55 1002.54,632.216 1004.62,633.887 1006.7,635.562 1008.78,637.243 1010.87,638.929 1012.95,640.619 1015.03,642.314 1017.11,644.013 1019.19,645.718 1021.27,647.426 1023.35,649.139 1025.43,650.857 1027.51,652.578 1029.59,654.304 1031.67,656.034 1033.75,657.768 1035.83,659.507 1037.91,661.249 1039.99,662.995 1042.07,664.744 1044.15,666.498 1046.23,668.255 1048.31,670.016 1050.39,671.78 1052.47,673.547 1054.55,675.318 1056.63,677.093 1058.72,678.87 1060.8,680.651 1062.88,682.435 1064.96,684.222 1067.04,686.012 1069.12,687.804 1071.2,689.6 1073.28,691.398 1075.36,693.199 1077.44,695.003 1079.52,696.809 1081.6,698.618 1083.68,700.429 1085.76,702.242 1087.84,704.058 1089.92,705.875 1092,707.695 1094.08,709.517 1096.16,711.341 1098.24,713.167 1100.32,714.995 1102.4,716.824 1104.49,718.656 1106.57,720.489 1108.65,722.323 1110.73,724.159 1112.81,725.997 1114.89,727.836 1116.97,729.676 1119.05,731.517 1121.13,733.36 1123.21,735.204 1125.29,737.049 1127.37,738.894 1129.45,740.741 1131.53,742.589 1133.61,744.437 1135.69,746.286 1137.77,748.136 1139.85,749.986 1141.93,751.837 1144.01,753.688 1146.09,755.54 1148.17,757.392 1150.26,759.244 1152.34,761.096 1154.42,762.949 1156.5,764.801 1158.58,766.654 1160.66,768.506 1162.74,770.358 1164.82,772.21 1166.9,774.062 1168.98,775.913 1171.06,777.764 1173.14,779.615 1175.22,781.465 1177.3,783.314 1179.38,785.163 1181.46,787.011 1183.54,788.858 1185.62,790.704 1187.7,792.55 1189.78,794.394 1191.86,796.237 1193.94,798.08 1196.03,799.921 1198.11,801.761 1200.19,803.599 1202.27,805.436 1204.35,807.272 1206.43,809.107 1208.51,810.939 1210.59,812.771 1212.67,814.6 1214.75,816.428 1216.83,818.254 1218.91,820.078 1220.99,821.901 1223.07,823.721 1225.15,825.539 1227.23,827.356 1229.31,829.17 1231.39,830.982 1233.47,832.791 1235.55,834.599 1237.63,836.404 1239.71,838.206 1241.8,840.007 1243.88,841.804 1245.96,843.599 1248.04,845.392 1250.12,847.181 1252.2,848.968 1254.28,850.752 1256.36,852.534 1258.44,854.312 1260.52,856.087 1262.6,857.859 1264.68,859.628 1266.76,861.394 1268.84,863.157 1270.92,864.917 1273,866.673 1275.08,868.426 1277.16,870.175 1279.24,871.921 1281.32,873.664 1283.4,875.402 1285.48,877.138 1287.57,878.869 1289.65,880.597 1291.73,882.321 1293.81,884.041 1295.89,885.757 1297.97,887.469 1300.05,889.178 1302.13,890.882 1304.21,892.582 1306.29,894.278 1308.37,895.969 1310.45,897.657 1312.53,899.34 1314.61,901.019 1316.69,902.693 1318.77,904.363 1320.85,906.029 1322.93,907.689 1325.01,909.346 1327.09,910.997 1329.17,912.644 1331.25,914.287 1333.33,915.924 1335.42,917.557 1337.5,919.184 1339.58,920.807 1341.66,922.425 1343.74,924.038 1345.82,925.646 1347.9,927.248 1349.98,928.846 1352.06,930.438 1354.14,932.025 1356.22,933.606 1358.3,935.183 1360.38,936.754 1362.46,938.319 1364.54,939.879 1366.62,941.434 1368.7,942.983 1370.78,944.526 1372.86,946.064 1374.94,947.596 1377.02,949.122 1379.1,950.643 1381.19,952.157 1383.27,953.666 1385.35,955.169 1387.43,956.666 1389.51,958.157 1391.59,959.642 1393.67,961.121 1395.75,962.594 1397.83,964.061 1399.91,965.522 1401.99,966.976 1404.07,968.424 1406.15,969.866 1408.23,971.302 1410.31,972.731 1412.39,974.154 1414.47,975.57 1416.55,976.98 1418.63,978.384 1420.71,979.781 1422.79,981.171 1424.87,982.555 1426.96,983.932 1429.04,985.302 1431.12,986.666 1433.2,988.023 1435.28,989.374 1437.36,990.717 1439.44,992.054 1441.52,993.384 1443.6,994.706 1445.68,996.023 1447.76,997.332 1449.84,998.634 1451.92,999.929 1454,1001.22 1456.08,1002.5 1458.16,1003.77 1460.24,1005.04 1462.32,1006.3 1464.4,1007.55 1466.48,1008.8 1468.56,1010.03 1470.64,1011.26 1472.73,1012.49 1474.81,1013.7 1476.89,1014.91 1478.97,1016.11 1481.05,1017.31 1483.13,1018.49 1485.21,1019.67 1487.29,1020.84 1489.37,1022.01 1491.45,1023.17 1493.53,1024.31 1495.61,1025.46 1497.69,1026.59 1499.77,1027.72 1501.85,1028.83 1503.93,1029.95 1506.01,1031.05 1508.09,1032.14 1510.17,1033.23 1512.25,1034.31 1514.33,1035.38 1516.41,1036.45 1518.5,1037.51 1520.58,1038.56 1522.66,1039.6 1524.74,1040.63 1526.82,1041.66 1528.9,1042.67 1530.98,1043.68 1533.06,1044.68 1535.14,1045.68 1537.22,1046.66 1539.3,1047.64 1541.38,1048.61 1543.46,1049.57 1545.54,1050.53 1547.62,1051.47 1549.7,1052.41 1551.78,1053.34 1553.86,1054.26 1555.94,1055.17 1558.02,1056.08 1560.1,1056.98 1562.18,1057.87 1564.27,1058.75 1566.35,1059.62 1568.43,1060.48 1570.51,1061.34 1572.59,1062.19 1574.67,1063.03 1576.75,1063.86 1578.83,1064.68 1580.91,1065.5 1582.99,1066.3 1585.07,1067.1 1587.15,1067.89 1589.23,1068.67 1591.31,1069.45 1593.39,1070.21 1595.47,1070.97 1597.55,1071.72 1599.63,1072.46 1601.71,1073.19 1603.79,1073.91 1605.87,1074.62 1607.95,1075.33 1610.03,1076.03 1612.12,1076.72 1614.2,1077.4 1616.28,1078.07 1618.36,1078.74 1620.44,1079.39 1622.52,1080.04 1624.6,1080.68 1626.68,1081.31 1628.76,1081.93 1630.84,1082.54 1632.92,1083.15 1635,1083.75 1637.08,1084.33 1639.16,1084.91 1641.24,1085.48 1643.32,1086.05 1645.4,1086.6 1647.48,1087.15 1649.56,1087.68 1651.64,1088.21 1653.72,1088.73 1655.8,1089.25 1657.89,1089.75 1659.97,1090.24 1662.05,1090.73 1664.13,1091.21 1666.21,1091.68 1668.29,1092.14 1670.37,1092.59 1672.45,1093.04 1674.53,1093.47 1676.61,1093.9 1678.69,1094.32 1680.77,1094.73 1682.85,1095.13 1684.93,1095.52 1687.01,1095.91 1689.09,1096.28 1691.17,1096.65 1693.25,1097.01 1695.33,1097.36 1697.41,1097.71 1699.49,1098.04 1701.57,1098.37 1703.66,1098.69 1705.74,1099 1707.82,1099.3 1709.9,1099.59 1711.98,1099.87 1714.06,1100.15 1716.14,1100.42 1718.22,1100.68 1720.3,1100.93 1722.38,1101.17 1724.46,1101.4 1726.54,1101.63 1728.62,1101.85 1730.7,1102.06 1732.78,1102.26 1734.86,1102.45 1736.94,1102.64 1739.02,1102.82 1741.1,1102.98 1743.18,1103.14 1745.26,1103.3 1747.34,1103.44 1749.43,1103.58 1751.51,1103.71 1753.59,1103.83 1755.67,1103.94 1757.75,1104.04 1759.83,1104.14 1761.91,1104.22 1763.99,1104.3 1766.07,1104.38 1768.15,1104.44 1770.23,1104.5 1772.31,1104.54 1774.39,1104.58 1776.47,1104.61 1778.55,1104.64 1780.63,1104.65 1782.71,1104.66 1784.79,1104.66 1786.87,1104.65 1788.95,1104.64 1791.03,1104.62 1793.11,1104.58 1795.2,1104.55 1797.28,1104.5 1799.36,1104.44 1801.44,1104.38 1803.52,1104.31 1805.6,1104.23 1807.68,1104.15 1809.76,1104.06 1811.84,1103.95 1813.92,1103.85 1816,1103.73 1818.08,1103.61 1820.16,1103.48 1822.24,1103.34 1824.32,1103.19 1826.4,1103.04 1828.48,1102.88 1830.56,1102.71 1832.64,1102.53 1834.72,1102.35 1836.8,1102.16 1838.88,1101.96 1840.96,1101.75 1843.05,1101.54 1845.13,1101.32 1847.21,1101.09 1849.29,1100.86 1851.37,1100.62 1853.45,1100.37 1855.53,1100.11 1857.61,1099.85 1859.69,1099.58 1861.77,1099.3 1863.85,1099.02 1865.93,1098.72 1868.01,1098.42 1870.09,1098.12 1872.17,1097.81 1874.25,1097.49 1876.33,1097.16 1878.41,1096.83 1880.49,1096.49 1882.57,1096.14 1884.65,1095.78 1886.73,1095.42 1888.82,1095.06 1890.9,1094.68 1892.98,1094.3 1895.06,1093.91 1897.14,1093.52 1899.22,1093.12 1901.3,1092.71 1903.38,1092.3 1905.46,1091.87 1907.54,1091.45 1909.62,1091.01 1911.7,1090.57 1913.78,1090.13 1915.86,1089.67 1917.94,1089.21 1920.02,1088.75 1922.1,1088.28 1924.18,1087.8 1926.26,1087.31 1928.34,1086.82 1930.42,1086.32 1932.5,1085.82 1934.59,1085.31 1936.67,1084.8 1938.75,1084.27 1940.83,1083.75 1942.91,1083.21 1944.99,1082.67 1947.07,1082.13 1949.15,1081.58 1951.23,1081.02 1953.31,1080.46 1955.39,1079.89 1957.47,1079.31 1959.55,1078.73 1961.63,1078.15 1963.71,1077.55 1965.79,1076.96 1967.87,1076.35 1969.95,1075.74 1972.03,1075.13 1974.11,1074.51 1976.19,1073.88 1978.27,1073.25 1980.36,1072.62 1982.44,1071.98 1984.52,1071.33 1986.6,1070.68 1988.68,1070.02 1990.76,1069.36 1992.84,1068.69 1994.92,1068.02 1997,1067.34 1999.08,1066.66 2001.16,1065.97 2003.24,1065.27 2005.32,1064.58 2007.4,1063.87 2009.48,1063.17 2011.56,1062.45 2013.64,1061.73 2015.72,1061.01 2017.8,1060.29 2019.88,1059.55 2021.96,1058.82 2024.04,1058.08 2026.13,1057.33 2028.21,1056.58 2030.29,1055.83 2032.37,1055.07 2034.45,1054.3 2036.53,1053.53 2038.61,1052.76 2040.69,1051.99 2042.77,1051.2 2044.85,1050.42 2046.93,1049.63 2049.01,1048.83 2051.09,1048.04 2053.17,1047.23 2055.25,1046.43 2057.33,1045.62 2059.41,1044.8 2061.49,1043.98 2063.57,1043.16 2065.65,1042.34 2067.73,1041.51 2069.81,1040.67 2071.9,1039.83 2073.98,1038.99 2076.06,1038.15 2078.14,1037.3 2080.22,1036.44 2082.3,1035.59 2084.38,1034.73 2086.46,1033.86 2088.54,1033 2090.62,1032.13 2092.7,1031.25 2094.78,1030.38 2096.86,1029.5 2098.94,1028.61 2101.02,1027.72 2103.1,1026.83 2105.18,1025.94 2107.26,1025.04 2109.34,1024.14 2111.42,1023.24 2113.5,1022.34 2115.58,1021.43 2117.66,1020.51 2119.75,1019.6 2121.83,1018.68 2123.91,1017.76 2125.99,1016.84 2128.07,1015.91 2130.15,1014.98 2132.23,1014.05 2134.31,1013.12 2136.39,1012.18 2138.47,1011.24 2140.55,1010.3 2142.63,1009.36 2144.71,1008.41 2146.79,1007.46 2148.87,1006.51 2150.95,1005.55 2153.03,1004.6 2155.11,1003.64 2157.19,1002.68 2159.27,1001.72 2161.35,1000.75 2163.43,999.783 2165.52,998.814 2167.6,997.843 2169.68,996.869 2171.76,995.894 2173.84,994.917 2175.92,993.938 2178,992.957 2180.08,991.974 2182.16,990.989 2184.24,990.003 2186.32,989.015 2188.4,988.025 2190.48,987.034 2192.56,986.041 2194.64,985.047 2196.72,984.051 2198.8,983.054 2200.88,982.055 2202.96,981.055 2205.04,980.053 2207.12,979.05 2209.2,978.046 2211.29,977.041 2213.37,976.034 2215.45,975.026 2217.53,974.017 2219.61,973.007 2221.69,971.996 2223.77,970.984 2225.85,969.971 2227.93,968.957 2230.01,967.942 2232.09,966.927 2234.17,965.91 2236.25,964.893 2238.33,963.875 2240.41,962.856 2242.49,961.836 2244.57,960.816 2246.65,959.795 2248.73,958.774 2250.81,957.752 2252.89,956.73 2254.97,955.707 2257.06,954.684 2259.14,953.66 2261.22,952.636 2263.3,951.612 2265.38,950.588 2267.46,949.563 2269.54,948.538 2271.62,947.513 2273.7,946.488 2275.78,945.463 2277.86,944.437 2279.94,943.412 2282.02,942.387 2284.1,941.362 2286.18,940.337 2288.26,939.312 2290.34,938.287 "></polyline>
<polyline clip-path="url(#clip452)" style="stroke:#e26f46; stroke-linecap:round; stroke-linejoin:round; stroke-width:4; stroke-opacity:1; fill:none" points="209.891,816.754 211.972,816.873 214.052,816.993 216.133,817.115 218.213,817.237 220.294,817.36 222.374,817.485 224.455,817.61 226.535,817.736 228.615,817.863 230.696,817.992 232.776,818.121 234.857,818.251 236.937,818.382 239.018,818.514 241.098,818.647 243.179,818.78 245.259,818.915 247.34,819.051 249.42,819.187 251.5,819.325 253.581,819.463 255.661,819.602 257.742,819.742 259.822,819.883 261.903,820.025 263.983,820.168 266.064,820.311 268.144,820.456 270.225,820.601 272.305,820.747 274.385,820.894 276.466,821.042 278.546,821.19 280.627,821.339 282.707,821.489 284.788,821.64 286.868,821.792 288.949,821.944 291.029,822.097 293.109,822.251 295.19,822.406 297.27,822.561 299.351,822.717 301.431,822.874 303.512,823.032 305.592,823.19 307.673,823.349 309.753,823.509 311.834,823.669 313.914,823.831 315.994,823.992 318.075,824.155 320.155,824.318 322.236,824.482 324.316,824.646 326.397,824.811 328.477,824.977 330.558,825.143 332.638,825.31 334.718,825.478 336.799,825.646 338.879,825.815 340.96,825.984 343.04,826.154 345.121,826.325 347.201,826.496 349.282,826.667 351.362,826.84 353.443,827.012 355.523,827.186 357.603,827.359 359.684,827.534 361.764,827.709 363.845,827.884 365.925,828.06 368.006,828.237 370.086,828.413 372.167,828.591 374.247,828.769 376.328,828.947 378.408,829.126 380.488,829.305 382.569,829.485 384.649,829.665 386.73,829.846 388.81,830.027 390.891,830.208 392.971,830.39 395.052,830.572 397.132,830.755 399.212,830.938 401.293,831.121 403.373,831.305 405.454,831.489 407.534,831.674 409.615,831.858 411.695,832.044 413.776,832.229 415.856,832.415 417.937,832.601 420.017,832.788 422.097,832.975 424.178,833.162 426.258,833.349 428.339,833.537 430.419,833.725 432.5,833.913 434.58,834.102 436.661,834.291 438.741,834.48 440.821,834.669 442.902,834.858 444.982,835.048 447.063,835.238 449.143,835.428 451.224,835.619 453.304,835.809 455.385,836 457.465,836.191 459.546,836.382 461.626,836.574 463.706,836.765 465.787,836.957 467.867,837.149 469.948,837.341 472.028,837.533 474.109,837.725 476.189,837.917 478.27,838.11 480.35,838.302 482.431,838.495 484.511,838.688 486.591,838.881 488.672,839.074 490.752,839.267 492.833,839.46 494.913,839.653 496.994,839.846 499.074,840.04 501.155,840.233 503.235,840.426 505.315,840.62 507.396,840.813 509.476,841.006 511.557,841.2 513.637,841.393 515.718,841.586 517.798,841.78 519.879,841.973 521.959,842.167 524.04,842.36 526.12,842.553 528.2,842.746 530.281,842.939 532.361,843.133 534.442,843.326 536.522,843.519 538.603,843.711 540.683,843.904 542.764,844.097 544.844,844.289 546.924,844.482 549.005,844.674 551.085,844.867 553.166,845.059 555.246,845.251 557.327,845.443 559.407,845.634 561.488,845.826 563.568,846.017 565.649,846.208 567.729,846.399 569.809,846.59 571.89,846.781 573.97,846.972 576.051,847.162 578.131,847.352 580.212,847.542 582.292,847.732 584.373,847.921 586.453,848.11 588.534,848.299 590.614,848.488 592.694,848.677 594.775,848.865 596.855,849.053 598.936,849.241 601.016,849.428 603.097,849.615 605.177,849.802 607.258,849.989 609.338,850.175 611.418,850.361 613.499,850.547 615.579,850.732 617.66,850.917 619.74,851.102 621.821,851.287 623.901,851.471 625.982,851.654 628.062,851.838 630.143,852.021 632.223,852.204 634.303,852.386 636.384,852.568 638.464,852.75 640.545,852.931 642.625,853.112 644.706,853.292 646.786,853.472 648.867,853.652 650.947,853.831 653.027,854.01 655.108,854.188 657.188,854.366 659.269,854.544 661.349,854.721 663.43,854.898 665.51,855.074 667.591,855.25 669.671,855.425 671.752,855.6 673.832,855.774 675.912,855.948 677.993,856.122 680.073,856.295 682.154,856.467 684.234,856.639 686.315,856.811 688.395,856.982 690.476,857.152 692.556,857.322 694.637,857.492 696.717,857.661 698.797,857.829 700.878,857.997 702.958,858.165 705.039,858.331 707.119,858.498 709.2,858.663 711.28,858.829 713.361,858.993 715.441,859.157 717.521,859.321 719.602,859.484 721.682,859.646 723.763,859.808 725.843,859.969 727.924,860.13 730.004,860.29 732.085,860.449 734.165,860.608 736.246,860.766 738.326,860.924 740.406,861.081 742.487,861.237 744.567,861.393 746.648,861.548 748.728,861.703 750.809,861.857 752.889,862.01 754.97,862.163 757.05,862.315 759.13,862.466 761.211,862.617 763.291,862.767 765.372,862.916 767.452,863.065 769.533,863.213 771.613,863.36 773.694,863.506 775.774,863.652 777.855,863.798 779.935,863.942 782.015,864.086 784.096,864.229 786.176,864.372 788.257,864.514 790.337,864.655 792.418,864.795 794.498,864.935 796.579,865.074 798.659,865.212 800.74,865.35 802.82,865.486 804.9,865.622 806.981,865.758 809.061,865.892 811.142,866.026 813.222,866.159 815.303,866.292 817.383,866.423 819.464,866.554 821.544,866.684 823.624,866.814 825.705,866.942 827.785,867.07 829.866,867.197 831.946,867.324 834.027,867.449 836.107,867.574 838.188,867.698 840.268,867.821 842.349,867.944 844.429,868.065 846.509,868.186 848.59,868.306 850.67,868.426 852.751,868.544 854.831,868.662 856.912,868.779 858.992,868.895 861.073,869.01 863.153,869.125 865.233,869.238 867.314,869.351 869.394,869.463 871.475,869.574 873.555,869.685 875.636,869.795 877.716,869.903 879.797,870.011 881.877,870.118 883.958,870.225 886.038,870.33 888.118,870.435 890.199,870.539 892.279,870.642 894.36,870.744 896.44,870.845 898.521,870.946 900.601,871.046 902.682,871.144 904.762,871.242 906.843,871.339 908.923,871.436 911.003,871.531 913.084,871.626 915.164,871.72 917.245,871.812 919.325,871.904 921.406,871.996 923.486,872.086 925.567,872.175 927.647,872.264 929.727,872.352 931.808,872.439 933.888,872.525 935.969,872.61 938.049,872.694 940.13,872.778 942.21,872.86 944.291,872.942 946.371,873.023 948.452,873.103 950.532,873.182 952.612,873.26 954.693,873.337 956.773,873.414 958.854,873.489 960.934,873.564 963.015,873.638 965.095,873.711 967.176,873.783 969.256,873.854 971.336,873.925 973.417,873.994 975.497,874.063 977.578,874.13 979.658,874.197 981.739,874.263 983.819,874.328 985.9,874.392 987.98,874.456 990.061,874.518 992.141,874.58 994.221,874.64 996.302,874.7 998.382,874.759 1000.46,874.817 1002.54,874.874 1004.62,874.93 1006.7,874.986 1008.78,875.04 1010.87,875.094 1012.95,875.146 1015.03,875.198 1017.11,875.249 1019.19,875.299 1021.27,875.348 1023.35,875.397 1025.43,875.444 1027.51,875.491 1029.59,875.536 1031.67,875.581 1033.75,875.625 1035.83,875.668 1037.91,875.71 1039.99,875.751 1042.07,875.792 1044.15,875.831 1046.23,875.87 1048.31,875.907 1050.39,875.944 1052.47,875.98 1054.55,876.015 1056.63,876.049 1058.72,876.083 1060.8,876.115 1062.88,876.147 1064.96,876.178 1067.04,876.207 1069.12,876.236 1071.2,876.264 1073.28,876.292 1075.36,876.318 1077.44,876.344 1079.52,876.368 1081.6,876.392 1083.68,876.415 1085.76,876.437 1087.84,876.458 1089.92,876.479 1092,876.498 1094.08,876.517 1096.16,876.534 1098.24,876.551 1100.32,876.567 1102.4,876.583 1104.49,876.597 1106.57,876.61 1108.65,876.623 1110.73,876.635 1112.81,876.646 1114.89,876.656 1116.97,876.665 1119.05,876.674 1121.13,876.681 1123.21,876.688 1125.29,876.694 1127.37,876.699 1129.45,876.703 1131.53,876.707 1133.61,876.709 1135.69,876.711 1137.77,876.712 1139.85,876.712 1141.93,876.712 1144.01,876.71 1146.09,876.708 1148.17,876.705 1150.26,876.701 1152.34,876.696 1154.42,876.69 1156.5,876.684 1158.58,876.677 1160.66,876.669 1162.74,876.66 1164.82,876.65 1166.9,876.64 1168.98,876.629 1171.06,876.617 1173.14,876.604 1175.22,876.59 1177.3,876.576 1179.38,876.561 1181.46,876.545 1183.54,876.528 1185.62,876.511 1187.7,876.492 1189.78,876.473 1191.86,876.453 1193.94,876.433 1196.03,876.411 1198.11,876.389 1200.19,876.366 1202.27,876.343 1204.35,876.318 1206.43,876.293 1208.51,876.267 1210.59,876.241 1212.67,876.213 1214.75,876.185 1216.83,876.156 1218.91,876.126 1220.99,876.096 1223.07,876.065 1225.15,876.033 1227.23,876.001 1229.31,875.967 1231.39,875.933 1233.47,875.898 1235.55,875.863 1237.63,875.827 1239.71,875.79 1241.8,875.752 1243.88,875.714 1245.96,875.675 1248.04,875.635 1250.12,875.595 1252.2,875.554 1254.28,875.512 1256.36,875.469 1258.44,875.426 1260.52,875.382 1262.6,875.338 1264.68,875.293 1266.76,875.247 1268.84,875.2 1270.92,875.153 1273,875.105 1275.08,875.056 1277.16,875.007 1279.24,874.957 1281.32,874.907 1283.4,874.856 1285.48,874.804 1287.57,874.751 1289.65,874.698 1291.73,874.644 1293.81,874.59 1295.89,874.535 1297.97,874.48 1300.05,874.423 1302.13,874.366 1304.21,874.309 1306.29,874.251 1308.37,874.192 1310.45,874.133 1312.53,874.073 1314.61,874.013 1316.69,873.951 1318.77,873.89 1320.85,873.827 1322.93,873.765 1325.01,873.701 1327.09,873.637 1329.17,873.573 1331.25,873.507 1333.33,873.442 1335.42,873.375 1337.5,873.309 1339.58,873.241 1341.66,873.173 1343.74,873.105 1345.82,873.036 1347.9,872.966 1349.98,872.896 1352.06,872.825 1354.14,872.754 1356.22,872.682 1358.3,872.61 1360.38,872.537 1362.46,872.464 1364.54,872.39 1366.62,872.316 1368.7,872.241 1370.78,872.166 1372.86,872.09 1374.94,872.014 1377.02,871.937 1379.1,871.86 1381.19,871.782 1383.27,871.704 1385.35,871.625 1387.43,871.546 1389.51,871.466 1391.59,871.386 1393.67,871.305 1395.75,871.224 1397.83,871.143 1399.91,871.061 1401.99,870.979 1404.07,870.896 1406.15,870.812 1408.23,870.729 1410.31,870.645 1412.39,870.56 1414.47,870.475 1416.55,870.39 1418.63,870.304 1420.71,870.218 1422.79,870.131 1424.87,870.044 1426.96,869.957 1429.04,869.869 1431.12,869.781 1433.2,869.692 1435.28,869.603 1437.36,869.514 1439.44,869.424 1441.52,869.334 1443.6,869.244 1445.68,869.153 1447.76,869.062 1449.84,868.97 1451.92,868.878 1454,868.786 1456.08,868.693 1458.16,868.6 1460.24,868.507 1462.32,868.414 1464.4,868.32 1466.48,868.226 1468.56,868.131 1470.64,868.036 1472.73,867.941 1474.81,867.845 1476.89,867.75 1478.97,867.654 1481.05,867.557 1483.13,867.461 1485.21,867.364 1487.29,867.266 1489.37,867.169 1491.45,867.071 1493.53,866.973 1495.61,866.875 1497.69,866.776 1499.77,866.677 1501.85,866.578 1503.93,866.479 1506.01,866.379 1508.09,866.28 1510.17,866.179 1512.25,866.079 1514.33,865.979 1516.41,865.878 1518.5,865.777 1520.58,865.676 1522.66,865.574 1524.74,865.473 1526.82,865.371 1528.9,865.269 1530.98,865.167 1533.06,865.064 1535.14,864.961 1537.22,864.859 1539.3,864.756 1541.38,864.653 1543.46,864.549 1545.54,864.446 1547.62,864.342 1549.7,864.238 1551.78,864.134 1553.86,864.03 1555.94,863.926 1558.02,863.821 1560.1,863.717 1562.18,863.612 1564.27,863.507 1566.35,863.402 1568.43,863.297 1570.51,863.192 1572.59,863.086 1574.67,862.981 1576.75,862.875 1578.83,862.77 1580.91,862.664 1582.99,862.558 1585.07,862.452 1587.15,862.346 1589.23,862.24 1591.31,862.134 1593.39,862.027 1595.47,861.921 1597.55,861.815 1599.63,861.708 1601.71,861.602 1603.79,861.495 1605.87,861.388 1607.95,861.282 1610.03,861.175 1612.12,861.068 1614.2,860.961 1616.28,860.854 1618.36,860.747 1620.44,860.64 1622.52,860.533 1624.6,860.426 1626.68,860.319 1628.76,860.212 1630.84,860.105 1632.92,859.998 1635,859.891 1637.08,859.784 1639.16,859.677 1641.24,859.57 1643.32,859.463 1645.4,859.356 1647.48,859.249 1649.56,859.142 1651.64,859.035 1653.72,858.928 1655.8,858.822 1657.89,858.715 1659.97,858.608 1662.05,858.501 1664.13,858.395 1666.21,858.288 1668.29,858.181 1670.37,858.075 1672.45,857.969 1674.53,857.862 1676.61,857.756 1678.69,857.65 1680.77,857.544 1682.85,857.437 1684.93,857.331 1687.01,857.226 1689.09,857.12 1691.17,857.014 1693.25,856.909 1695.33,856.803 1697.41,856.698 1699.49,856.592 1701.57,856.487 1703.66,856.382 1705.74,856.277 1707.82,856.172 1709.9,856.068 1711.98,855.963 1714.06,855.859 1716.14,855.755 1718.22,855.65 1720.3,855.546 1722.38,855.443 1724.46,855.339 1726.54,855.235 1728.62,855.132 1730.7,855.029 1732.78,854.926 1734.86,854.823 1736.94,854.72 1739.02,854.618 1741.1,854.515 1743.18,854.413 1745.26,854.311 1747.34,854.209 1749.43,854.108 1751.51,854.006 1753.59,853.905 1755.67,853.804 1757.75,853.703 1759.83,853.603 1761.91,853.502 1763.99,853.402 1766.07,853.302 1768.15,853.202 1770.23,853.103 1772.31,853.003 1774.39,852.904 1776.47,852.805 1778.55,852.707 1780.63,852.608 1782.71,852.51 1784.79,852.412 1786.87,852.314 1788.95,852.217 1791.03,852.12 1793.11,852.023 1795.2,851.926 1797.28,851.83 1799.36,851.733 1801.44,851.637 1803.52,851.542 1805.6,851.446 1807.68,851.351 1809.76,851.256 1811.84,851.162 1813.92,851.068 1816,850.974 1818.08,850.88 1820.16,850.786 1822.24,850.693 1824.32,850.6 1826.4,850.508 1828.48,850.416 1830.56,850.324 1832.64,850.232 1834.72,850.141 1836.8,850.05 1838.88,849.959 1840.96,849.869 1843.05,849.779 1845.13,849.689 1847.21,849.599 1849.29,849.51 1851.37,849.422 1853.45,849.333 1855.53,849.245 1857.61,849.157 1859.69,849.07 1861.77,848.983 1863.85,848.896 1865.93,848.81 1868.01,848.723 1870.09,848.638 1872.17,848.552 1874.25,848.467 1876.33,848.383 1878.41,848.298 1880.49,848.214 1882.57,848.131 1884.65,848.048 1886.73,847.965 1888.82,847.882 1890.9,847.8 1892.98,847.719 1895.06,847.637 1897.14,847.556 1899.22,847.476 1901.3,847.395 1903.38,847.316 1905.46,847.236 1907.54,847.157 1909.62,847.078 1911.7,847 1913.78,846.922 1915.86,846.845 1917.94,846.768 1920.02,846.691 1922.1,846.615 1924.18,846.539 1926.26,846.463 1928.34,846.388 1930.42,846.313 1932.5,846.239 1934.59,846.165 1936.67,846.092 1938.75,846.019 1940.83,845.946 1942.91,845.874 1944.99,845.802 1947.07,845.731 1949.15,845.66 1951.23,845.589 1953.31,845.519 1955.39,845.449 1957.47,845.38 1959.55,845.311 1961.63,845.243 1963.71,845.175 1965.79,845.107 1967.87,845.04 1969.95,844.974 1972.03,844.907 1974.11,844.842 1976.19,844.776 1978.27,844.711 1980.36,844.647 1982.44,844.583 1984.52,844.519 1986.6,844.456 1988.68,844.394 1990.76,844.331 1992.84,844.269 1994.92,844.208 1997,844.147 1999.08,844.087 2001.16,844.027 2003.24,843.967 2005.32,843.908 2007.4,843.85 2009.48,843.791 2011.56,843.734 2013.64,843.677 2015.72,843.62 2017.8,843.563 2019.88,843.508 2021.96,843.452 2024.04,843.397 2026.13,843.343 2028.21,843.289 2030.29,843.235 2032.37,843.182 2034.45,843.13 2036.53,843.078 2038.61,843.026 2040.69,842.975 2042.77,842.924 2044.85,842.874 2046.93,842.824 2049.01,842.775 2051.09,842.726 2053.17,842.678 2055.25,842.63 2057.33,842.582 2059.41,842.535 2061.49,842.489 2063.57,842.443 2065.65,842.397 2067.73,842.352 2069.81,842.308 2071.9,842.264 2073.98,842.22 2076.06,842.177 2078.14,842.135 2080.22,842.093 2082.3,842.051 2084.38,842.01 2086.46,841.969 2088.54,841.929 2090.62,841.889 2092.7,841.85 2094.78,841.811 2096.86,841.773 2098.94,841.735 2101.02,841.698 2103.1,841.661 2105.18,841.625 2107.26,841.589 2109.34,841.554 2111.42,841.519 2113.5,841.485 2115.58,841.451 2117.66,841.418 2119.75,841.385 2121.83,841.353 2123.91,841.321 2125.99,841.289 2128.07,841.258 2130.15,841.228 2132.23,841.198 2134.31,841.169 2136.39,841.14 2138.47,841.111 2140.55,841.083 2142.63,841.056 2144.71,841.029 2146.79,841.002 2148.87,840.976 2150.95,840.951 2153.03,840.926 2155.11,840.901 2157.19,840.877 2159.27,840.853 2161.35,840.83 2163.43,840.808 2165.52,840.786 2167.6,840.764 2169.68,840.743 2171.76,840.722 2173.84,840.702 2175.92,840.682 2178,840.663 2180.08,840.645 2182.16,840.626 2184.24,840.609 2186.32,840.591 2188.4,840.575 2190.48,840.558 2192.56,840.542 2194.64,840.527 2196.72,840.512 2198.8,840.498 2200.88,840.484 2202.96,840.471 2205.04,840.458 2207.12,840.445 2209.2,840.433 2211.29,840.422 2213.37,840.411 2215.45,840.4 2217.53,840.39 2219.61,840.381 2221.69,840.372 2223.77,840.363 2225.85,840.355 2227.93,840.347 2230.01,840.34 2232.09,840.333 2234.17,840.327 2236.25,840.321 2238.33,840.316 2240.41,840.311 2242.49,840.306 2244.57,840.302 2246.65,840.299 2248.73,840.296 2250.81,840.293 2252.89,840.291 2254.97,840.289 2257.06,840.288 2259.14,840.287 2261.22,840.287 2263.3,840.287 2265.38,840.288 2267.46,840.289 2269.54,840.291 2271.62,840.293 2273.7,840.295 2275.78,840.298 2277.86,840.301 2279.94,840.305 2282.02,840.309 2284.1,840.314 2286.18,840.319 2288.26,840.325 2290.34,840.33 "></polyline>
<polyline clip-path="url(#clip452)" style="stroke:#3da44d; stroke-linecap:round; stroke-linejoin:round; stroke-width:4; stroke-opacity:1; fill:none" points="209.891,876.998 211.972,876.914 214.052,876.586 216.133,876.121 218.213,875.451 220.294,874.625 222.374,873.961 224.455,873.177 226.535,872.077 228.615,870.901 230.696,869.584 232.776,867.944 234.857,865.969 236.937,863.609 239.018,861.062 241.098,858.435 243.179,855.582 245.259,852.524 247.34,849.361 249.42,846.086 251.5,842.573 253.581,838.574 255.661,833.967 257.742,828.983 259.822,823.815 261.903,818.481 263.983,812.876 266.064,806.95 268.144,800.816 270.225,794.43 272.305,787.685 274.385,780.683 276.466,773.558 278.546,766.53 280.627,759.699 282.707,752.806 284.788,745.639 286.868,738.178 288.949,730.552 291.029,722.708 293.109,714.5 295.19,705.947 297.27,697.092 299.351,687.964 301.431,678.889 303.512,670.188 305.592,661.79 307.673,653.642 309.753,645.779 311.834,638.335 313.914,631.396 315.994,624.963 318.075,619.079 320.155,613.654 322.236,608.394 324.316,603.204 326.397,598.254 328.477,593.754 330.558,589.77 332.638,586.172 334.718,582.773 336.799,579.308 338.879,575.636 340.96,571.904 343.04,568.223 345.121,564.859 347.201,562.042 349.282,559.924 351.362,558.357 353.443,557.328 355.523,556.701 357.603,556.026 359.684,555.161 361.764,554.162 363.845,553.367 365.925,552.784 368.006,552.273 370.086,552.108 372.167,552.104 374.247,552.082 376.328,552.11 378.408,552.157 380.488,552.347 382.569,552.583 384.649,553.18 386.73,554.251 388.81,555.438 390.891,556.841 392.971,558.586 395.052,560.634 397.132,562.967 399.212,565.587 401.293,568.697 403.373,572.105 405.454,575.785 407.534,579.809 409.615,583.781 411.695,587.505 413.776,590.893 415.856,593.999 417.937,596.823 420.017,599.478 422.097,601.943 424.178,604.016 426.258,605.63 428.339,606.706 430.419,607.19 432.5,607.039 434.58,606.285 436.661,605.023 438.741,603.2 440.821,601.086 442.902,598.668 444.982,595.71 447.063,592.374 449.143,588.656 451.224,584.675 453.304,580.362 455.385,575.53 457.465,570.03 459.546,564.008 461.626,557.664 463.706,551.278 465.787,544.763 467.867,537.957 469.948,531.157 472.028,524.517 474.109,518.132 476.189,511.875 478.27,505.733 480.35,499.591 482.431,493.339 484.511,487.005 486.591,480.686 488.672,474.63 490.752,469.2 492.833,464.413 494.913,460.01 496.994,456.007 499.074,452.58 501.155,449.688 503.235,447.164 505.315,445.085 507.396,443.401 509.476,442.112 511.557,441.615 513.637,441.83 515.718,442.766 517.798,444.148 519.879,445.644 521.959,447.187 524.04,448.541 526.12,449.813 528.2,451.312 530.281,453.023 532.361,455.045 534.442,457.705 536.522,460.682 538.603,463.709 540.683,466.651 542.764,469.58 544.844,472.505 546.924,475.296 549.005,478.088 551.085,481.004 553.166,483.84 555.246,486.479 557.327,489.22 559.407,492.098 561.488,495.275 563.568,498.925 565.649,503.003 567.729,507.015 569.809,510.809 571.89,514.579 573.97,518.359 576.051,521.923 578.131,525.374 580.212,528.863 582.292,531.991 584.373,534.651 586.453,536.989 588.534,538.911 590.614,540.379 592.694,541.554 594.775,542.616 596.855,543.428 598.936,543.861 601.016,544.008 603.097,543.903 605.177,543.537 607.258,542.767 609.338,541.803 611.418,540.617 613.499,539.106 615.579,537.311 617.66,535.346 619.74,533.259 621.821,530.854 623.901,528.328 625.982,526.047 628.062,524.14 630.143,522.493 632.223,520.892 634.303,519.017 636.384,516.79 638.464,514.288 640.545,511.466 642.625,508.364 644.706,505.158 646.786,501.857 648.867,498.379 650.947,494.452 653.027,490.064 655.108,485.326 657.188,480.333 659.269,475.312 661.349,470.13 663.43,464.871 665.51,459.788 667.591,455.028 669.671,450.504 671.752,445.962 673.832,441.27 675.912,436.527 677.993,431.796 680.073,426.991 682.154,421.905 684.234,416.713 686.315,411.52 688.395,406.407 690.476,401.416 692.556,396.381 694.637,391.365 696.717,386.576 698.797,382.075 700.878,377.964 702.958,374.197 705.039,370.555 707.119,367.063 709.2,363.673 711.28,360.449 713.361,357.558 715.441,355.14 717.521,353.194 719.602,351.52 721.682,349.97 723.763,348.594 725.843,347.362 727.924,346.215 730.004,345.334 732.085,344.771 734.165,344.556 736.246,344.923 738.326,345.904 740.406,347.747 742.487,350.702 744.567,354.482 746.648,359.101 748.728,364.666 750.809,371.098 752.889,378.218 754.97,385.67 757.05,393.42 759.13,401.458 761.211,409.533 763.291,417.211 765.372,424.529 767.452,431.656 769.533,438.554 771.613,445.135 773.694,451.208 775.774,456.971 777.855,462.674 779.935,468.206 782.015,473.376 784.096,478 786.176,482.011 788.257,485.4 790.337,488.502 792.418,491.599 794.498,494.443 796.579,497.206 798.659,499.935 800.74,502.301 802.82,504.434 804.9,506.356 806.981,508.195 809.061,510.096 811.142,512.228 813.222,514.397 815.303,516.441 817.383,518.278 819.464,519.833 821.544,521.154 823.624,522.231 825.705,523.148 827.785,523.959 829.866,524.54 831.946,524.681 834.027,524.575 836.107,524.262 838.188,523.879 840.268,523.294 842.349,522.382 844.429,520.997 846.509,519.449 848.59,518.004 850.67,516.753 852.751,515.751 854.831,514.915 856.912,514.195 858.992,513.333 861.073,512.588 863.153,511.945 865.233,511.752 867.314,511.757 869.394,511.775 871.475,511.875 873.555,512.004 875.636,512.557 877.716,513.737 879.797,515.462 881.877,517.579 883.958,520.067 886.038,522.898 888.118,526.172 890.199,529.826 892.279,534.008 894.36,538.728 896.44,544.029 898.521,550.036 900.601,556.502 902.682,563.192 904.762,570.034 906.843,576.926 908.923,583.86 911.003,590.746 913.084,597.321 915.164,603.608 917.245,609.802 919.325,616.057 921.406,622.253 923.486,628.174 925.567,633.79 927.647,639.112 929.727,644.28 931.808,649.458 933.888,654.641 935.969,659.794 938.049,664.686 940.13,669.08 942.21,673.103 944.291,676.804 946.371,680.137 948.452,683.155 950.532,685.916 952.612,688.538 954.693,691.252 956.773,694.009 958.854,696.855 960.934,700.038 963.015,703.42 965.095,706.683 967.176,709.488 969.256,712.01 971.336,714.197 973.417,715.756 975.497,716.848 977.578,717.556 979.658,717.935 981.739,717.939 983.819,718.03 985.9,718.23 987.98,718.327 990.061,718.559 992.141,718.903 994.221,719.149 996.302,719.208 998.382,719.464 1000.46,719.996 1002.54,720.875 1004.62,721.964 1006.7,723.229 1008.78,724.654 1010.87,726.092 1012.95,727.824 1015.03,729.755 1017.11,731.799 1019.19,733.762 1021.27,735.655 1023.35,737.468 1025.43,738.811 1027.51,739.818 1029.59,740.802 1031.67,741.732 1033.75,742.483 1035.83,742.87 1037.91,743.016 1039.99,743.094 1042.07,743.011 1044.15,742.521 1046.23,741.924 1048.31,741.517 1050.39,741.023 1052.47,740.561 1054.55,740.183 1056.63,739.661 1058.72,738.828 1060.8,737.605 1062.88,736.005 1064.96,734.132 1067.04,732.182 1069.12,730.289 1071.2,728.338 1073.28,726.222 1075.36,723.95 1077.44,721.618 1079.52,719.164 1081.6,716.531 1083.68,713.811 1085.76,711.147 1087.84,708.929 1089.92,707.296 1092,706.249 1094.08,705.781 1096.16,705.838 1098.24,706.133 1100.32,706.772 1102.4,707.439 1104.49,707.834 1106.57,707.838 1108.65,707.539 1110.73,707.121 1112.81,706.654 1114.89,706.428 1116.97,706.311 1119.05,706.296 1121.13,706.125 1123.21,705.966 1125.29,706.025 1127.37,706.2 1129.45,706.506 1131.53,707.191 1133.61,708.487 1135.69,710.331 1137.77,712.504 1139.85,714.88 1141.93,717.467 1144.01,720.091 1146.09,722.839 1148.17,725.688 1150.26,728.633 1152.34,731.66 1154.42,734.735 1156.5,737.801 1158.58,740.893 1160.66,744.107 1162.74,747.4 1164.82,750.659 1166.9,754.15 1168.98,758.117 1171.06,762.344 1173.14,766.516 1175.22,770.536 1177.3,774.593 1179.38,778.845 1181.46,783.305 1183.54,787.916 1185.62,792.521 1187.7,797.005 1189.78,801.298 1191.86,805.387 1193.94,809.435 1196.03,813.67 1198.11,818.039 1200.19,822.393 1202.27,826.818 1204.35,831.157 1206.43,835.192 1208.51,838.752 1210.59,841.851 1212.67,844.32 1214.75,846.241 1216.83,848.076 1218.91,849.906 1220.99,851.612 1223.07,853.299 1225.15,855.132 1227.23,856.992 1229.31,858.716 1231.39,860.207 1233.47,861.358 1235.55,862.219 1237.63,863.11 1239.71,863.975 1241.8,864.728 1243.88,865.286 1245.96,865.727 1248.04,866.351 1250.12,867.352 1252.2,868.78 1254.28,870.661 1256.36,872.955 1258.44,875.384 1260.52,877.804 1262.6,880.176 1264.68,882.564 1266.76,884.952 1268.84,887.19 1270.92,889.534 1273,892.168 1275.08,895.138 1277.16,898.509 1279.24,902.153 1281.32,905.95 1283.4,909.458 1285.48,912.588 1287.57,915.466 1289.65,917.971 1291.73,920.149 1293.81,922.006 1295.89,923.641 1297.97,925.078 1300.05,926.197 1302.13,926.978 1304.21,927.595 1306.29,928.087 1308.37,928.601 1310.45,929.208 1312.53,929.774 1314.61,930.308 1316.69,930.835 1318.77,931.356 1320.85,931.915 1322.93,932.292 1325.01,932.301 1327.09,932.235 1329.17,932.015 1331.25,931.524 1333.33,930.958 1335.42,930.272 1337.5,929.42 1339.58,928.498 1341.66,927.345 1343.74,926.018 1345.82,924.725 1347.9,923.603 1349.98,922.717 1352.06,921.941 1354.14,921.393 1356.22,921.197 1358.3,921.245 1360.38,921.513 1362.46,922.088 1364.54,923.172 1366.62,924.448 1368.7,925.404 1370.78,926.09 1372.86,926.7 1374.94,927.43 1377.02,928.541 1379.1,929.911 1381.19,931.307 1383.27,932.476 1385.35,933.414 1387.43,934.082 1389.51,934.375 1391.59,934.381 1393.67,934.141 1395.75,933.874 1397.83,933.679 1399.91,933.713 1401.99,934.052 1404.07,934.708 1406.15,935.631 1408.23,936.996 1410.31,938.842 1412.39,941.027 1414.47,943.368 1416.55,945.967 1418.63,949.011 1420.71,952.235 1422.79,955.512 1424.87,958.819 1426.96,962.206 1429.04,965.555 1431.12,969.002 1433.2,972.799 1435.28,976.884 1437.36,981.061 1439.44,985.129 1441.52,988.977 1443.6,992.619 1445.68,996.038 1447.76,999.007 1449.84,1001.66 1451.92,1004.04 1454,1006.1 1456.08,1007.64 1458.16,1008.64 1460.24,1009.32 1462.32,1009.42 1464.4,1008.78 1466.48,1007.7 1468.56,1006.42 1470.64,1004.99 1472.73,1003.56 1474.81,1002.1 1476.89,1000.74 1478.97,999.45 1481.05,997.982 1483.13,996.555 1485.21,995.062 1487.29,993.292 1489.37,991.381 1491.45,989.392 1493.53,987.318 1495.61,985.16 1497.69,982.849 1499.77,980.632 1501.85,978.762 1503.93,977.495 1506.01,976.876 1508.09,976.632 1510.17,976.632 1512.25,976.808 1514.33,977.368 1516.41,978.315 1518.5,979.43 1520.58,980.385 1522.66,980.975 1524.74,981.475 1526.82,982.297 1528.9,983.595 1530.98,985.098 1533.06,986.605 1535.14,988.268 1537.22,990.239 1539.3,992.416 1541.38,994.753 1543.46,997.014 1545.54,999.321 1547.62,1001.8 1549.7,1004.08 1551.78,1006.12 1553.86,1008 1555.94,1009.99 1558.02,1012.35 1560.1,1015.04 1562.18,1017.82 1564.27,1020.68 1566.35,1023.62 1568.43,1026.67 1570.51,1029.75 1572.59,1032.7 1574.67,1035.84 1576.75,1039.08 1578.83,1042.2 1580.91,1045.02 1582.99,1047.49 1585.07,1049.79 1587.15,1052.02 1589.23,1054.31 1591.31,1056.69 1593.39,1059.28 1595.47,1062.09 1597.55,1064.94 1599.63,1067.66 1601.71,1070.19 1603.79,1072.43 1605.87,1074.19 1607.95,1075.53 1610.03,1076.72 1612.12,1078.05 1614.2,1079.5 1616.28,1081.06 1618.36,1082.67 1620.44,1084.35 1622.52,1085.86 1624.6,1087.16 1626.68,1088.25 1628.76,1088.97 1630.84,1089.45 1632.92,1089.44 1635,1089.01 1637.08,1088.2 1639.16,1087.05 1641.24,1085.7 1643.32,1084.11 1645.4,1082.47 1647.48,1080.99 1649.56,1079.56 1651.64,1078.12 1653.72,1076.69 1655.8,1075.19 1657.89,1073.71 1659.97,1072.5 1662.05,1071.72 1664.13,1071.39 1666.21,1071.31 1668.29,1071.26 1670.37,1071.34 1672.45,1071.53 1674.53,1071.63 1676.61,1071.39 1678.69,1070.79 1680.77,1069.87 1682.85,1068.66 1684.93,1067.28 1687.01,1065.75 1689.09,1064.12 1691.17,1062.51 1693.25,1060.79 1695.33,1059.19 1697.41,1057.92 1699.49,1057.11 1701.57,1057.05 1703.66,1057.68 1705.74,1059.09 1707.82,1061.06 1709.9,1063.09 1711.98,1065.02 1714.06,1066.91 1716.14,1068.98 1718.22,1071.34 1720.3,1074.27 1722.38,1077.82 1724.46,1081.86 1726.54,1086.15 1728.62,1090.91 1730.7,1096.31 1732.78,1101.98 1734.86,1107.92 1736.94,1113.87 1739.02,1119.67 1741.1,1125.29 1743.18,1130.75 1745.26,1136.04 1747.34,1140.86 1749.43,1145.16 1751.51,1149.07 1753.59,1152.55 1755.67,1155.64 1757.75,1158.18 1759.83,1159.97 1761.91,1160.96 1763.99,1161.29 1766.07,1161.32 1768.15,1161.25 1770.23,1161.01 1772.31,1160.39 1774.39,1159.35 1776.47,1157.72 1778.55,1155.67 1780.63,1153.19 1782.71,1150.29 1784.79,1147.12 1786.87,1143.45 1788.95,1139.41 1791.03,1135.26 1793.11,1131.09 1795.2,1127 1797.28,1123.34 1799.36,1120.19 1801.44,1117.12 1803.52,1114.08 1805.6,1111.33 1807.68,1108.65 1809.76,1106.03 1811.84,1103.38 1813.92,1100.43 1816,1097.29 1818.08,1093.92 1820.16,1090.18 1822.24,1086.32 1824.32,1082.4 1826.4,1078.41 1828.48,1074.59 1830.56,1070.87 1832.64,1067.27 1834.72,1063.99 1836.8,1061.03 1838.88,1058.21 1840.96,1055.44 1843.05,1052.67 1845.13,1049.99 1847.21,1047.42 1849.29,1044.95 1851.37,1042.58 1853.45,1040.27 1855.53,1037.95 1857.61,1035.67 1859.69,1033.46 1861.77,1031.32 1863.85,1029.2 1865.93,1027.2 1868.01,1025.46 1870.09,1023.87 1872.17,1022.18 1874.25,1020.15 1876.33,1018.06 1878.41,1016.17 1880.49,1014.72 1882.57,1013.96 1884.65,1013.82 1886.73,1014.17 1888.82,1014.73 1890.9,1015.28 1892.98,1015.94 1895.06,1016.81 1897.14,1017.71 1899.22,1018.66 1901.3,1019.6 1903.38,1020.48 1905.46,1021.26 1907.54,1021.77 1909.62,1022.12 1911.7,1022.33 1913.78,1022.5 1915.86,1022.58 1917.94,1022.37 1920.02,1021.8 1922.1,1021.08 1924.18,1020.36 1926.26,1019.62 1928.34,1018.54 1930.42,1016.94 1932.5,1015.19 1934.59,1013.46 1936.67,1011.6 1938.75,1009.42 1940.83,1007.01 1942.91,1004.67 1944.99,1002.29 1947.07,999.891 1949.15,997.667 1951.23,995.584 1953.31,993.733 1955.39,992.216 1957.47,990.9 1959.55,989.7 1961.63,988.621 1963.71,987.776 1965.79,987.078 1967.87,986.698 1969.95,986.592 1972.03,986.441 1974.11,986.538 1976.19,987.187 1978.27,988.499 1980.36,990.383 1982.44,992.62 1984.52,995.16 1986.6,998.019 1988.68,1001.03 1990.76,1004.16 1992.84,1007.53 1994.92,1011.14 1997,1014.85 1999.08,1018.63 2001.16,1022.58 2003.24,1026.92 2005.32,1031.71 2007.4,1036.71 2009.48,1041.76 2011.56,1046.84 2013.64,1051.85 2015.72,1056.53 2017.8,1060.67 2019.88,1064.17 2021.96,1067.08 2024.04,1069.63 2026.13,1071.68 2028.21,1073.31 2030.29,1075.02 2032.37,1076.96 2034.45,1078.83 2036.53,1080.84 2038.61,1083.22 2040.69,1085.93 2042.77,1089.09 2044.85,1092.5 2046.93,1096.04 2049.01,1099.49 2051.09,1102.62 2053.17,1105.45 2055.25,1108.03 2057.33,1110.56 2059.41,1113.31 2061.49,1116.28 2063.57,1119.11 2065.65,1122.05 2067.73,1125.13 2069.81,1128.4 2071.9,1131.71 2073.98,1135.08 2076.06,1138.49 2078.14,1141.86 2080.22,1145.43 2082.3,1149.09 2084.38,1152.79 2086.46,1156.45 2088.54,1160.05 2090.62,1163.57 2092.7,1167.06 2094.78,1170.12 2096.86,1172.65 2098.94,1174.85 2101.02,1176.78 2103.1,1178.55 2105.18,1179.9 2107.26,1180.65 2109.34,1180.96 2111.42,1181.21 2113.5,1181.34 2115.58,1181.17 2117.66,1180.74 2119.75,1180.11 2121.83,1179.51 2123.91,1178.98 2125.99,1178.36 2128.07,1177.76 2130.15,1177.36 2132.23,1177.27 2134.31,1177.42 2136.39,1177.5 2138.47,1177.25 2140.55,1176.82 2142.63,1176.28 2144.71,1175.28 2146.79,1173.7 2148.87,1171.76 2150.95,1169.6 2153.03,1167.25 2155.11,1164.6 2157.19,1161.38 2159.27,1157.54 2161.35,1152.76 2163.43,1147.27 2165.52,1141.47 2167.6,1135.39 2169.68,1128.91 2171.76,1121.88 2173.84,1114.4 2175.92,1106.65 2178,1098.69 2180.08,1090.24 2182.16,1081.29 2184.24,1071.98 2186.32,1062.38 2188.4,1052.51 2190.48,1042.39 2192.56,1032.18 2194.64,1022.06 2196.72,1012.09 2198.8,1002.04 2200.88,991.76 2202.96,981.368 2205.04,971.304 2207.12,961.513 2209.2,952.092 2211.29,943.086 2213.37,934.461 2215.45,926.304 2217.53,918.613 2219.61,911.067 2221.69,903.525 2223.77,896.082 2225.85,888.943 2227.93,882.413 2230.01,876.63 2232.09,871.59 2234.17,867.4 2236.25,863.933 2238.33,861.042 2240.41,858.646 2242.49,856.582 2244.57,854.808 2246.65,853.399 2248.73,852.339 2250.81,851.667 2252.89,851.472 2254.97,851.767 2257.06,852.562 2259.14,853.849 2261.22,855.397 2263.3,857.387 2265.38,859.827 2267.46,862.653 2269.54,865.637 2271.62,868.323 2273.7,870.871 2275.78,873.251 2277.86,875.424 2279.94,877.487 2282.02,879.481 2284.1,881.583 2286.18,883.698 2288.26,885.588 2290.34,887.203 "></polyline>
<polyline clip-path="url(#clip452)" style="stroke:#c271d2; stroke-linecap:round; stroke-linejoin:round; stroke-width:4; stroke-opacity:1; fill:none" points="209.891,815.987 211.972,800.92 214.052,787.677 216.133,777.865 218.213,760.332 220.294,763.421 222.374,769.896 224.455,748.256 226.535,734.503 228.615,731.416 230.696,713.782 232.776,689.931 234.857,664.033 236.937,641.65 239.018,635.934 241.098,625.872 243.179,608.104 245.259,597.948 247.34,591.892 249.42,581.161 251.5,556.631 253.581,514.162 255.661,477.461 257.742,460.062 259.822,450.024 261.903,435.486 263.983,412.221 266.064,393.6 268.144,380.528 270.225,356.217 272.305,333.878 274.385,321.345 276.466,318.083 278.546,333.4 280.627,339.699 282.707,327.205 284.788,303.554 286.868,287.935 288.949,278.193 291.029,255.534 293.109,229.012 295.19,208.006 297.27,186.114 299.351,174.164 301.431,195.078 303.512,220.104 305.592,237.912 307.673,254.963 309.753,279.167 311.834,313.139 313.914,348.808 315.994,384.812 318.075,424.519 320.155,445.684 322.236,450.076 324.316,459.37 326.397,484.163 328.477,519.164 330.558,553.243 332.638,574.117 334.718,580.187 336.799,564.929 338.879,556.142 340.96,554.267 343.04,567.109 345.121,597.116 347.201,644.995 349.282,688.26 351.362,724.863 353.443,762.287 355.523,774.514 357.603,762.538 359.684,747.919 361.764,750.478 363.845,770.211 365.925,776.218 368.006,791.18 370.086,813.603 372.167,815.177 374.247,816.095 376.328,817.786 378.408,824.377 380.488,829.989 382.569,840.922 384.649,876.889 386.73,896.999 388.81,904.077 390.891,925.62 392.971,948.987 395.052,969.522 397.132,987.228 399.212,1016.09 401.293,1045.75 403.373,1061.87 405.454,1087.18 407.534,1099.97 409.615,1086.13 411.695,1064.24 413.776,1042.88 415.856,1022.55 417.937,1006.3 420.017,996.79 422.097,976.401 424.178,945.187 426.258,910.985 428.339,870.965 430.419,828.167 432.5,783.2 434.58,745.438 436.661,706.949 438.741,676.342 440.821,660.497 442.902,628.507 444.982,594.574 447.063,569.147 449.143,546.32 451.224,527.895 453.304,499.362 455.385,454.614 457.465,411.454 459.546,381 461.626,368.647 463.706,369.778 465.787,348.89 467.867,336.326 469.948,345.323 472.028,361.589 474.109,375.302 476.189,382.937 478.27,389.061 480.35,383.426 482.431,375.034 484.511,372.617 486.591,378.179 488.672,411.669 490.752,461.977 492.833,497.15 494.913,520.051 496.994,555.02 499.074,597.221 501.155,627.604 503.235,654.183 505.315,686.369 507.396,708.506 509.476,751.712 511.557,806.919 513.637,857.335 515.718,901.59 517.798,917.845 519.879,923.457 521.959,919.378 524.04,904.046 526.12,911.034 528.2,928.733 530.281,942.742 532.361,980.458 534.442,1017.35 536.522,1028.43 538.603,1024.65 540.683,1019.82 542.764,1022.1 544.844,1016.04 546.924,1008.31 549.005,1015.96 551.085,1020.22 553.166,1005.06 555.246,1001.78 557.327,1011.71 559.407,1025.06 561.488,1052.35 563.568,1089.81 565.649,1104.01 567.729,1087.53 569.809,1077.82 571.89,1082.08 573.97,1073.85 576.051,1057.88 578.131,1060.61 580.212,1052.08 582.292,1015.95 584.373,990.641 586.453,966.533 588.534,933.327 590.614,905.617 592.694,893.98 594.775,883.996 596.855,859.471 598.936,835.149 601.016,816.828 603.097,801.204 605.177,775.981 607.258,753.417 609.338,742.473 611.418,722.084 613.499,699.325 615.579,682.492 617.66,676.685 619.74,659.588 621.821,639.081 623.901,644.55 625.982,670.348 628.062,693.372 630.143,706.083 632.223,697.49 634.303,671.821 636.384,650.743 638.464,630.522 640.545,607.012 642.625,594.714 644.706,588.74 646.786,582.173 648.867,559.621 650.947,523.695 653.027,496.457 655.108,472.613 657.188,465.613 659.269,461.219 661.349,448.448 663.43,451.877 665.51,471.657 667.591,493.908 669.671,502.705 671.752,492.598 673.832,485.404 675.912,484.22 677.993,486.324 680.073,469.817 682.154,454.675 684.234,452.306 686.315,455.016 688.395,464.094 690.476,467.174 692.556,462.189 694.637,472.325 696.717,489.914 698.797,514.574 700.878,543.858 702.958,558.24 705.039,566.407 707.119,575.837 709.2,583.452 711.28,599.851 713.361,629.508 715.441,665.011 717.521,692.358 719.602,703.642 721.682,712.783 723.763,726.295 725.843,731.689 727.924,743.293 730.004,765.895 732.085,786.628 734.165,819.72 736.246,862.214 738.326,910.27 740.406,984.555 742.487,1054.16 744.567,1107.3 746.648,1171.83 748.728,1236.67 750.809,1293.4 752.889,1326.96 754.97,1346.66 757.05,1368.36 759.13,1384.24 761.211,1369.01 763.291,1337.45 765.372,1319.94 767.452,1307.44 769.533,1287.85 771.613,1258.92 773.694,1225.3 775.774,1215.67 777.855,1210.94 779.935,1192.89 782.015,1159.21 784.096,1119.09 786.176,1072.56 788.257,1035.6 790.337,1035.59 792.418,1024.21 794.498,1008.33 796.579,1010.62 798.659,996.699 800.74,970.208 802.82,957.243 804.9,945.717 806.981,944.209 809.061,957.075 811.142,969.154 813.222,964.185 815.303,952.764 817.383,934.337 819.464,916.135 821.544,899.675 823.624,884.338 825.705,876.603 827.785,867.565 829.866,840.995 831.946,815.959 834.027,800.168 836.107,791.493 838.188,783.793 840.268,766.515 842.349,735.072 844.429,708.509 846.509,709.815 848.59,720.824 850.67,737.595 852.751,752.274 854.831,764.593 856.912,760.09 858.992,758.361 861.073,765.423 863.153,785.326 865.233,813.632 867.314,816.463 869.394,820.601 871.475,822.298 873.555,834.72 875.636,876.719 877.716,919.424 879.797,950.72 881.877,977.688 883.958,1000.97 886.038,1029.46 888.118,1057.57 890.199,1088.18 892.279,1127.78 894.36,1164.35 896.44,1211.48 898.521,1255.84 900.601,1276.67 902.682,1289.63 904.762,1296.81 906.843,1298.58 908.923,1302.26 911.003,1288.56 913.084,1262.91 915.164,1249.54 917.245,1250.61 919.325,1254.11 921.406,1240.28 923.486,1218.84 925.567,1197.92 927.647,1179.76 929.727,1177.07 931.808,1177.22 933.888,1178.97 935.969,1171.55 938.049,1141.02 940.13,1107.59 942.21,1086.78 944.291,1061.44 946.371,1036.83 948.452,1017.85 950.532,1001.38 952.612,1000.87 954.693,1008.68 956.773,1007.56 958.854,1026.9 960.934,1048.14 963.015,1052.7 965.095,1028.77 967.176,999.849 969.256,984.086 971.336,947.323 973.417,906.569 975.497,877.716 977.578,854.979 979.658,826.598 981.739,814.738 983.819,829.332 985.9,825.962 987.98,825.015 990.061,838.157 992.141,839.325 994.221,824.155 996.302,823.712 998.382,842.879 1000.46,866.18 1002.54,885.757 1004.62,897.696 1006.7,912.279 1008.78,914.433 1010.87,925.22 1012.95,945.551 1015.03,956.477 1017.11,957.451 1019.19,949.632 1021.27,948.186 1023.35,928.654 1025.43,893.843 1027.51,883.953 1029.59,884.149 1031.67,876.841 1033.75,856.487 1035.83,832.03 1037.91,822.916 1039.99,819.049 1042.07,796.133 1044.15,772.525 1046.23,781.561 1048.31,786.408 1050.39,779.73 1052.47,788.907 1054.55,786.883 1056.63,769.953 1058.72,744.468 1060.8,716.754 1062.88,693.108 1064.96,679.806 1067.04,682.29 1069.12,683.961 1071.2,673.875 1073.28,661.975 1075.36,654.526 1077.44,650.526 1079.52,637.338 1081.6,627.867 1083.68,624.196 1085.76,641.384 1087.84,681.969 1089.92,721.922 1092,763.001 1094.08,804.638 1096.16,829.137 1098.24,849.105 1100.32,866.264 1102.4,855.288 1104.49,830.237 1106.57,803.503 1108.65,789.812 1110.73,782.521 1112.81,790.722 1114.89,805.014 1116.97,813.24 1119.05,810.313 1121.13,801.019 1123.21,812.012 1125.29,825.904 1127.37,830.469 1129.45,847.228 1131.53,884.392 1133.61,927.705 1135.69,958.89 1137.77,975.017 1139.85,991.136 1141.93,997.724 1144.01,1003.01 1146.09,1011.94 1148.17,1018.35 1150.26,1025 1152.34,1029.72 1154.42,1031.26 1156.5,1030.45 1158.58,1035.16 1160.66,1044.83 1162.74,1044.51 1164.82,1047.31 1166.9,1076.43 1168.98,1106.57 1171.06,1112.02 1173.14,1101.32 1175.22,1095.08 1177.3,1105.62 1179.38,1120.59 1181.46,1134.58 1183.54,1139.63 1185.62,1134.42 1187.7,1123.44 1189.78,1107.86 1191.86,1097.28 1193.94,1103.94 1196.03,1120.08 1198.11,1119.22 1200.19,1123.15 1202.27,1124.59 1204.35,1112.01 1206.43,1081.29 1208.51,1049.75 1210.59,1012.13 1212.67,964.711 1214.75,943.271 1216.83,945.322 1218.91,940.093 1220.99,931.864 1223.07,938.829 1225.15,947.596 1227.23,942.173 1229.31,929.69 1231.39,909.143 1233.47,883.211 1235.55,875.303 1237.63,878.889 1239.71,873.421 1241.8,862.328 1243.88,848.302 1245.96,849.759 1248.04,871.655 1250.12,900.586 1252.2,930.991 1254.28,964.121 1256.36,984.114 1258.44,986.301 1260.52,983.132 1262.6,981.319 1264.68,984.53 1266.76,977.377 1268.84,972.189 1270.92,989.245 1273,1010.6 1275.08,1037.74 1277.16,1062.28 1279.24,1080.16 1281.32,1075.29 1283.4,1045.96 1285.48,1026.06 1287.57,1004.86 1289.65,979.148 1291.73,956.695 1293.81,936.613 1295.89,924.234 1297.97,906.811 1300.05,880.709 1302.13,863.705 1304.21,853.887 1306.29,849.171 1308.37,856.054 1310.45,857.939 1312.53,853.72 1314.61,853.201 1316.69,852.005 1318.77,854.396 1320.85,852.467 1322.93,828.31 1325.01,811.675 1327.09,808.736 1329.17,789.279 1331.25,778.172 1333.33,773.696 1335.42,761.402 1337.5,754.392 1339.58,744.874 1341.66,727.441 1343.74,722.056 1345.82,729.701 1347.9,746.639 1349.98,758.791 1352.06,767.149 1354.14,791.012 1356.22,811.56 1358.3,826.837 1360.38,843.068 1362.46,873.995 1364.54,905.198 1366.62,896.821 1368.7,870.763 1370.78,859.603 1372.86,859.475 1374.94,879.134 1377.02,905.247 1379.1,915.858 1381.19,907.147 1383.27,889.161 1385.35,873.506 1387.43,849.506 1389.51,825.743 1391.59,806.24 1393.67,796.234 1395.75,798.553 1397.83,808.77 1399.91,828.412 1401.99,852.212 1404.07,868.948 1406.15,894.381 1408.23,929.256 1410.31,959.311 1412.39,975.117 1414.47,985.343 1416.55,1014.16 1418.63,1039.05 1420.71,1042.91 1422.79,1045.37 1424.87,1050.43 1426.96,1052.58 1429.04,1049.19 1431.12,1068.46 1433.2,1093.26 1435.28,1107.14 1437.36,1106.21 1439.44,1092.85 1441.52,1076.33 1443.6,1065.03 1445.68,1039.8 1447.76,1010.71 1449.84,991.96 1451.92,972.71 1454,944.309 1456.08,902.528 1458.16,874.252 1460.24,847.041 1462.32,796.213 1464.4,751.774 1466.48,732.049 1468.56,720.147 1470.64,715.578 1472.73,714.725 1474.81,715.616 1476.89,726.464 1478.97,719.401 1481.05,713.225 1483.13,717.257 1485.21,702.357 1487.29,685.353 1489.37,679.893 1491.45,673.608 1493.53,668.914 1495.61,658.973 1497.69,654.408 1499.77,670.045 1501.85,704.009 1503.93,752.306 1506.01,788.039 1508.09,809.275 1510.17,819.712 1512.25,840.433 1514.33,870.24 1516.41,891.177 1518.5,892.531 1520.58,869.303 1522.66,848.791 1524.74,858.455 1526.82,891.18 1528.9,917.736 1530.98,921.145 1533.06,924.161 1535.14,942.996 1537.22,961.711 1539.3,976.101 1541.38,977.203 1543.46,972.496 1545.54,985.469 1547.62,985.722 1549.7,965.795 1551.78,951.333 1553.86,947.552 1555.94,966.013 1558.02,995.394 1560.1,1009.1 1562.18,1011.87 1564.27,1018.85 1566.35,1025.33 1568.43,1032.56 1570.51,1025.02 1572.59,1026.99 1574.67,1041.54 1576.75,1040.33 1578.83,1025.31 1580.91,999.694 1582.99,981.212 1585.07,972.554 1587.15,973.584 1589.23,977.906 1591.31,987.798 1593.39,1006.64 1595.47,1016.12 1597.55,1012.03 1599.63,999.301 1601.71,984.935 1603.79,956.898 1605.87,922.536 1607.95,900.119 1610.03,902.393 1612.12,913.982 1614.2,921.528 1616.28,926.615 1618.36,932.328 1620.44,929.452 1622.52,913.934 1624.6,901.111 1626.68,878.799 1628.76,858.534 1630.84,834.389 1632.92,799.061 1635,772.654 1637.08,746.107 1639.16,728.037 1641.24,712.791 1643.32,699.939 1645.4,706.825 1647.48,715.725 1649.56,715.429 1651.64,716.357 1653.72,714.48 1655.8,708.95 1657.89,719.027 1659.97,745.92 1662.05,778.363 1664.13,804.723 1666.21,811.912 1668.29,815.926 1670.37,826.906 1672.45,829.218 1674.53,812.555 1676.61,786.036 1678.69,763.063 1680.77,740.592 1682.85,723.932 1684.93,714.972 1687.01,704.006 1689.09,702.903 1691.17,699.884 1693.25,696.309 1695.33,714.215 1697.41,739.952 1699.49,785.18 1701.57,835.797 1703.66,886.339 1705.74,939.869 1707.82,960.101 1709.9,954.578 1711.98,947.651 1714.06,952.481 1716.14,968.246 1718.22,998.563 1720.3,1042.75 1722.38,1084.63 1724.46,1107.16 1726.54,1127.39 1728.62,1174.38 1730.7,1205.32 1732.78,1222.78 1734.86,1234.25 1736.94,1227.3 1739.02,1215.08 1741.1,1202.13 1743.18,1194.55 1745.26,1172.51 1747.34,1132.61 1749.43,1102.43 1751.51,1074.15 1753.59,1046.12 1755.67,1015.4 1757.75,968.812 1759.83,912.709 1761.91,858.64 1763.99,824.473 1766.07,813.786 1768.15,808.143 1770.23,787.317 1772.31,759.04 1774.39,722.594 1776.47,686.092 1778.55,658.559 1780.63,626.3 1782.71,605.037 1784.79,578.618 1786.87,542.887 1788.95,527.428 1791.03,525.526 1793.11,524.427 1795.2,540.533 1797.28,581.902 1799.36,602.718 1801.44,598.838 1803.52,614.079 1805.6,628.978 1807.68,629.76 1809.76,634.634 1811.84,621.641 1813.92,601.984 1816,590.618 1818.08,566.575 1820.16,547.946 1822.24,544.724 1824.32,537.508 1826.4,542.136 1828.48,553.879 1830.56,558.016 1832.64,573.751 1834.72,600.23 1836.8,615.749 1838.88,621.278 1840.96,621.688 1843.05,624.494 1845.13,633.292 1847.21,640.075 1849.29,646.727 1851.37,653.406 1853.45,654.763 1855.53,654.195 1857.61,658.697 1859.69,665.036 1861.77,666.836 1863.85,669.633 1865.93,685.226 1868.01,701.457 1870.09,705.7 1872.17,685.601 1874.25,667.971 1876.33,674.727 1878.41,695.644 1880.49,737.44 1882.57,786.234 1884.65,825.881 1886.73,851.355 1888.82,855.059 1890.9,855.94 1892.98,870.871 1895.06,878.521 1897.14,880.715 1899.22,882.829 1901.3,879.337 1903.38,875.959 1905.46,861.462 1907.54,845.229 1909.62,834.769 1911.7,828.68 1913.78,826.463 1915.86,813.321 1917.94,787.822 1920.02,768.315 1922.1,764.674 1924.18,767.106 1926.26,757.009 1928.34,720.795 1930.42,694.038 1932.5,694.624 1934.59,693.556 1936.67,675.763 1938.75,651.906 1940.83,649.302 1942.91,652.48 1944.99,646.647 1947.07,653.554 1949.15,665.663 1951.23,676.612 1953.31,698.896 1955.39,718.683 1957.47,728.392 1959.55,735.621 1961.63,749.187 1963.71,761.688 1965.79,776.32 1967.87,802.506 1969.95,807.412 1972.03,809.152 1974.11,839.277 1976.19,884.568 1978.27,930.441 1980.36,962.009 1982.44,981.977 1984.52,1006.33 1986.6,1023.63 1988.68,1028.54 1990.76,1041.55 1992.84,1061.55 1994.92,1073.46 1997,1077.07 1999.08,1083.07 2001.16,1103.2 2003.24,1137.82 2005.32,1160.72 2007.4,1167.31 2009.48,1170.32 2011.56,1171.46 2013.64,1157.73 2015.72,1125.21 2017.8,1084.31 2019.88,1036.37 2021.96,1005.75 2024.04,979.17 2026.13,940.369 2028.21,927.355 2030.29,946.281 2032.37,950.395 2034.45,947.03 2036.53,969.191 2038.61,992.515 2040.69,1021.39 2042.77,1048.32 2044.85,1060.36 2046.93,1063.32 2049.01,1047.08 2051.09,1023.68 2053.17,1002.93 2055.25,992.274 2057.33,997.856 2059.41,1019.28 2061.49,1019.45 2063.57,1015.01 2065.65,1026.59 2067.73,1038.84 2069.81,1046.88 2071.9,1048.72 2073.98,1054.22 2076.06,1051.49 2078.14,1057.66 2080.22,1069.79 2082.3,1073.86 2084.38,1073.84 2086.46,1070.81 2088.54,1062.36 2090.62,1063.59 2092.7,1049.29 2094.78,1009.77 2096.86,979.45 2098.94,959.545 2101.02,945.512 2103.1,928.284 2105.18,890.322 2107.26,849.104 2109.34,832.38 2111.42,832.187 2113.5,814.779 2115.58,794.072 2117.66,777.514 2119.75,770.835 2121.83,777.83 2123.91,776.317 2125.99,771.475 2128.07,779.082 2130.15,798.07 2132.23,820.667 2134.31,828.388 2136.39,810.615 2138.47,789.993 2140.55,783.804 2142.63,766.085 2144.71,724.229 2146.79,690.523 2148.87,671.835 2150.95,658.496 2153.03,644.422 2155.11,612.07 2157.19,572.159 2159.27,516.121 2161.35,451.801 2163.43,419.383 2165.52,401.077 2167.6,380.007 2169.68,344.036 2171.76,307.131 2173.84,281.828 2175.92,268.976 2178,246.091 2180.08,207.061 2182.16,174.043 2184.24,155.927 2186.32,134.679 2188.4,116.212 2190.48,104.673 2192.56,103.554 2194.64,115.82 2196.72,121.88 2198.8,106.678 2200.88,86.1857 2202.96,100.3 2205.04,122.451 2207.12,142.751 2209.2,173.044 2211.29,199.032 2213.37,228.043 2215.45,265.758 2217.53,287.025 2219.61,288.561 2221.69,291.075 2223.77,303.246 2225.85,334.709 2227.93,386.645 2230.01,436.149 2232.09,493.35 2234.17,551.276 2236.25,594.381 2238.33,633.403 2240.41,661.169 2242.49,680.753 2244.57,704.243 2246.65,730.473 2248.73,754.062 2250.81,785.431 2252.89,819.795 2254.97,853.209 2257.06,891.002 2259.14,915.217 2261.22,937.782 2263.3,971.595 2265.38,1000.09 2267.46,1025.26 2269.54,1015.42 2271.62,996.803 2273.7,989.716 2275.78,974.111 2277.86,963.584 2279.94,956.496 2282.02,957.868 2284.1,966.007 2286.18,958.22 2288.26,936.837 2290.34,924.09 "></polyline>
<path clip-path="url(#clip450)" d="M220.987 1377.32 L495.658 1377.32 L495.658 1118.12 L220.987 1118.12  Z" fill="#ffffff" fill-rule="evenodd" fill-opacity="1"></path>
<polyline clip-path="url(#clip450)" style="stroke:#000000; stroke-linecap:round; stroke-linejoin:round; stroke-width:4; stroke-opacity:1; fill:none" points="220.987,1377.32 495.658,1377.32 495.658,1118.12 220.987,1118.12 220.987,1377.32 "></polyline>
<polyline clip-path="url(#clip450)" style="stroke:#009af9; stroke-linecap:round; stroke-linejoin:round; stroke-width:4; stroke-opacity:1; fill:none" points="245.49,1169.96 392.509,1169.96 "></polyline>
<path clip-path="url(#clip450)" d="M430.854 1189.64 Q429.049 1194.27 427.336 1195.68 Q425.623 1197.1 422.753 1197.1 L419.35 1197.1 L419.35 1193.53 L421.85 1193.53 Q423.609 1193.53 424.581 1192.7 Q425.554 1191.86 426.734 1188.76 L427.498 1186.82 L417.012 1161.31 L421.526 1161.31 L429.628 1181.59 L437.729 1161.31 L442.243 1161.31 L430.854 1189.64 Z" fill="#000000" fill-rule="nonzero" fill-opacity="1"></path><path clip-path="url(#clip450)" d="M449.535 1183.3 L457.174 1183.3 L457.174 1156.93 L448.864 1158.6 L448.864 1154.34 L457.127 1152.68 L461.803 1152.68 L461.803 1183.3 L469.442 1183.3 L469.442 1187.24 L449.535 1187.24 L449.535 1183.3 Z" fill="#000000" fill-rule="nonzero" fill-opacity="1"></path><polyline clip-path="url(#clip450)" style="stroke:#e26f46; stroke-linecap:round; stroke-linejoin:round; stroke-width:4; stroke-opacity:1; fill:none" points="245.49,1221.8 392.509,1221.8 "></polyline>
<path clip-path="url(#clip450)" d="M430.854 1241.48 Q429.049 1246.11 427.336 1247.52 Q425.623 1248.94 422.753 1248.94 L419.35 1248.94 L419.35 1245.37 L421.85 1245.37 Q423.609 1245.37 424.581 1244.54 Q425.554 1243.7 426.734 1240.6 L427.498 1238.66 L417.012 1213.15 L421.526 1213.15 L429.628 1233.43 L437.729 1213.15 L442.243 1213.15 L430.854 1241.48 Z" fill="#000000" fill-rule="nonzero" fill-opacity="1"></path><path clip-path="url(#clip450)" d="M452.752 1235.14 L469.072 1235.14 L469.072 1239.08 L447.127 1239.08 L447.127 1235.14 Q449.789 1232.39 454.373 1227.76 Q458.979 1223.1 460.16 1221.76 Q462.405 1219.24 463.285 1217.5 Q464.188 1215.74 464.188 1214.05 Q464.188 1211.3 462.243 1209.56 Q460.322 1207.83 457.22 1207.83 Q455.021 1207.83 452.567 1208.59 Q450.137 1209.35 447.359 1210.9 L447.359 1206.18 Q450.183 1205.05 452.637 1204.47 Q455.09 1203.89 457.127 1203.89 Q462.498 1203.89 465.692 1206.58 Q468.887 1209.26 468.887 1213.75 Q468.887 1215.88 468.076 1217.8 Q467.289 1219.7 465.183 1222.29 Q464.604 1222.96 461.502 1226.18 Q458.401 1229.38 452.752 1235.14 Z" fill="#000000" fill-rule="nonzero" fill-opacity="1"></path><polyline clip-path="url(#clip450)" style="stroke:#3da44d; stroke-linecap:round; stroke-linejoin:round; stroke-width:4; stroke-opacity:1; fill:none" points="245.49,1273.64 392.509,1273.64 "></polyline>
<path clip-path="url(#clip450)" d="M430.854 1293.32 Q429.049 1297.95 427.336 1299.36 Q425.623 1300.78 422.753 1300.78 L419.35 1300.78 L419.35 1297.21 L421.85 1297.21 Q423.609 1297.21 424.581 1296.38 Q425.554 1295.54 426.734 1292.44 L427.498 1290.5 L417.012 1264.99 L421.526 1264.99 L429.628 1285.27 L437.729 1264.99 L442.243 1264.99 L430.854 1293.32 Z" fill="#000000" fill-rule="nonzero" fill-opacity="1"></path><path clip-path="url(#clip450)" d="M462.891 1272.28 Q466.248 1273 468.123 1275.27 Q470.021 1277.54 470.021 1280.87 Q470.021 1285.98 466.502 1288.79 Q462.984 1291.59 456.502 1291.59 Q454.327 1291.59 452.012 1291.15 Q449.72 1290.73 447.266 1289.87 L447.266 1285.36 Q449.211 1286.49 451.526 1287.07 Q453.84 1287.65 456.364 1287.65 Q460.762 1287.65 463.053 1285.92 Q465.368 1284.18 465.368 1280.87 Q465.368 1277.81 463.215 1276.1 Q461.086 1274.36 457.266 1274.36 L453.239 1274.36 L453.239 1270.52 L457.451 1270.52 Q460.901 1270.52 462.729 1269.16 Q464.558 1267.77 464.558 1265.17 Q464.558 1262.51 462.66 1261.1 Q460.785 1259.67 457.266 1259.67 Q455.345 1259.67 453.146 1260.08 Q450.947 1260.5 448.308 1261.38 L448.308 1257.21 Q450.97 1256.47 453.285 1256.1 Q455.623 1255.73 457.683 1255.73 Q463.007 1255.73 466.109 1258.16 Q469.211 1260.57 469.211 1264.69 Q469.211 1267.56 467.567 1269.55 Q465.924 1271.52 462.891 1272.28 Z" fill="#000000" fill-rule="nonzero" fill-opacity="1"></path><polyline clip-path="url(#clip450)" style="stroke:#c271d2; stroke-linecap:round; stroke-linejoin:round; stroke-width:4; stroke-opacity:1; fill:none" points="245.49,1325.48 392.509,1325.48 "></polyline>
<path clip-path="url(#clip450)" d="M430.854 1345.16 Q429.049 1349.79 427.336 1351.2 Q425.623 1352.62 422.753 1352.62 L419.35 1352.62 L419.35 1349.05 L421.85 1349.05 Q423.609 1349.05 424.581 1348.22 Q425.554 1347.38 426.734 1344.28 L427.498 1342.34 L417.012 1316.83 L421.526 1316.83 L429.628 1337.11 L437.729 1316.83 L442.243 1316.83 L430.854 1345.16 Z" fill="#000000" fill-rule="nonzero" fill-opacity="1"></path><path clip-path="url(#clip450)" d="M461.572 1312.27 L449.766 1330.72 L461.572 1330.72 L461.572 1312.27 M460.345 1308.2 L466.225 1308.2 L466.225 1330.72 L471.155 1330.72 L471.155 1334.61 L466.225 1334.61 L466.225 1342.76 L461.572 1342.76 L461.572 1334.61 L445.97 1334.61 L445.97 1330.09 L460.345 1308.2 Z" fill="#000000" fill-rule="nonzero" fill-opacity="1"></path></svg>