<svg xmlns="http://www.w3.org/2000/svg" xmlns:xlink="http://www.w3.org/1999/xlink" width="600" height="400" viewBox="0 0 2400 1600">
<defs>
  <clipPath id="clip370">
    <rect x="0" y="0" width="2400" height="1600"></rect>
  </clipPath>
</defs>
<path clip-path="url(#clip370)" d="M0 1600 L2400 1600 L2400 0 L0 0  Z" fill="#ffffff" fill-rule="evenodd" fill-opacity="1"></path>
<defs>
  <clipPath id="clip371">
    <rect x="480" y="0" width="1681" height="1600"></rect>
  </clipPath>
</defs>
<path clip-path="url(#clip370)" d="M222.871 1423.18 L2352.76 1423.18 L2352.76 47.2441 L222.871 47.2441  Z" fill="#ffffff" fill-rule="evenodd" fill-opacity="1"></path>
<defs>
  <clipPath id="clip372">
    <rect x="222" y="47" width="2131" height="1377"></rect>
  </clipPath>
</defs>
<polyline clip-path="url(#clip372)" style="stroke:#000000; stroke-linecap:round; stroke-linejoin:round; stroke-width:2; stroke-opacity:0.1; fill:none" points="222.871,1423.18 222.871,47.2441 "></polyline>
<polyline clip-path="url(#clip372)" style="stroke:#000000; stroke-linecap:round; stroke-linejoin:round; stroke-width:2; stroke-opacity:0.1; fill:none" points="648.848,1423.18 648.848,47.2441 "></polyline>
<polyline clip-path="url(#clip372)" style="stroke:#000000; stroke-linecap:round; stroke-linejoin:round; stroke-width:2; stroke-opacity:0.1; fill:none" points="1074.82,1423.18 1074.82,47.2441 "></polyline>
<polyline clip-path="url(#clip372)" style="stroke:#000000; stroke-linecap:round; stroke-linejoin:round; stroke-width:2; stroke-opacity:0.1; fill:none" points="1500.8,1423.18 1500.8,47.2441 "></polyline>
<polyline clip-path="url(#clip372)" style="stroke:#000000; stroke-linecap:round; stroke-linejoin:round; stroke-width:2; stroke-opacity:0.1; fill:none" points="1926.78,1423.18 1926.78,47.2441 "></polyline>
<polyline clip-path="url(#clip372)" style="stroke:#000000; stroke-linecap:round; stroke-linejoin:round; stroke-width:2; stroke-opacity:0.1; fill:none" points="2352.76,1423.18 2352.76,47.2441 "></polyline>
<polyline clip-path="url(#clip372)" style="stroke:#000000; stroke-linecap:round; stroke-linejoin:round; stroke-width:2; stroke-opacity:0.1; fill:none" points="222.871,1141.07 2352.76,1141.07 "></polyline>
<polyline clip-path="url(#clip372)" style="stroke:#000000; stroke-linecap:round; stroke-linejoin:round; stroke-width:2; stroke-opacity:0.1; fill:none" points="222.871,815.987 2352.76,815.987 "></polyline>
<polyline clip-path="url(#clip372)" style="stroke:#000000; stroke-linecap:round; stroke-linejoin:round; stroke-width:2; stroke-opacity:0.1; fill:none" points="222.871,490.908 2352.76,490.908 "></polyline>
<polyline clip-path="url(#clip372)" style="stroke:#000000; stroke-linecap:round; stroke-linejoin:round; stroke-width:2; stroke-opacity:0.1; fill:none" points="222.871,165.828 2352.76,165.828 "></polyline>
<polyline clip-path="url(#clip370)" style="stroke:#000000; stroke-linecap:round; stroke-linejoin:round; stroke-width:4; stroke-opacity:1; fill:none" points="222.871,1423.18 2352.76,1423.18 "></polyline>
<polyline clip-path="url(#clip370)" style="stroke:#000000; stroke-linecap:round; stroke-linejoin:round; stroke-width:4; stroke-opacity:1; fill:none" points="222.871,1423.18 222.871,1404.28 "></polyline>
<polyline clip-path="url(#clip370)" style="stroke:#000000; stroke-linecap:round; stroke-linejoin:round; stroke-width:4; stroke-opacity:1; fill:none" points="648.848,1423.18 648.848,1404.28 "></polyline>
<polyline clip-path="url(#clip370)" style="stroke:#000000; stroke-linecap:round; stroke-linejoin:round; stroke-width:4; stroke-opacity:1; fill:none" points="1074.82,1423.18 1074.82,1404.28 "></polyline>
<polyline clip-path="url(#clip370)" style="stroke:#000000; stroke-linecap:round; stroke-linejoin:round; stroke-width:4; stroke-opacity:1; fill:none" points="1500.8,1423.18 1500.8,1404.28 "></polyline>
<polyline clip-path="url(#clip370)" style="stroke:#000000; stroke-linecap:round; stroke-linejoin:round; stroke-width:4; stroke-opacity:1; fill:none" points="1926.78,1423.18 1926.78,1404.28 "></polyline>
<polyline clip-path="url(#clip370)" style="stroke:#000000; stroke-linecap:round; stroke-linejoin:round; stroke-width:4; stroke-opacity:1; fill:none" points="2352.76,1423.18 2352.76,1404.28 "></polyline>
<path clip-path="url(#clip370)" d="M200.255 1454.1 Q196.644 1454.1 194.816 1457.66 Q193.01 1461.2 193.01 1468.33 Q193.01 1475.44 194.816 1479.01 Q196.644 1482.55 200.255 1482.55 Q203.89 1482.55 205.695 1479.01 Q207.524 1475.44 207.524 1468.33 Q207.524 1461.2 205.695 1457.66 Q203.89 1454.1 200.255 1454.1 M200.255 1450.39 Q206.066 1450.39 209.121 1455 Q212.2 1459.58 212.2 1468.33 Q212.2 1477.06 209.121 1481.67 Q206.066 1486.25 200.255 1486.25 Q194.445 1486.25 191.367 1481.67 Q188.311 1477.06 188.311 1468.33 Q188.311 1459.58 191.367 1455 Q194.445 1450.39 200.255 1450.39 Z" fill="#000000" fill-rule="nonzero" fill-opacity="1"></path><path clip-path="url(#clip370)" d="M220.417 1479.7 L225.302 1479.7 L225.302 1485.58 L220.417 1485.58 L220.417 1479.7 Z" fill="#000000" fill-rule="nonzero" fill-opacity="1"></path><path clip-path="url(#clip370)" d="M245.487 1454.1 Q241.876 1454.1 240.047 1457.66 Q238.241 1461.2 238.241 1468.33 Q238.241 1475.44 240.047 1479.01 Q241.876 1482.55 245.487 1482.55 Q249.121 1482.55 250.926 1479.01 Q252.755 1475.44 252.755 1468.33 Q252.755 1461.2 250.926 1457.66 Q249.121 1454.1 245.487 1454.1 M245.487 1450.39 Q251.297 1450.39 254.352 1455 Q257.431 1459.58 257.431 1468.33 Q257.431 1477.06 254.352 1481.67 Q251.297 1486.25 245.487 1486.25 Q239.676 1486.25 236.598 1481.67 Q233.542 1477.06 233.542 1468.33 Q233.542 1459.58 236.598 1455 Q239.676 1450.39 245.487 1450.39 Z" fill="#000000" fill-rule="nonzero" fill-opacity="1"></path><path clip-path="url(#clip370)" d="M627.031 1454.1 Q623.42 1454.1 621.591 1457.66 Q619.786 1461.2 619.786 1468.33 Q619.786 1475.44 621.591 1479.01 Q623.42 1482.55 627.031 1482.55 Q630.665 1482.55 632.471 1479.01 Q634.299 1475.44 634.299 1468.33 Q634.299 1461.2 632.471 1457.66 Q630.665 1454.1 627.031 1454.1 M627.031 1450.39 Q632.841 1450.39 635.897 1455 Q638.975 1459.58 638.975 1468.33 Q638.975 1477.06 635.897 1481.67 Q632.841 1486.25 627.031 1486.25 Q621.221 1486.25 618.142 1481.67 Q615.087 1477.06 615.087 1468.33 Q615.087 1459.58 618.142 1455 Q621.221 1450.39 627.031 1450.39 Z" fill="#000000" fill-rule="nonzero" fill-opacity="1"></path><path clip-path="url(#clip370)" d="M647.193 1479.7 L652.077 1479.7 L652.077 1485.58 L647.193 1485.58 L647.193 1479.7 Z" fill="#000000" fill-rule="nonzero" fill-opacity="1"></path><path clip-path="url(#clip370)" d="M666.29 1481.64 L682.609 1481.64 L682.609 1485.58 L660.665 1485.58 L660.665 1481.64 Q663.327 1478.89 667.91 1474.26 Q672.517 1469.61 673.697 1468.27 Q675.943 1465.74 676.822 1464.01 Q677.725 1462.25 677.725 1460.56 Q677.725 1457.8 675.781 1456.07 Q673.859 1454.33 670.758 1454.33 Q668.559 1454.33 666.105 1455.09 Q663.674 1455.86 660.897 1457.41 L660.897 1452.69 Q663.721 1451.55 666.174 1450.97 Q668.628 1450.39 670.665 1450.39 Q676.035 1450.39 679.23 1453.08 Q682.424 1455.77 682.424 1460.26 Q682.424 1462.39 681.614 1464.31 Q680.827 1466.2 678.721 1468.8 Q678.142 1469.47 675.04 1472.69 Q671.938 1475.88 666.29 1481.64 Z" fill="#000000" fill-rule="nonzero" fill-opacity="1"></path><path clip-path="url(#clip370)" d="M1051.97 1454.1 Q1048.36 1454.1 1046.53 1457.66 Q1044.72 1461.2 1044.72 1468.33 Q1044.72 1475.44 1046.53 1479.01 Q1048.36 1482.55 1051.97 1482.55 Q1055.6 1482.55 1057.41 1479.01 Q1059.23 1475.44 1059.23 1468.33 Q1059.23 1461.2 1057.41 1457.66 Q1055.6 1454.1 1051.97 1454.1 M1051.97 1450.39 Q1057.78 1450.39 1060.83 1455 Q1063.91 1459.58 1063.91 1468.33 Q1063.91 1477.06 1060.83 1481.67 Q1057.78 1486.25 1051.97 1486.25 Q1046.16 1486.25 1043.08 1481.67 Q1040.02 1477.06 1040.02 1468.33 Q1040.02 1459.58 1043.08 1455 Q1046.16 1450.39 1051.97 1450.39 Z" fill="#000000" fill-rule="nonzero" fill-opacity="1"></path><path clip-path="url(#clip370)" d="M1072.13 1479.7 L1077.01 1479.7 L1077.01 1485.58 L1072.13 1485.58 L1072.13 1479.7 Z" fill="#000000" fill-rule="nonzero" fill-opacity="1"></path><path clip-path="url(#clip370)" d="M1100.04 1455.09 L1088.24 1473.54 L1100.04 1473.54 L1100.04 1455.09 M1098.82 1451.02 L1104.7 1451.02 L1104.7 1473.54 L1109.63 1473.54 L1109.63 1477.43 L1104.7 1477.43 L1104.7 1485.58 L1100.04 1485.58 L1100.04 1477.43 L1084.44 1477.43 L1084.44 1472.92 L1098.82 1451.02 Z" fill="#000000" fill-rule="nonzero" fill-opacity="1"></path><path clip-path="url(#clip370)" d="M1478.11 1454.1 Q1474.49 1454.1 1472.67 1457.66 Q1470.86 1461.2 1470.86 1468.33 Q1470.86 1475.44 1472.67 1479.01 Q1474.49 1482.55 1478.11 1482.55 Q1481.74 1482.55 1483.55 1479.01 Q1485.37 1475.44 1485.37 1468.33 Q1485.37 1461.2 1483.55 1457.66 Q1481.74 1454.1 1478.11 1454.1 M1478.11 1450.39 Q1483.92 1450.39 1486.97 1455 Q1490.05 1459.58 1490.05 1468.33 Q1490.05 1477.06 1486.97 1481.67 Q1483.92 1486.25 1478.11 1486.25 Q1472.3 1486.25 1469.22 1481.67 Q1466.16 1477.06 1466.16 1468.33 Q1466.16 1459.58 1469.22 1455 Q1472.3 1450.39 1478.11 1450.39 Z" fill="#000000" fill-rule="nonzero" fill-opacity="1"></path><path clip-path="url(#clip370)" d="M1498.27 1479.7 L1503.15 1479.7 L1503.15 1485.58 L1498.27 1485.58 L1498.27 1479.7 Z" fill="#000000" fill-rule="nonzero" fill-opacity="1"></path><path clip-path="url(#clip370)" d="M1523.92 1466.44 Q1520.77 1466.44 1518.92 1468.59 Q1517.09 1470.74 1517.09 1474.49 Q1517.09 1478.22 1518.92 1480.39 Q1520.77 1482.55 1523.92 1482.55 Q1527.06 1482.55 1528.89 1480.39 Q1530.74 1478.22 1530.74 1474.49 Q1530.74 1470.74 1528.89 1468.59 Q1527.06 1466.44 1523.92 1466.44 M1533.2 1451.78 L1533.2 1456.04 Q1531.44 1455.21 1529.63 1454.77 Q1527.85 1454.33 1526.09 1454.33 Q1521.46 1454.33 1519.01 1457.45 Q1516.58 1460.58 1516.23 1466.9 Q1517.6 1464.89 1519.66 1463.82 Q1521.72 1462.73 1524.19 1462.73 Q1529.4 1462.73 1532.41 1465.9 Q1535.44 1469.05 1535.44 1474.49 Q1535.44 1479.82 1532.29 1483.03 Q1529.15 1486.25 1523.92 1486.25 Q1517.92 1486.25 1514.75 1481.67 Q1511.58 1477.06 1511.58 1468.33 Q1511.58 1460.14 1515.47 1455.28 Q1519.36 1450.39 1525.91 1450.39 Q1527.67 1450.39 1529.45 1450.74 Q1531.25 1451.09 1533.2 1451.78 Z" fill="#000000" fill-rule="nonzero" fill-opacity="1"></path><path clip-path="url(#clip370)" d="M1904.21 1454.1 Q1900.6 1454.1 1898.77 1457.66 Q1896.96 1461.2 1896.96 1468.33 Q1896.96 1475.44 1898.77 1479.01 Q1900.6 1482.55 1904.21 1482.55 Q1907.84 1482.55 1909.65 1479.01 Q1911.48 1475.44 1911.48 1468.33 Q1911.48 1461.2 1909.65 1457.66 Q1907.84 1454.1 1904.21 1454.1 M1904.21 1450.39 Q1910.02 1450.39 1913.08 1455 Q1916.15 1459.58 1916.15 1468.33 Q1916.15 1477.06 1913.08 1481.67 Q1910.02 1486.25 1904.21 1486.25 Q1898.4 1486.25 1895.32 1481.67 Q1892.27 1477.06 1892.27 1468.33 Q1892.27 1459.58 1895.32 1455 Q1898.4 1450.39 1904.21 1450.39 Z" fill="#000000" fill-rule="nonzero" fill-opacity="1"></path><path clip-path="url(#clip370)" d="M1924.37 1479.7 L1929.26 1479.7 L1929.26 1485.58 L1924.37 1485.58 L1924.37 1479.7 Z" fill="#000000" fill-rule="nonzero" fill-opacity="1"></path><path clip-path="url(#clip370)" d="M1949.44 1469.17 Q1946.11 1469.17 1944.19 1470.95 Q1942.29 1472.73 1942.29 1475.86 Q1942.29 1478.98 1944.19 1480.77 Q1946.11 1482.55 1949.44 1482.55 Q1952.77 1482.55 1954.7 1480.77 Q1956.62 1478.96 1956.62 1475.86 Q1956.62 1472.73 1954.7 1470.95 Q1952.8 1469.17 1949.44 1469.17 M1944.76 1467.18 Q1941.76 1466.44 1940.07 1464.38 Q1938.4 1462.32 1938.4 1459.35 Q1938.4 1455.21 1941.34 1452.8 Q1944.3 1450.39 1949.44 1450.39 Q1954.6 1450.39 1957.54 1452.8 Q1960.48 1455.21 1960.48 1459.35 Q1960.48 1462.32 1958.79 1464.38 Q1957.13 1466.44 1954.14 1467.18 Q1957.52 1467.96 1959.39 1470.26 Q1961.29 1472.55 1961.29 1475.86 Q1961.29 1480.88 1958.21 1483.57 Q1955.16 1486.25 1949.44 1486.25 Q1943.72 1486.25 1940.64 1483.57 Q1937.59 1480.88 1937.59 1475.86 Q1937.59 1472.55 1939.49 1470.26 Q1941.39 1467.96 1944.76 1467.18 M1943.05 1459.79 Q1943.05 1462.48 1944.72 1463.98 Q1946.41 1465.49 1949.44 1465.49 Q1952.45 1465.49 1954.14 1463.98 Q1955.85 1462.48 1955.85 1459.79 Q1955.85 1457.11 1954.14 1455.6 Q1952.45 1454.1 1949.44 1454.1 Q1946.41 1454.1 1944.72 1455.6 Q1943.05 1457.11 1943.05 1459.79 Z" fill="#000000" fill-rule="nonzero" fill-opacity="1"></path><path clip-path="url(#clip370)" d="M2319.91 1481.64 L2327.55 1481.64 L2327.55 1455.28 L2319.24 1456.95 L2319.24 1452.69 L2327.5 1451.02 L2332.18 1451.02 L2332.18 1481.64 L2339.82 1481.64 L2339.82 1485.58 L2319.91 1485.58 L2319.91 1481.64 Z" fill="#000000" fill-rule="nonzero" fill-opacity="1"></path><path clip-path="url(#clip370)" d="M2349.26 1479.7 L2354.14 1479.7 L2354.14 1485.58 L2349.26 1485.58 L2349.26 1479.7 Z" fill="#000000" fill-rule="nonzero" fill-opacity="1"></path><path clip-path="url(#clip370)" d="M2374.33 1454.1 Q2370.72 1454.1 2368.89 1457.66 Q2367.08 1461.2 2367.08 1468.33 Q2367.08 1475.44 2368.89 1479.01 Q2370.72 1482.55 2374.33 1482.55 Q2377.96 1482.55 2379.77 1479.01 Q2381.6 1475.44 2381.6 1468.33 Q2381.6 1461.2 2379.77 1457.66 Q2377.96 1454.1 2374.33 1454.1 M2374.33 1450.39 Q2380.14 1450.39 2383.2 1455 Q2386.27 1459.58 2386.27 1468.33 Q2386.27 1477.06 2383.2 1481.67 Q2380.14 1486.25 2374.33 1486.25 Q2368.52 1486.25 2365.44 1481.67 Q2362.39 1477.06 2362.39 1468.33 Q2362.39 1459.58 2365.44 1455 Q2368.52 1450.39 2374.33 1450.39 Z" fill="#000000" fill-rule="nonzero" fill-opacity="1"></path><path clip-path="url(#clip370)" d="M1286.87 1522.27 L1286.87 1532.4 L1298.94 1532.4 L1298.94 1536.95 L1286.87 1536.95 L1286.87 1556.3 Q1286.87 1560.66 1288.05 1561.9 Q1289.26 1563.14 1292.92 1563.14 L1298.94 1563.14 L1298.94 1568.04 L1292.92 1568.04 Q1286.14 1568.04 1283.56 1565.53 Q1280.99 1562.98 1280.99 1556.3 L1280.99 1536.95 L1276.69 1536.95 L1276.69 1532.4 L1280.99 1532.4 L1280.99 1522.27 L1286.87 1522.27 Z" fill="#000000" fill-rule="nonzero" fill-opacity="1"></path><polyline clip-path="url(#clip370)" style="stroke:#000000; stroke-linecap:round; stroke-linejoin:round; stroke-width:4; stroke-opacity:1; fill:none" points="222.871,1423.18 222.871,47.2441 "></polyline>
<polyline clip-path="url(#clip370)" style="stroke:#000000; stroke-linecap:round; stroke-linejoin:round; stroke-width:4; stroke-opacity:1; fill:none" points="222.871,1141.07 241.769,1141.07 "></polyline>
<polyline clip-path="url(#clip370)" style="stroke:#000000; stroke-linecap:round; stroke-linejoin:round; stroke-width:4; stroke-opacity:1; fill:none" points="222.871,815.987 241.769,815.987 "></polyline>
<polyline clip-path="url(#clip370)" style="stroke:#000000; stroke-linecap:round; stroke-linejoin:round; stroke-width:4; stroke-opacity:1; fill:none" points="222.871,490.908 241.769,490.908 "></polyline>
<polyline clip-path="url(#clip370)" style="stroke:#000000; stroke-linecap:round; stroke-linejoin:round; stroke-width:4; stroke-opacity:1; fill:none" points="222.871,165.828 241.769,165.828 "></polyline>
<path clip-path="url(#clip370)" d="M50.9921 1141.52 L80.6679 1141.52 L80.6679 1145.45 L50.9921 1145.45 L50.9921 1141.52 Z" fill="#000000" fill-rule="nonzero" fill-opacity="1"></path><path clip-path="url(#clip370)" d="M100.76 1126.87 Q97.1493 1126.87 95.3206 1130.43 Q93.515 1133.97 93.515 1141.1 Q93.515 1148.21 95.3206 1151.77 Q97.1493 1155.31 100.76 1155.31 Q104.395 1155.31 106.2 1151.77 Q108.029 1148.21 108.029 1141.1 Q108.029 1133.97 106.2 1130.43 Q104.395 1126.87 100.76 1126.87 M100.76 1123.16 Q106.571 1123.16 109.626 1127.77 Q112.705 1132.35 112.705 1141.1 Q112.705 1149.83 109.626 1154.43 Q106.571 1159.02 100.76 1159.02 Q94.9502 1159.02 91.8715 1154.43 Q88.816 1149.83 88.816 1141.1 Q88.816 1132.35 91.8715 1127.77 Q94.9502 1123.16 100.76 1123.16 Z" fill="#000000" fill-rule="nonzero" fill-opacity="1"></path><path clip-path="url(#clip370)" d="M120.922 1152.47 L125.807 1152.47 L125.807 1158.35 L120.922 1158.35 L120.922 1152.47 Z" fill="#000000" fill-rule="nonzero" fill-opacity="1"></path><path clip-path="url(#clip370)" d="M145.992 1126.87 Q142.381 1126.87 140.552 1130.43 Q138.746 1133.97 138.746 1141.1 Q138.746 1148.21 140.552 1151.77 Q142.381 1155.31 145.992 1155.31 Q149.626 1155.31 151.431 1151.77 Q153.26 1148.21 153.26 1141.1 Q153.26 1133.97 151.431 1130.43 Q149.626 1126.87 145.992 1126.87 M145.992 1123.16 Q151.802 1123.16 154.857 1127.77 Q157.936 1132.35 157.936 1141.1 Q157.936 1149.83 154.857 1154.43 Q151.802 1159.02 145.992 1159.02 Q140.181 1159.02 137.103 1154.43 Q134.047 1149.83 134.047 1141.1 Q134.047 1132.35 137.103 1127.77 Q140.181 1123.16 145.992 1123.16 Z" fill="#000000" fill-rule="nonzero" fill-opacity="1"></path><path clip-path="url(#clip370)" d="M166.964 1154.41 L174.603 1154.41 L174.603 1128.05 L166.292 1129.71 L166.292 1125.45 L174.556 1123.79 L179.232 1123.79 L179.232 1154.41 L186.871 1154.41 L186.871 1158.35 L166.964 1158.35 L166.964 1154.41 Z" fill="#000000" fill-rule="nonzero" fill-opacity="1"></path><path clip-path="url(#clip370)" d="M99.5335 801.786 Q95.9224 801.786 94.0937 805.351 Q92.2882 808.892 92.2882 816.022 Q92.2882 823.128 94.0937 826.693 Q95.9224 830.235 99.5335 830.235 Q103.168 830.235 104.973 826.693 Q106.802 823.128 106.802 816.022 Q106.802 808.892 104.973 805.351 Q103.168 801.786 99.5335 801.786 M99.5335 798.082 Q105.344 798.082 108.399 802.688 Q111.478 807.272 111.478 816.022 Q111.478 824.749 108.399 829.355 Q105.344 833.938 99.5335 833.938 Q93.7234 833.938 90.6447 829.355 Q87.5892 824.749 87.5892 816.022 Q87.5892 807.272 90.6447 802.688 Q93.7234 798.082 99.5335 798.082 Z" fill="#000000" fill-rule="nonzero" fill-opacity="1"></path><path clip-path="url(#clip370)" d="M119.695 827.387 L124.58 827.387 L124.58 833.267 L119.695 833.267 L119.695 827.387 Z" fill="#000000" fill-rule="nonzero" fill-opacity="1"></path><path clip-path="url(#clip370)" d="M144.765 801.786 Q141.154 801.786 139.325 805.351 Q137.519 808.892 137.519 816.022 Q137.519 823.128 139.325 826.693 Q141.154 830.235 144.765 830.235 Q148.399 830.235 150.205 826.693 Q152.033 823.128 152.033 816.022 Q152.033 808.892 150.205 805.351 Q148.399 801.786 144.765 801.786 M144.765 798.082 Q150.575 798.082 153.63 802.688 Q156.709 807.272 156.709 816.022 Q156.709 824.749 153.63 829.355 Q150.575 833.938 144.765 833.938 Q138.955 833.938 135.876 829.355 Q132.82 824.749 132.82 816.022 Q132.82 807.272 135.876 802.688 Q138.955 798.082 144.765 798.082 Z" fill="#000000" fill-rule="nonzero" fill-opacity="1"></path><path clip-path="url(#clip370)" d="M174.927 801.786 Q171.316 801.786 169.487 805.351 Q167.681 808.892 167.681 816.022 Q167.681 823.128 169.487 826.693 Q171.316 830.235 174.927 830.235 Q178.561 830.235 180.366 826.693 Q182.195 823.128 182.195 816.022 Q182.195 808.892 180.366 805.351 Q178.561 801.786 174.927 801.786 M174.927 798.082 Q180.737 798.082 183.792 802.688 Q186.871 807.272 186.871 816.022 Q186.871 824.749 183.792 829.355 Q180.737 833.938 174.927 833.938 Q169.116 833.938 166.038 829.355 Q162.982 824.749 162.982 816.022 Q162.982 807.272 166.038 802.688 Q169.116 798.082 174.927 798.082 Z" fill="#000000" fill-rule="nonzero" fill-opacity="1"></path><path clip-path="url(#clip370)" d="M100.76 476.706 Q97.1493 476.706 95.3206 480.271 Q93.515 483.813 93.515 490.942 Q93.515 498.049 95.3206 501.614 Q97.1493 505.155 100.76 505.155 Q104.395 505.155 106.2 501.614 Q108.029 498.049 108.029 490.942 Q108.029 483.813 106.2 480.271 Q104.395 476.706 100.76 476.706 M100.76 473.003 Q106.571 473.003 109.626 477.609 Q112.705 482.192 112.705 490.942 Q112.705 499.669 109.626 504.276 Q106.571 508.859 100.76 508.859 Q94.9502 508.859 91.8715 504.276 Q88.816 499.669 88.816 490.942 Q88.816 482.192 91.8715 477.609 Q94.9502 473.003 100.76 473.003 Z" fill="#000000" fill-rule="nonzero" fill-opacity="1"></path><path clip-path="url(#clip370)" d="M120.922 502.308 L125.807 502.308 L125.807 508.188 L120.922 508.188 L120.922 502.308 Z" fill="#000000" fill-rule="nonzero" fill-opacity="1"></path><path clip-path="url(#clip370)" d="M145.992 476.706 Q142.381 476.706 140.552 480.271 Q138.746 483.813 138.746 490.942 Q138.746 498.049 140.552 501.614 Q142.381 505.155 145.992 505.155 Q149.626 505.155 151.431 501.614 Q153.26 498.049 153.26 490.942 Q153.26 483.813 151.431 480.271 Q149.626 476.706 145.992 476.706 M145.992 473.003 Q151.802 473.003 154.857 477.609 Q157.936 482.192 157.936 490.942 Q157.936 499.669 154.857 504.276 Q151.802 508.859 145.992 508.859 Q140.181 508.859 137.103 504.276 Q134.047 499.669 134.047 490.942 Q134.047 482.192 137.103 477.609 Q140.181 473.003 145.992 473.003 Z" fill="#000000" fill-rule="nonzero" fill-opacity="1"></path><path clip-path="url(#clip370)" d="M166.964 504.252 L174.603 504.252 L174.603 477.887 L166.292 479.554 L166.292 475.294 L174.556 473.628 L179.232 473.628 L179.232 504.252 L186.871 504.252 L186.871 508.188 L166.964 508.188 L166.964 504.252 Z" fill="#000000" fill-rule="nonzero" fill-opacity="1"></path><path clip-path="url(#clip370)" d="M101.131 151.627 Q97.5197 151.627 95.691 155.192 Q93.8854 158.733 93.8854 165.863 Q93.8854 172.969 95.691 176.534 Q97.5197 180.076 101.131 180.076 Q104.765 180.076 106.571 176.534 Q108.399 172.969 108.399 165.863 Q108.399 158.733 106.571 155.192 Q104.765 151.627 101.131 151.627 M101.131 147.923 Q106.941 147.923 109.996 152.53 Q113.075 157.113 113.075 165.863 Q113.075 174.59 109.996 179.196 Q106.941 183.78 101.131 183.78 Q95.3206 183.78 92.2419 179.196 Q89.1864 174.59 89.1864 165.863 Q89.1864 157.113 92.2419 152.53 Q95.3206 147.923 101.131 147.923 Z" fill="#000000" fill-rule="nonzero" fill-opacity="1"></path><path clip-path="url(#clip370)" d="M121.293 177.229 L126.177 177.229 L126.177 183.108 L121.293 183.108 L121.293 177.229 Z" fill="#000000" fill-rule="nonzero" fill-opacity="1"></path><path clip-path="url(#clip370)" d="M146.362 151.627 Q142.751 151.627 140.922 155.192 Q139.117 158.733 139.117 165.863 Q139.117 172.969 140.922 176.534 Q142.751 180.076 146.362 180.076 Q149.996 180.076 151.802 176.534 Q153.63 172.969 153.63 165.863 Q153.63 158.733 151.802 155.192 Q149.996 151.627 146.362 151.627 M146.362 147.923 Q152.172 147.923 155.228 152.53 Q158.306 157.113 158.306 165.863 Q158.306 174.59 155.228 179.196 Q152.172 183.78 146.362 183.78 Q140.552 183.78 137.473 179.196 Q134.418 174.59 134.418 165.863 Q134.418 157.113 137.473 152.53 Q140.552 147.923 146.362 147.923 Z" fill="#000000" fill-rule="nonzero" fill-opacity="1"></path><path clip-path="url(#clip370)" d="M170.552 179.173 L186.871 179.173 L186.871 183.108 L164.927 183.108 L164.927 179.173 Q167.589 176.419 172.172 171.789 Q176.778 167.136 177.959 165.794 Q180.204 163.27 181.084 161.534 Q181.987 159.775 181.987 158.085 Q181.987 155.331 180.042 153.595 Q178.121 151.858 175.019 151.858 Q172.82 151.858 170.366 152.622 Q167.936 153.386 165.158 154.937 L165.158 150.215 Q167.982 149.081 170.436 148.502 Q172.89 147.923 174.927 147.923 Q180.297 147.923 183.491 150.608 Q186.686 153.294 186.686 157.784 Q186.686 159.914 185.876 161.835 Q185.089 163.733 182.982 166.326 Q182.403 166.997 179.302 170.215 Q176.2 173.409 170.552 179.173 Z" fill="#000000" fill-rule="nonzero" fill-opacity="1"></path><polyline clip-path="url(#clip372)" style="stroke:#009af9; stroke-linecap:round; stroke-linejoin:round; stroke-width:4; stroke-opacity:1; fill:none" points="222.871,815.987 225.001,815.981 227.131,815.958 229.261,815.926 231.391,815.879 233.52,815.821 235.65,815.775 237.78,815.72 239.91,815.643 242.04,815.561 244.17,815.469 246.3,815.354 248.43,815.216 250.56,815.051 252.689,814.873 254.819,814.69 256.949,814.491 259.079,814.277 261.209,814.056 263.339,813.827 265.469,813.582 267.599,813.302 269.728,812.98 271.858,812.632 273.988,812.271 276.118,811.898 278.248,811.506 280.378,811.092 282.508,810.664 284.638,810.218 286.768,809.746 288.897,809.257 291.027,808.759 293.157,808.268 295.287,807.791 297.417,807.309 299.547,806.808 301.677,806.287 303.807,805.754 305.937,805.206 308.066,804.632 310.196,804.035 312.326,803.416 314.456,802.778 316.586,802.144 318.716,801.536 320.846,800.949 322.976,800.38 325.106,799.83 327.235,799.31 329.365,798.825 331.495,798.376 333.625,797.965 335.755,797.586 337.885,797.218 340.015,796.855 342.145,796.51 344.274,796.195 346.404,795.917 348.534,795.665 350.664,795.428 352.794,795.186 354.924,794.929 357.054,794.668 359.184,794.411 361.314,794.176 363.443,793.979 365.573,793.831 367.703,793.722 369.833,793.65 371.963,793.606 374.093,793.559 376.223,793.498 378.353,793.429 380.483,793.373 382.612,793.332 384.742,793.297 386.872,793.285 389.002,793.285 391.132,793.283 393.262,793.285 395.392,793.288 397.522,793.302 399.651,793.318 401.781,793.36 403.911,793.435 406.041,793.518 408.171,793.616 410.301,793.738 412.431,793.881 414.561,794.044 416.691,794.227 418.82,794.444 420.95,794.682 423.08,794.939 425.21,795.221 427.34,795.498 429.47,795.758 431.6,795.995 433.73,796.212 435.86,796.41 437.989,796.595 440.119,796.767 442.249,796.912 444.379,797.025 446.509,797.1 448.639,797.134 450.769,797.123 452.899,797.071 455.028,796.983 457.158,796.855 459.288,796.707 461.418,796.539 463.548,796.332 465.678,796.099 467.808,795.839 469.938,795.561 472.068,795.259 474.197,794.922 476.327,794.537 478.457,794.117 480.587,793.673 482.717,793.227 484.847,792.772 486.977,792.296 489.107,791.821 491.237,791.357 493.366,790.911 495.496,790.474 497.626,790.045 499.756,789.615 501.886,789.179 504.016,788.736 506.146,788.294 508.276,787.871 510.405,787.492 512.535,787.157 514.665,786.85 516.795,786.57 518.925,786.33 521.055,786.128 523.185,785.952 525.315,785.807 527.445,785.689 529.574,785.599 531.704,785.564 533.834,785.579 535.964,785.645 538.094,785.741 540.224,785.846 542.354,785.954 544.484,786.048 546.614,786.137 548.743,786.242 550.873,786.361 553.003,786.503 555.133,786.689 557.263,786.897 559.393,787.108 561.523,787.314 563.653,787.518 565.782,787.723 567.912,787.918 570.042,788.113 572.172,788.317 574.302,788.515 576.432,788.699 578.562,788.891 580.692,789.092 582.822,789.314 584.951,789.569 587.081,789.854 589.211,790.134 591.341,790.399 593.471,790.663 595.601,790.927 597.731,791.176 599.861,791.417 601.991,791.661 604.12,791.879 606.25,792.065 608.38,792.229 610.51,792.363 612.64,792.466 614.77,792.548 616.9,792.622 619.03,792.679 621.159,792.709 623.289,792.719 625.419,792.712 627.549,792.686 629.679,792.632 631.809,792.565 633.939,792.482 636.069,792.377 638.199,792.251 640.328,792.114 642.458,791.968 644.588,791.8 646.718,791.623 648.848,791.464 650.978,791.331 653.108,791.216 655.238,791.104 657.368,790.973 659.497,790.817 661.627,790.642 663.757,790.445 665.887,790.228 668.017,790.004 670.147,789.774 672.277,789.531 674.407,789.256 676.537,788.95 678.666,788.619 680.796,788.27 682.926,787.919 685.056,787.557 687.186,787.189 689.316,786.834 691.446,786.501 693.576,786.185 695.705,785.868 697.835,785.54 699.965,785.209 702.095,784.878 704.225,784.542 706.355,784.187 708.485,783.824 710.615,783.461 712.745,783.104 714.874,782.755 717.004,782.404 719.134,782.053 721.264,781.718 723.394,781.404 725.524,781.117 727.654,780.853 729.784,780.599 731.914,780.355 734.043,780.118 736.173,779.893 738.303,779.691 740.433,779.522 742.563,779.386 744.693,779.269 746.823,779.16 748.953,779.064 751.082,778.978 753.212,778.898 755.342,778.837 757.472,778.797 759.602,778.782 761.732,778.808 763.862,778.876 765.992,779.005 768.122,779.212 770.251,779.476 772.381,779.799 774.511,780.187 776.641,780.637 778.771,781.134 780.901,781.655 783.031,782.197 785.161,782.758 787.291,783.323 789.42,783.859 791.55,784.37 793.68,784.868 795.81,785.35 797.94,785.81 800.07,786.235 802.2,786.637 804.33,787.036 806.459,787.422 808.589,787.784 810.719,788.107 812.849,788.387 814.979,788.624 817.109,788.841 819.239,789.057 821.369,789.256 823.499,789.449 825.628,789.639 827.758,789.805 829.888,789.954 832.018,790.088 834.148,790.217 836.278,790.349 838.408,790.498 840.538,790.65 842.668,790.793 844.797,790.921 846.927,791.03 849.057,791.122 851.187,791.197 853.317,791.261 855.447,791.318 857.577,791.359 859.707,791.369 861.836,791.361 863.966,791.339 866.096,791.313 868.226,791.272 870.356,791.208 872.486,791.111 874.616,791.003 876.746,790.902 878.876,790.815 881.005,790.745 883.135,790.686 885.265,790.636 887.395,790.576 889.525,790.524 891.655,790.479 893.785,790.465 895.915,790.465 898.045,790.467 900.174,790.474 902.304,790.483 904.434,790.521 906.564,790.604 908.694,790.724 910.824,790.872 912.954,791.046 915.084,791.244 917.213,791.473 919.343,791.728 921.473,792.02 923.603,792.35 925.733,792.721 927.863,793.14 929.993,793.592 932.123,794.06 934.253,794.538 936.382,795.019 938.512,795.504 940.642,795.985 942.772,796.444 944.902,796.884 947.032,797.316 949.162,797.754 951.292,798.186 953.422,798.6 955.551,798.993 957.681,799.365 959.811,799.726 961.941,800.087 964.071,800.45 966.201,800.81 968.331,801.152 970.461,801.459 972.591,801.74 974.72,801.998 976.85,802.231 978.98,802.442 981.11,802.635 983.24,802.818 985.37,803.008 987.5,803.201 989.63,803.399 991.759,803.622 993.889,803.858 996.019,804.086 998.149,804.282 1000.28,804.458 1002.41,804.611 1004.54,804.72 1006.67,804.796 1008.8,804.846 1010.93,804.872 1013.06,804.873 1015.19,804.879 1017.32,804.893 1019.45,804.9 1021.58,804.916 1023.71,804.94 1025.84,804.957 1027.97,804.961 1030.1,804.979 1032.23,805.016 1034.36,805.078 1036.49,805.154 1038.62,805.242 1040.75,805.342 1042.88,805.442 1045.01,805.563 1047.14,805.698 1049.27,805.841 1051.4,805.978 1053.53,806.111 1055.66,806.237 1057.79,806.331 1059.92,806.401 1062.05,806.47 1064.18,806.535 1066.31,806.588 1068.44,806.615 1070.57,806.625 1072.7,806.63 1074.82,806.625 1076.95,806.59 1079.08,806.549 1081.21,806.52 1083.34,806.486 1085.47,806.453 1087.6,806.427 1089.73,806.391 1091.86,806.332 1093.99,806.247 1096.12,806.135 1098.25,806.004 1100.38,805.868 1102.51,805.736 1104.64,805.599 1106.77,805.451 1108.9,805.293 1111.03,805.13 1113.16,804.958 1115.29,804.774 1117.42,804.584 1119.55,804.398 1121.68,804.243 1123.81,804.129 1125.94,804.056 1128.07,804.023 1130.2,804.027 1132.33,804.048 1134.46,804.092 1136.59,804.139 1138.72,804.167 1140.85,804.167 1142.98,804.146 1145.11,804.117 1147.24,804.084 1149.37,804.068 1151.5,804.06 1153.63,804.059 1155.76,804.047 1157.89,804.036 1160.02,804.04 1162.15,804.052 1164.28,804.074 1166.41,804.122 1168.54,804.212 1170.67,804.341 1172.8,804.493 1174.93,804.659 1177.06,804.84 1179.19,805.023 1181.32,805.215 1183.45,805.414 1185.58,805.62 1187.71,805.831 1189.84,806.046 1191.97,806.261 1194.1,806.477 1196.23,806.701 1198.36,806.931 1200.49,807.159 1202.62,807.403 1204.75,807.68 1206.88,807.975 1209.01,808.267 1211.14,808.548 1213.27,808.831 1215.4,809.129 1217.53,809.44 1219.66,809.762 1221.79,810.084 1223.92,810.397 1226.05,810.697 1228.18,810.983 1230.31,811.266 1232.44,811.562 1234.57,811.867 1236.7,812.171 1238.83,812.481 1240.96,812.784 1243.09,813.066 1245.22,813.315 1247.35,813.531 1249.48,813.704 1251.61,813.838 1253.74,813.966 1255.87,814.094 1258,814.213 1260.12,814.331 1262.25,814.459 1264.38,814.589 1266.51,814.71 1268.64,814.814 1270.77,814.894 1272.9,814.954 1275.03,815.017 1277.16,815.077 1279.29,815.13 1281.42,815.169 1283.55,815.199 1285.68,815.243 1287.81,815.313 1289.94,815.413 1292.07,815.544 1294.2,815.705 1296.33,815.874 1298.46,816.043 1300.59,816.209 1302.72,816.376 1304.85,816.543 1306.98,816.699 1309.11,816.863 1311.24,817.047 1313.37,817.255 1315.5,817.49 1317.63,817.745 1319.76,818.01 1321.89,818.255 1324.02,818.474 1326.15,818.675 1328.28,818.85 1330.41,819.002 1332.54,819.132 1334.67,819.246 1336.8,819.347 1338.93,819.425 1341.06,819.479 1343.19,819.523 1345.32,819.557 1347.45,819.593 1349.58,819.635 1351.71,819.675 1353.84,819.712 1355.97,819.749 1358.1,819.785 1360.23,819.824 1362.36,819.851 1364.49,819.851 1366.62,819.847 1368.75,819.831 1370.88,819.797 1373.01,819.758 1375.14,819.71 1377.27,819.65 1379.4,819.586 1381.53,819.505 1383.66,819.412 1385.79,819.322 1387.92,819.244 1390.05,819.182 1392.18,819.127 1394.31,819.089 1396.44,819.075 1398.57,819.079 1400.7,819.098 1402.83,819.138 1404.96,819.213 1407.09,819.303 1409.22,819.369 1411.35,819.417 1413.48,819.46 1415.61,819.511 1417.74,819.589 1419.87,819.684 1422,819.782 1424.13,819.864 1426.26,819.929 1428.39,819.976 1430.52,819.996 1432.65,819.997 1434.78,819.98 1436.91,819.961 1439.04,819.948 1441.17,819.95 1443.3,819.974 1445.42,820.02 1447.55,820.084 1449.68,820.179 1451.81,820.308 1453.94,820.461 1456.07,820.625 1458.2,820.806 1460.33,821.019 1462.46,821.244 1464.59,821.473 1466.72,821.704 1468.85,821.941 1470.98,822.175 1473.11,822.416 1475.24,822.681 1477.37,822.967 1479.5,823.258 1481.63,823.543 1483.76,823.812 1485.89,824.066 1488.02,824.305 1490.15,824.512 1492.28,824.698 1494.41,824.864 1496.54,825.008 1498.67,825.116 1500.8,825.186 1502.93,825.233 1505.06,825.24 1507.19,825.196 1509.32,825.12 1511.45,825.03 1513.58,824.931 1515.71,824.831 1517.84,824.729 1519.97,824.634 1522.1,824.543 1524.23,824.441 1526.36,824.341 1528.49,824.237 1530.62,824.113 1532.75,823.98 1534.88,823.841 1537.01,823.696 1539.14,823.545 1541.27,823.383 1543.4,823.229 1545.53,823.098 1547.66,823.009 1549.79,822.966 1551.92,822.949 1554.05,822.949 1556.18,822.961 1558.31,823 1560.44,823.067 1562.57,823.145 1564.7,823.211 1566.83,823.252 1568.96,823.287 1571.09,823.345 1573.22,823.436 1575.35,823.541 1577.48,823.646 1579.61,823.762 1581.74,823.9 1583.87,824.052 1586,824.215 1588.13,824.373 1590.26,824.534 1592.39,824.707 1594.52,824.867 1596.65,825.009 1598.78,825.141 1600.91,825.28 1603.04,825.445 1605.17,825.633 1607.3,825.827 1609.43,826.027 1611.56,826.232 1613.69,826.446 1615.82,826.661 1617.95,826.867 1620.08,827.087 1622.21,827.312 1624.34,827.531 1626.47,827.727 1628.6,827.9 1630.72,828.061 1632.85,828.217 1634.98,828.377 1637.11,828.543 1639.24,828.724 1641.37,828.921 1643.5,829.12 1645.63,829.31 1647.76,829.486 1649.89,829.643 1652.02,829.766 1654.15,829.86 1656.28,829.943 1658.41,830.036 1660.54,830.137 1662.67,830.246 1664.8,830.358 1666.93,830.476 1669.06,830.582 1671.19,830.672 1673.32,830.749 1675.45,830.799 1677.58,830.832 1679.71,830.832 1681.84,830.801 1683.97,830.745 1686.1,830.665 1688.23,830.57 1690.36,830.459 1692.49,830.345 1694.62,830.241 1696.75,830.141 1698.88,830.04 1701.01,829.941 1703.14,829.836 1705.27,829.733 1707.4,829.648 1709.53,829.594 1711.66,829.571 1713.79,829.565 1715.92,829.561 1718.05,829.567 1720.18,829.58 1722.31,829.587 1724.44,829.57 1726.57,829.528 1728.7,829.464 1730.83,829.379 1732.96,829.283 1735.09,829.176 1737.22,829.062 1739.35,828.95 1741.48,828.83 1743.61,828.718 1745.74,828.629 1747.87,828.573 1750,828.569 1752.13,828.612 1754.26,828.711 1756.39,828.848 1758.52,828.99 1760.65,829.125 1762.78,829.257 1764.91,829.402 1767.04,829.567 1769.17,829.772 1771.3,830.02 1773.43,830.302 1775.56,830.602 1777.69,830.934 1779.82,831.311 1781.95,831.708 1784.08,832.123 1786.21,832.539 1788.34,832.944 1790.47,833.336 1792.6,833.718 1794.73,834.088 1796.86,834.424 1798.99,834.725 1801.12,834.998 1803.25,835.242 1805.38,835.458 1807.51,835.635 1809.64,835.76 1811.77,835.829 1813.9,835.852 1816.02,835.854 1818.15,835.849 1820.28,835.833 1822.41,835.789 1824.54,835.716 1826.67,835.602 1828.8,835.459 1830.93,835.286 1833.06,835.084 1835.19,834.862 1837.32,834.606 1839.45,834.323 1841.58,834.033 1843.71,833.742 1845.84,833.456 1847.97,833.2 1850.1,832.98 1852.23,832.765 1854.36,832.553 1856.49,832.361 1858.62,832.174 1860.75,831.99 1862.88,831.806 1865.01,831.599 1867.14,831.38 1869.27,831.144 1871.4,830.884 1873.53,830.614 1875.66,830.34 1877.79,830.061 1879.92,829.794 1882.05,829.534 1884.18,829.282 1886.31,829.053 1888.44,828.847 1890.57,828.65 1892.7,828.456 1894.83,828.262 1896.96,828.075 1899.09,827.896 1901.22,827.723 1903.35,827.557 1905.48,827.395 1907.61,827.234 1909.74,827.074 1911.87,826.92 1914,826.77 1916.13,826.622 1918.26,826.483 1920.39,826.361 1922.52,826.25 1924.65,826.132 1926.78,825.99 1928.91,825.844 1931.04,825.712 1933.17,825.61 1935.3,825.557 1937.43,825.548 1939.56,825.572 1941.69,825.611 1943.82,825.65 1945.95,825.696 1948.08,825.757 1950.21,825.819 1952.34,825.886 1954.47,825.951 1956.6,826.013 1958.73,826.067 1960.86,826.103 1962.99,826.128 1965.12,826.142 1967.25,826.154 1969.38,826.16 1971.51,826.145 1973.64,826.105 1975.77,826.055 1977.9,826.005 1980.03,825.953 1982.16,825.878 1984.29,825.766 1986.42,825.643 1988.55,825.522 1990.68,825.393 1992.81,825.24 1994.94,825.072 1997.07,824.908 1999.2,824.742 2001.32,824.574 2003.45,824.419 2005.58,824.273 2007.71,824.144 2009.84,824.038 2011.97,823.946 2014.1,823.862 2016.23,823.787 2018.36,823.728 2020.49,823.679 2022.62,823.652 2024.75,823.645 2026.88,823.634 2029.01,823.641 2031.14,823.687 2033.27,823.778 2035.4,823.91 2037.53,824.066 2039.66,824.244 2041.79,824.444 2043.92,824.654 2046.05,824.873 2048.18,825.108 2050.31,825.36 2052.44,825.62 2054.57,825.884 2056.7,826.159 2058.83,826.463 2060.96,826.798 2063.09,827.147 2065.22,827.5 2067.35,827.855 2069.48,828.205 2071.61,828.532 2073.74,828.821 2075.87,829.066 2078,829.269 2080.13,829.447 2082.26,829.59 2084.39,829.705 2086.52,829.824 2088.65,829.96 2090.78,830.09 2092.91,830.231 2095.04,830.397 2097.17,830.586 2099.3,830.807 2101.43,831.045 2103.56,831.293 2105.69,831.534 2107.82,831.753 2109.95,831.95 2112.08,832.13 2114.21,832.308 2116.34,832.499 2118.47,832.707 2120.6,832.905 2122.73,833.11 2124.86,833.325 2126.99,833.554 2129.12,833.785 2131.25,834.021 2133.38,834.259 2135.51,834.495 2137.64,834.744 2139.77,834.999 2141.9,835.258 2144.03,835.514 2146.16,835.765 2148.29,836.012 2150.42,836.255 2152.55,836.469 2154.68,836.646 2156.81,836.8 2158.94,836.935 2161.07,837.058 2163.2,837.152 2165.33,837.205 2167.46,837.227 2169.59,837.244 2171.72,837.253 2173.85,837.241 2175.98,837.211 2178.11,837.168 2180.24,837.126 2182.37,837.088 2184.5,837.045 2186.62,837.003 2188.75,836.975 2190.88,836.969 2193.01,836.979 2195.14,836.985 2197.27,836.968 2199.4,836.938 2201.53,836.9 2203.66,836.83 2205.79,836.72 2207.92,836.584 2210.05,836.433 2212.18,836.269 2214.31,836.083 2216.44,835.858 2218.57,835.59 2220.7,835.256 2222.83,834.873 2224.96,834.467 2227.09,834.042 2229.22,833.59 2231.35,833.098 2233.48,832.576 2235.61,832.034 2237.74,831.478 2239.87,830.887 2242,830.262 2244.13,829.611 2246.26,828.941 2248.39,828.251 2250.52,827.544 2252.65,826.83 2254.78,826.123 2256.91,825.427 2259.04,824.724 2261.17,824.006 2263.3,823.28 2265.43,822.577 2267.56,821.893 2269.69,821.234 2271.82,820.605 2273.95,820.002 2276.08,819.432 2278.21,818.895 2280.34,818.368 2282.47,817.841 2284.6,817.321 2286.73,816.822 2288.86,816.365 2290.99,815.961 2293.12,815.609 2295.25,815.316 2297.38,815.074 2299.51,814.872 2301.64,814.705 2303.77,814.56 2305.9,814.436 2308.03,814.338 2310.16,814.264 2312.29,814.217 2314.42,814.203 2316.55,814.224 2318.68,814.28 2320.81,814.369 2322.94,814.478 2325.07,814.617 2327.2,814.787 2329.33,814.985 2331.46,815.193 2333.59,815.381 2335.72,815.559 2337.85,815.725 2339.98,815.877 2342.11,816.021 2344.24,816.161 2346.37,816.307 2348.5,816.455 2350.63,816.587 2352.76,816.7 "></polyline>
<polyline clip-path="url(#clip372)" style="stroke:#e26f46; stroke-linecap:round; stroke-linejoin:round; stroke-width:4; stroke-opacity:1; fill:none" points="222.871,815.987 225.001,800.92 227.131,787.677 229.261,777.865 231.391,760.332 233.52,763.421 235.65,769.896 237.78,748.256 239.91,734.503 242.04,731.416 244.17,713.782 246.3,689.931 248.43,664.033 250.56,641.65 252.689,635.934 254.819,625.872 256.949,608.104 259.079,597.948 261.209,591.892 263.339,581.161 265.469,556.631 267.599,514.162 269.728,477.461 271.858,460.062 273.988,450.024 276.118,435.486 278.248,412.221 280.378,393.6 282.508,380.528 284.638,356.217 286.768,333.878 288.897,321.345 291.027,318.083 293.157,333.4 295.287,339.699 297.417,327.205 299.547,303.554 301.677,287.935 303.807,278.193 305.937,255.534 308.066,229.012 310.196,208.006 312.326,186.114 314.456,174.164 316.586,195.078 318.716,220.104 320.846,237.912 322.976,254.963 325.106,279.167 327.235,313.139 329.365,348.808 331.495,384.812 333.625,424.519 335.755,445.684 337.885,450.076 340.015,459.37 342.145,484.163 344.274,519.164 346.404,553.243 348.534,574.117 350.664,580.187 352.794,564.929 354.924,556.142 357.054,554.267 359.184,567.109 361.314,597.116 363.443,644.995 365.573,688.26 367.703,724.863 369.833,762.287 371.963,774.514 374.093,762.538 376.223,747.919 378.353,750.478 380.483,770.211 382.612,776.218 384.742,791.18 386.872,813.603 389.002,815.177 391.132,816.095 393.262,817.786 395.392,824.377 397.522,829.989 399.651,840.922 401.781,876.889 403.911,896.999 406.041,904.077 408.171,925.62 410.301,948.987 412.431,969.522 414.561,987.228 416.691,1016.09 418.82,1045.75 420.95,1061.87 423.08,1087.18 425.21,1099.97 427.34,1086.13 429.47,1064.24 431.6,1042.88 433.73,1022.55 435.86,1006.3 437.989,996.79 440.119,976.401 442.249,945.187 444.379,910.985 446.509,870.965 448.639,828.167 450.769,783.2 452.899,745.438 455.028,706.949 457.158,676.342 459.288,660.497 461.418,628.507 463.548,594.574 465.678,569.147 467.808,546.32 469.938,527.895 472.068,499.362 474.197,454.614 476.327,411.454 478.457,381 480.587,368.647 482.717,369.778 484.847,348.89 486.977,336.326 489.107,345.323 491.237,361.589 493.366,375.302 495.496,382.937 497.626,389.061 499.756,383.426 501.886,375.034 504.016,372.617 506.146,378.179 508.276,411.669 510.405,461.977 512.535,497.15 514.665,520.051 516.795,555.02 518.925,597.221 521.055,627.604 523.185,654.183 525.315,686.369 527.445,708.506 529.574,751.712 531.704,806.919 533.834,857.335 535.964,901.59 538.094,917.845 540.224,923.457 542.354,919.378 544.484,904.046 546.614,911.034 548.743,928.733 550.873,942.742 553.003,980.458 555.133,1017.35 557.263,1028.43 559.393,1024.65 561.523,1019.82 563.653,1022.1 565.782,1016.04 567.912,1008.31 570.042,1015.96 572.172,1020.22 574.302,1005.06 576.432,1001.78 578.562,1011.71 580.692,1025.06 582.822,1052.35 584.951,1089.81 587.081,1104.01 589.211,1087.53 591.341,1077.82 593.471,1082.08 595.601,1073.85 597.731,1057.88 599.861,1060.61 601.991,1052.08 604.12,1015.95 606.25,990.641 608.38,966.533 610.51,933.327 612.64,905.617 614.77,893.98 616.9,883.996 619.03,859.471 621.159,835.149 623.289,816.828 625.419,801.204 627.549,775.981 629.679,753.417 631.809,742.473 633.939,722.084 636.069,699.325 638.199,682.492 640.328,676.685 642.458,659.588 644.588,639.081 646.718,644.55 648.848,670.348 650.978,693.372 653.108,706.083 655.238,697.49 657.368,671.821 659.497,650.743 661.627,630.522 663.757,607.012 665.887,594.714 668.017,588.74 670.147,582.173 672.277,559.621 674.407,523.695 676.537,496.457 678.666,472.613 680.796,465.613 682.926,461.219 685.056,448.448 687.186,451.877 689.316,471.657 691.446,493.908 693.576,502.705 695.705,492.598 697.835,485.404 699.965,484.22 702.095,486.324 704.225,469.817 706.355,454.675 708.485,452.306 710.615,455.016 712.745,464.094 714.874,467.174 717.004,462.189 719.134,472.325 721.264,489.914 723.394,514.574 725.524,543.858 727.654,558.24 729.784,566.407 731.914,575.837 734.043,583.452 736.173,599.851 738.303,629.508 740.433,665.011 742.563,692.358 744.693,703.642 746.823,712.783 748.953,726.295 751.082,731.689 753.212,743.293 755.342,765.895 757.472,786.628 759.602,819.72 761.732,862.214 763.862,910.27 765.992,984.555 768.122,1054.16 770.251,1107.3 772.381,1171.83 774.511,1236.67 776.641,1293.4 778.771,1326.96 780.901,1346.66 783.031,1368.36 785.161,1384.24 787.291,1369.01 789.42,1337.45 791.55,1319.94 793.68,1307.44 795.81,1287.85 797.94,1258.92 800.07,1225.3 802.2,1215.67 804.33,1210.94 806.459,1192.89 808.589,1159.21 810.719,1119.09 812.849,1072.56 814.979,1035.6 817.109,1035.59 819.239,1024.21 821.369,1008.33 823.499,1010.62 825.628,996.699 827.758,970.208 829.888,957.243 832.018,945.717 834.148,944.209 836.278,957.075 838.408,969.154 840.538,964.185 842.668,952.764 844.797,934.337 846.927,916.135 849.057,899.675 851.187,884.338 853.317,876.603 855.447,867.565 857.577,840.995 859.707,815.959 861.836,800.168 863.966,791.493 866.096,783.793 868.226,766.515 870.356,735.072 872.486,708.509 874.616,709.815 876.746,720.824 878.876,737.595 881.005,752.274 883.135,764.593 885.265,760.09 887.395,758.361 889.525,765.423 891.655,785.326 893.785,813.632 895.915,816.463 898.045,820.601 900.174,822.298 902.304,834.72 904.434,876.719 906.564,919.424 908.694,950.72 910.824,977.688 912.954,1000.97 915.084,1029.46 917.213,1057.57 919.343,1088.18 921.473,1127.78 923.603,1164.35 925.733,1211.48 927.863,1255.84 929.993,1276.67 932.123,1289.63 934.253,1296.81 936.382,1298.58 938.512,1302.26 940.642,1288.56 942.772,1262.91 944.902,1249.54 947.032,1250.61 949.162,1254.11 951.292,1240.28 953.422,1218.84 955.551,1197.92 957.681,1179.76 959.811,1177.07 961.941,1177.22 964.071,1178.97 966.201,1171.55 968.331,1141.02 970.461,1107.59 972.591,1086.78 974.72,1061.44 976.85,1036.83 978.98,1017.85 981.11,1001.38 983.24,1000.87 985.37,1008.68 987.5,1007.56 989.63,1026.9 991.759,1048.14 993.889,1052.7 996.019,1028.77 998.149,999.849 1000.28,984.086 1002.41,947.323 1004.54,906.569 1006.67,877.716 1008.8,854.979 1010.93,826.598 1013.06,814.738 1015.19,829.332 1017.32,825.962 1019.45,825.015 1021.58,838.157 1023.71,839.325 1025.84,824.155 1027.97,823.712 1030.1,842.879 1032.23,866.18 1034.36,885.757 1036.49,897.696 1038.62,912.279 1040.75,914.433 1042.88,925.22 1045.01,945.551 1047.14,956.477 1049.27,957.451 1051.4,949.632 1053.53,948.186 1055.66,928.654 1057.79,893.843 1059.92,883.953 1062.05,884.149 1064.18,876.841 1066.31,856.487 1068.44,832.03 1070.57,822.916 1072.7,819.049 1074.82,796.133 1076.95,772.525 1079.08,781.561 1081.21,786.408 1083.34,779.73 1085.47,788.907 1087.6,786.883 1089.73,769.953 1091.86,744.468 1093.99,716.754 1096.12,693.108 1098.25,679.806 1100.38,682.29 1102.51,683.961 1104.64,673.875 1106.77,661.975 1108.9,654.526 1111.03,650.526 1113.16,637.338 1115.29,627.867 1117.42,624.196 1119.55,641.384 1121.68,681.969 1123.81,721.922 1125.94,763.001 1128.07,804.638 1130.2,829.137 1132.33,849.105 1134.46,866.264 1136.59,855.288 1138.72,830.237 1140.85,803.503 1142.98,789.812 1145.11,782.521 1147.24,790.722 1149.37,805.014 1151.5,813.24 1153.63,810.313 1155.76,801.019 1157.89,812.012 1160.02,825.904 1162.15,830.469 1164.28,847.228 1166.41,884.392 1168.54,927.705 1170.67,958.89 1172.8,975.017 1174.93,991.136 1177.06,997.724 1179.19,1003.01 1181.32,1011.94 1183.45,1018.35 1185.58,1025 1187.71,1029.72 1189.84,1031.26 1191.97,1030.45 1194.1,1035.16 1196.23,1044.83 1198.36,1044.51 1200.49,1047.31 1202.62,1076.43 1204.75,1106.57 1206.88,1112.02 1209.01,1101.32 1211.14,1095.08 1213.27,1105.62 1215.4,1120.59 1217.53,1134.58 1219.66,1139.63 1221.79,1134.42 1223.92,1123.44 1226.05,1107.86 1228.18,1097.28 1230.31,1103.94 1232.44,1120.08 1234.57,1119.22 1236.7,1123.15 1238.83,1124.59 1240.96,1112.01 1243.09,1081.29 1245.22,1049.75 1247.35,1012.13 1249.48,964.711 1251.61,943.271 1253.74,945.322 1255.87,940.093 1258,931.864 1260.12,938.829 1262.25,947.596 1264.38,942.173 1266.51,929.69 1268.64,909.143 1270.77,883.211 1272.9,875.303 1275.03,878.889 1277.16,873.421 1279.29,862.328 1281.42,848.302 1283.55,849.759 1285.68,871.655 1287.81,900.586 1289.94,930.991 1292.07,964.121 1294.2,984.114 1296.33,986.301 1298.46,983.132 1300.59,981.319 1302.72,984.53 1304.85,977.377 1306.98,972.189 1309.11,989.245 1311.24,1010.6 1313.37,1037.74 1315.5,1062.28 1317.63,1080.16 1319.76,1075.29 1321.89,1045.96 1324.02,1026.06 1326.15,1004.86 1328.28,979.148 1330.41,956.695 1332.54,936.613 1334.67,924.234 1336.8,906.811 1338.93,880.709 1341.06,863.705 1343.19,853.887 1345.32,849.171 1347.45,856.054 1349.58,857.939 1351.71,853.72 1353.84,853.201 1355.97,852.005 1358.1,854.396 1360.23,852.467 1362.36,828.31 1364.49,811.675 1366.62,808.736 1368.75,789.279 1370.88,778.172 1373.01,773.696 1375.14,761.402 1377.27,754.392 1379.4,744.874 1381.53,727.441 1383.66,722.056 1385.79,729.701 1387.92,746.639 1390.05,758.791 1392.18,767.149 1394.31,791.012 1396.44,811.56 1398.57,826.837 1400.7,843.068 1402.83,873.995 1404.96,905.198 1407.09,896.821 1409.22,870.763 1411.35,859.603 1413.48,859.475 1415.61,879.134 1417.74,905.247 1419.87,915.858 1422,907.147 1424.13,889.161 1426.26,873.506 1428.39,849.506 1430.52,825.743 1432.65,806.24 1434.78,796.234 1436.91,798.553 1439.04,808.77 1441.17,828.412 1443.3,852.212 1445.42,868.948 1447.55,894.381 1449.68,929.256 1451.81,959.311 1453.94,975.117 1456.07,985.343 1458.2,1014.16 1460.33,1039.05 1462.46,1042.91 1464.59,1045.37 1466.72,1050.43 1468.85,1052.58 1470.98,1049.19 1473.11,1068.46 1475.24,1093.26 1477.37,1107.14 1479.5,1106.21 1481.63,1092.85 1483.76,1076.33 1485.89,1065.03 1488.02,1039.8 1490.15,1010.71 1492.28,991.96 1494.41,972.71 1496.54,944.309 1498.67,902.528 1500.8,874.252 1502.93,847.041 1505.06,796.213 1507.19,751.774 1509.32,732.049 1511.45,720.147 1513.58,715.578 1515.71,714.725 1517.84,715.616 1519.97,726.464 1522.1,719.401 1524.23,713.225 1526.36,717.257 1528.49,702.357 1530.62,685.353 1532.75,679.893 1534.88,673.608 1537.01,668.914 1539.14,658.973 1541.27,654.408 1543.4,670.045 1545.53,704.009 1547.66,752.306 1549.79,788.039 1551.92,809.275 1554.05,819.712 1556.18,840.433 1558.31,870.24 1560.44,891.177 1562.57,892.531 1564.7,869.303 1566.83,848.791 1568.96,858.455 1571.09,891.18 1573.22,917.736 1575.35,921.145 1577.48,924.161 1579.61,942.996 1581.74,961.711 1583.87,976.101 1586,977.203 1588.13,972.496 1590.26,985.469 1592.39,985.722 1594.52,965.795 1596.65,951.333 1598.78,947.552 1600.91,966.013 1603.04,995.394 1605.17,1009.1 1607.3,1011.87 1609.43,1018.85 1611.56,1025.33 1613.69,1032.56 1615.82,1025.02 1617.95,1026.99 1620.08,1041.54 1622.21,1040.33 1624.34,1025.31 1626.47,999.694 1628.6,981.212 1630.72,972.554 1632.85,973.584 1634.98,977.906 1637.11,987.798 1639.24,1006.64 1641.37,1016.12 1643.5,1012.03 1645.63,999.301 1647.76,984.935 1649.89,956.898 1652.02,922.536 1654.15,900.119 1656.28,902.393 1658.41,913.982 1660.54,921.528 1662.67,926.615 1664.8,932.328 1666.93,929.452 1669.06,913.934 1671.19,901.111 1673.32,878.799 1675.45,858.534 1677.58,834.389 1679.71,799.061 1681.84,772.654 1683.97,746.107 1686.1,728.037 1688.23,712.791 1690.36,699.939 1692.49,706.825 1694.62,715.725 1696.75,715.429 1698.88,716.357 1701.01,714.48 1703.14,708.95 1705.27,719.027 1707.4,745.92 1709.53,778.363 1711.66,804.723 1713.79,811.912 1715.92,815.926 1718.05,826.906 1720.18,829.218 1722.31,812.555 1724.44,786.036 1726.57,763.063 1728.7,740.592 1730.83,723.932 1732.96,714.972 1735.09,704.006 1737.22,702.903 1739.35,699.884 1741.48,696.309 1743.61,714.215 1745.74,739.952 1747.87,785.18 1750,835.797 1752.13,886.339 1754.26,939.869 1756.39,960.101 1758.52,954.578 1760.65,947.651 1762.78,952.481 1764.91,968.246 1767.04,998.563 1769.17,1042.75 1771.3,1084.63 1773.43,1107.16 1775.56,1127.39 1777.69,1174.38 1779.82,1205.32 1781.95,1222.78 1784.08,1234.25 1786.21,1227.3 1788.34,1215.08 1790.47,1202.13 1792.6,1194.55 1794.73,1172.51 1796.86,1132.61 1798.99,1102.43 1801.12,1074.15 1803.25,1046.12 1805.38,1015.4 1807.51,968.812 1809.64,912.709 1811.77,858.64 1813.9,824.473 1816.02,813.786 1818.15,808.143 1820.28,787.317 1822.41,759.04 1824.54,722.594 1826.67,686.092 1828.8,658.559 1830.93,626.3 1833.06,605.037 1835.19,578.618 1837.32,542.887 1839.45,527.428 1841.58,525.526 1843.71,524.427 1845.84,540.533 1847.97,581.902 1850.1,602.718 1852.23,598.838 1854.36,614.079 1856.49,628.978 1858.62,629.76 1860.75,634.634 1862.88,621.641 1865.01,601.984 1867.14,590.618 1869.27,566.575 1871.4,547.946 1873.53,544.724 1875.66,537.508 1877.79,542.136 1879.92,553.879 1882.05,558.016 1884.18,573.751 1886.31,600.23 1888.44,615.749 1890.57,621.278 1892.7,621.688 1894.83,624.494 1896.96,633.292 1899.09,640.075 1901.22,646.727 1903.35,653.406 1905.48,654.763 1907.61,654.195 1909.74,658.697 1911.87,665.036 1914,666.836 1916.13,669.633 1918.26,685.226 1920.39,701.457 1922.52,705.7 1924.65,685.601 1926.78,667.971 1928.91,674.727 1931.04,695.644 1933.17,737.44 1935.3,786.234 1937.43,825.881 1939.56,851.355 1941.69,855.059 1943.82,855.94 1945.95,870.871 1948.08,878.521 1950.21,880.715 1952.34,882.829 1954.47,879.337 1956.6,875.959 1958.73,861.462 1960.86,845.229 1962.99,834.769 1965.12,828.68 1967.25,826.463 1969.38,813.321 1971.51,787.822 1973.64,768.315 1975.77,764.674 1977.9,767.106 1980.03,757.009 1982.16,720.795 1984.29,694.038 1986.42,694.624 1988.55,693.556 1990.68,675.763 1992.81,651.906 1994.94,649.302 1997.07,652.48 1999.2,646.647 2001.32,653.554 2003.45,665.663 2005.58,676.612 2007.71,698.896 2009.84,718.683 2011.97,728.392 2014.1,735.621 2016.23,749.187 2018.36,761.688 2020.49,776.32 2022.62,802.506 2024.75,807.412 2026.88,809.152 2029.01,839.277 2031.14,884.568 2033.27,930.441 2035.4,962.009 2037.53,981.977 2039.66,1006.33 2041.79,1023.63 2043.92,1028.54 2046.05,1041.55 2048.18,1061.55 2050.31,1073.46 2052.44,1077.07 2054.57,1083.07 2056.7,1103.2 2058.83,1137.82 2060.96,1160.72 2063.09,1167.31 2065.22,1170.32 2067.35,1171.46 2069.48,1157.73 2071.61,1125.21 2073.74,1084.31 2075.87,1036.37 2078,1005.75 2080.13,979.17 2082.26,940.369 2084.39,927.355 2086.52,946.281 2088.65,950.395 2090.78,947.03 2092.91,969.191 2095.04,992.515 2097.17,1021.39 2099.3,1048.32 2101.43,1060.36 2103.56,1063.32 2105.69,1047.08 2107.82,1023.68 2109.95,1002.93 2112.08,992.274 2114.21,997.856 2116.34,1019.28 2118.47,1019.45 2120.6,1015.01 2122.73,1026.59 2124.86,1038.84 2126.99,1046.88 2129.12,1048.72 2131.25,1054.22 2133.38,1051.49 2135.51,1057.66 2137.64,1069.79 2139.77,1073.86 2141.9,1073.84 2144.03,1070.81 2146.16,1062.36 2148.29,1063.59 2150.42,1049.29 2152.55,1009.77 2154.68,979.45 2156.81,959.545 2158.94,945.512 2161.07,928.284 2163.2,890.322 2165.33,849.104 2167.46,832.38 2169.59,832.187 2171.72,814.779 2173.85,794.072 2175.98,777.514 2178.11,770.835 2180.24,777.83 2182.37,776.317 2184.5,771.475 2186.62,779.082 2188.75,798.07 2190.88,820.667 2193.01,828.388 2195.14,810.615 2197.27,789.993 2199.4,783.804 2201.53,766.085 2203.66,724.229 2205.79,690.523 2207.92,671.835 2210.05,658.496 2212.18,644.422 2214.31,612.07 2216.44,572.159 2218.57,516.121 2220.7,451.801 2222.83,419.383 2224.96,401.077 2227.09,380.007 2229.22,344.036 2231.35,307.131 2233.48,281.828 2235.61,268.976 2237.74,246.091 2239.87,207.061 2242,174.043 2244.13,155.927 2246.26,134.679 2248.39,116.212 2250.52,104.673 2252.65,103.554 2254.78,115.82 2256.91,121.88 2259.04,106.678 2261.17,86.1857 2263.3,100.3 2265.43,122.451 2267.56,142.751 2269.69,173.044 2271.82,199.032 2273.95,228.043 2276.08,265.758 2278.21,287.025 2280.34,288.561 2282.47,291.075 2284.6,303.246 2286.73,334.709 2288.86,386.645 2290.99,436.149 2293.12,493.35 2295.25,551.276 2297.38,594.381 2299.51,633.403 2301.64,661.169 2303.77,680.753 2305.9,704.243 2308.03,730.473 2310.16,754.062 2312.29,785.431 2314.42,819.795 2316.55,853.209 2318.68,891.002 2320.81,915.217 2322.94,937.782 2325.07,971.595 2327.2,1000.09 2329.33,1025.26 2331.46,1015.42 2333.59,996.803 2335.72,989.716 2337.85,974.111 2339.98,963.584 2342.11,956.496 2344.24,957.868 2346.37,966.007 2348.5,958.22 2350.63,936.837 2352.76,924.09 "></polyline>
<path clip-path="url(#clip370)" d="M293.867 1377.32 L595.952 1377.32 L595.952 1221.8 L293.867 1221.8  Z" fill="#ffffff" fill-rule="evenodd" fill-opacity="1"></path>
<polyline clip-path="url(#clip370)" style="stroke:#000000; stroke-linecap:round; stroke-linejoin:round; stroke-width:4; stroke-opacity:1; fill:none" points="293.867,1377.32 595.952,1377.32 595.952,1221.8 293.867,1221.8 293.867,1377.32 "></polyline>
<polyline clip-path="url(#clip370)" style="stroke:#009af9; stroke-linecap:round; stroke-linejoin:round; stroke-width:4; stroke-opacity:1; fill:none" points="317.533,1273.64 459.525,1273.64 "></polyline>
<path clip-path="url(#clip370)" d="M483.19 1280.68 L483.19 1264.99 L487.45 1264.99 L487.45 1280.52 Q487.45 1284.2 488.885 1286.05 Q490.32 1287.88 493.19 1287.88 Q496.639 1287.88 498.63 1285.68 Q500.644 1283.48 500.644 1279.69 L500.644 1264.99 L504.903 1264.99 L504.903 1290.92 L500.644 1290.92 L500.644 1286.93 Q499.093 1289.29 497.033 1290.45 Q494.996 1291.59 492.287 1291.59 Q487.82 1291.59 485.505 1288.81 Q483.19 1286.03 483.19 1280.68 M493.908 1264.36 L493.908 1264.36 Z" fill="#000000" fill-rule="nonzero" fill-opacity="1"></path><path clip-path="url(#clip370)" d="M513.283 1254.9 L523.097 1254.9 L523.097 1258.21 L517.542 1258.21 L517.542 1293.86 L523.097 1293.86 L523.097 1297.17 L513.283 1297.17 L513.283 1254.9 Z" fill="#000000" fill-rule="nonzero" fill-opacity="1"></path><path clip-path="url(#clip370)" d="M533.584 1286.98 L541.222 1286.98 L541.222 1260.61 L532.912 1262.28 L532.912 1258.02 L541.176 1256.36 L545.852 1256.36 L545.852 1286.98 L553.491 1286.98 L553.491 1290.92 L533.584 1290.92 L533.584 1286.98 Z" fill="#000000" fill-rule="nonzero" fill-opacity="1"></path><path clip-path="url(#clip370)" d="M572.287 1254.9 L572.287 1297.17 L562.472 1297.17 L562.472 1293.86 L568.005 1293.86 L568.005 1258.21 L562.472 1258.21 L562.472 1254.9 L572.287 1254.9 Z" fill="#000000" fill-rule="nonzero" fill-opacity="1"></path><polyline clip-path="url(#clip370)" style="stroke:#e26f46; stroke-linecap:round; stroke-linejoin:round; stroke-width:4; stroke-opacity:1; fill:none" points="317.533,1325.48 459.525,1325.48 "></polyline>
<path clip-path="url(#clip370)" d="M483.19 1332.52 L483.19 1316.83 L487.45 1316.83 L487.45 1332.36 Q487.45 1336.04 488.885 1337.89 Q490.32 1339.72 493.19 1339.72 Q496.639 1339.72 498.63 1337.52 Q500.644 1335.32 500.644 1331.53 L500.644 1316.83 L504.903 1316.83 L504.903 1342.76 L500.644 1342.76 L500.644 1338.77 Q499.093 1341.13 497.033 1342.29 Q494.996 1343.43 492.287 1343.43 Q487.82 1343.43 485.505 1340.65 Q483.19 1337.87 483.19 1332.52 M493.908 1316.2 L493.908 1316.2 Z" fill="#000000" fill-rule="nonzero" fill-opacity="1"></path><path clip-path="url(#clip370)" d="M513.283 1306.74 L523.097 1306.74 L523.097 1310.05 L517.542 1310.05 L517.542 1345.7 L523.097 1345.7 L523.097 1349.01 L513.283 1349.01 L513.283 1306.74 Z" fill="#000000" fill-rule="nonzero" fill-opacity="1"></path><path clip-path="url(#clip370)" d="M536.801 1338.82 L553.12 1338.82 L553.12 1342.76 L531.176 1342.76 L531.176 1338.82 Q533.838 1336.07 538.421 1331.44 Q543.028 1326.78 544.208 1325.44 Q546.454 1322.92 547.333 1321.18 Q548.236 1319.42 548.236 1317.73 Q548.236 1314.98 546.292 1313.24 Q544.371 1311.51 541.269 1311.51 Q539.07 1311.51 536.616 1312.27 Q534.185 1313.03 531.408 1314.58 L531.408 1309.86 Q534.232 1308.73 536.685 1308.15 Q539.139 1307.57 541.176 1307.57 Q546.546 1307.57 549.741 1310.26 Q552.935 1312.94 552.935 1317.43 Q552.935 1319.56 552.125 1321.48 Q551.338 1323.38 549.232 1325.97 Q548.653 1326.64 545.551 1329.86 Q542.449 1333.06 536.801 1338.82 Z" fill="#000000" fill-rule="nonzero" fill-opacity="1"></path><path clip-path="url(#clip370)" d="M572.287 1306.74 L572.287 1349.01 L562.472 1349.01 L562.472 1345.7 L568.005 1345.7 L568.005 1310.05 L562.472 1310.05 L562.472 1306.74 L572.287 1306.74 Z" fill="#000000" fill-rule="nonzero" fill-opacity="1"></path></svg>